<svg version="1.1" id="Layer_1" xmlns="http://www.w3.org/2000/svg" xmlns:xlink="http://www.w3.org/1999/xlink" x="0px" y="0px"
	 width="100%" viewBox="0 0 2000 2000" enable-background="new 0 0 2000 2000" xml:space="preserve">
<path fill="none" opacity="1.000000" stroke="#000000" stroke-linecap="round" stroke-linejoin="round" stroke-width="10.000000"
	d="
M432.500000,464.000000 
	C435.594299,461.588531 436.137207,457.905579 436.954987,454.489227 
	C441.218201,436.679016 445.306183,418.826904 449.522949,401.005432 
	C450.366425,397.440460 452.271667,395.575562 456.493774,395.371399 
	C470.010529,394.717712 483.488007,393.234192 497.005585,392.623749 
	C502.851746,392.359741 508.653870,391.602875 514.500061,391.502838 
	C519.320984,391.420380 520.967529,390.115570 521.483521,385.498169 
	C524.158020,361.563660 526.298645,337.621063 527.381470,313.517151 
	C528.119263,297.094177 527.173157,280.812134 526.757324,264.506195 
	C526.369934,249.312820 524.819519,234.105743 522.647888,218.978775 
	C521.019653,207.637177 519.650208,196.268204 517.600464,184.981750 
	C516.945251,181.373962 515.253418,180.434891 511.999695,180.472366 
	C492.666992,180.694992 473.326538,180.588318 454.003479,181.125259 
	C446.667084,181.329086 439.333710,181.379181 431.999756,181.483582 
	C416.500519,181.704178 400.997620,181.715805 385.500610,182.030640 
	C367.331299,182.399750 349.165100,182.949448 331.000427,183.513748 
	C311.498535,184.119583 291.991455,184.649765 272.502686,185.557938 
	C256.837555,186.287903 241.176224,187.031967 225.506668,187.665024 
	C213.342285,188.156464 201.186890,189.180908 189.000687,189.524551 
	C184.900833,189.640152 183.510559,191.239212 183.507874,195.500000 
	C183.491928,220.833328 183.003891,246.179214 183.644318,271.496338 
	C184.243500,295.183441 185.509674,318.861237 187.376770,342.509735 
	C188.958252,362.540436 190.958984,382.518921 192.992798,402.500732 
	C193.530746,407.785980 194.433441,408.790222 199.500351,408.990967 
	C228.494080,410.139832 257.527161,410.096039 286.492798,409.252411 
	C317.050903,408.362457 347.637756,406.634552 378.001129,402.508301 
	C378.492065,402.441620 379.000793,402.518585 379.499878,402.497284 
	C390.084503,402.045471 390.018616,402.076019 394.519348,411.490753 
	C398.645233,420.121368 403.898315,427.896362 410.921051,434.582916 
	C416.910645,440.285706 420.006866,448.163086 424.456451,455.028229 
	C426.285370,457.849976 427.779205,461.137207 430.583466,462.864502 
	C433.475952,464.646210 432.542267,467.244934 433.250000,469.500000 
"/>
<path fill="none" opacity="1.000000" stroke="#000000" stroke-linecap="round" stroke-linejoin="round" stroke-width="7.000000"
	d="
M455.000000,745.000000 
	C456.144989,741.933777 458.799133,740.108154 461.036835,738.039856 
	C481.354065,719.260010 497.365814,697.116211 510.357971,672.923706 
	C523.410889,648.618042 505.226624,629.990601 487.029388,625.870178 
	C473.504364,622.807678 460.953644,625.828918 449.080231,631.178101 
	C429.403656,640.042664 413.053741,653.474365 398.856720,669.875977 
	C388.820618,681.470581 380.128571,693.925659 371.489227,706.492615 
	C364.242828,717.033325 356.545776,717.348206 349.090698,706.935059 
	C344.367432,700.337708 339.453247,693.976746 333.464294,688.539307 
	C328.326843,683.875000 322.588074,680.448547 315.533051,678.853699 
	C305.886627,676.673218 298.503601,679.976807 292.015350,686.515259 
	C281.728455,696.881775 280.626923,710.086975 281.644073,723.489075 
	C282.436768,733.934021 285.491150,744.156921 286.763184,754.529053 
	C288.131378,765.685425 288.876007,777.159302 284.027679,788.012390 
	C281.940887,792.683655 279.344910,796.726685 273.995697,797.981689 
	C268.926910,799.170898 264.255463,796.808777 260.629456,794.312012 
	C247.693649,785.404297 230.910187,789.534119 221.047195,798.054626 
	C209.256119,808.240662 204.660233,821.759644 203.959518,836.998108 
	C203.208954,853.320679 207.299789,868.921021 211.140945,884.465149 
	C215.462814,901.954712 218.884659,919.548462 219.910614,937.505127 
	C220.900604,954.832336 221.282425,972.178955 219.170685,989.520813 
	C218.634399,993.924927 217.312134,999.121216 221.500000,1003.000000 
"/>
<path fill="none" opacity="1.000000" stroke="#000000" stroke-linecap="round" stroke-linejoin="round" stroke-width="9.000000"
	d="
M1168.500000,1422.500000 
	C1169.025269,1418.281860 1170.436035,1415.028564 1174.378784,1412.323364 
	C1179.977295,1408.482056 1184.260376,1402.937988 1189.366577,1398.351440 
	C1201.626953,1387.338501 1216.065430,1382.851685 1232.001465,1382.027832 
	C1251.525024,1381.018555 1270.093262,1376.046143 1287.420166,1367.341187 
	C1301.775879,1360.129028 1314.841064,1350.697754 1326.497559,1339.497437 
	C1344.489502,1322.209961 1358.801514,1302.292358 1368.973389,1279.488159 
	C1374.945679,1266.098877 1378.900757,1252.194702 1380.606689,1237.512451 
	C1384.458374,1204.361572 1373.150757,1175.910278 1353.901123,1150.073608 
	C1339.735596,1131.061035 1321.555542,1116.296387 1300.430664,1105.637451 
	C1284.871338,1097.786865 1268.434570,1092.082275 1251.015381,1089.400513 
	C1240.375977,1087.762695 1229.760498,1086.326416 1219.000488,1086.527344 
	C1188.158936,1087.103149 1159.468140,1095.347778 1133.549194,1112.076294 
	C1103.876709,1131.227295 1081.679321,1157.050049 1067.541382,1189.518066 
	C1059.714600,1207.492188 1055.568970,1226.346436 1054.963867,1245.998901 
	C1054.368408,1265.337036 1057.071777,1284.118408 1064.553589,1301.977539 
	C1078.642944,1335.609009 1103.419312,1357.153809 1139.040771,1365.322144 
	C1149.609741,1367.745728 1160.641113,1368.027588 1171.518921,1365.584351 
	C1174.057495,1365.014160 1176.833374,1365.500000 1179.500000,1365.500000 
"/>
<path fill="none" opacity="1.000000" stroke="#000000" stroke-linecap="round" stroke-linejoin="round" stroke-width="9.000000"
	d="
M1657.500000,899.500000 
	C1664.626831,900.065979 1670.502808,896.368164 1675.885010,892.825256 
	C1685.822388,886.283813 1693.085449,877.170105 1696.446167,865.484558 
	C1697.616699,861.414795 1698.533691,857.198242 1698.895752,852.991028 
	C1699.250977,848.863770 1699.467651,844.634033 1698.499268,840.500183 
	C1696.432983,831.677612 1699.695923,823.746765 1703.072754,816.031860 
	C1710.065918,800.055054 1722.979126,789.501160 1736.977051,779.966309 
	C1748.898926,771.845581 1761.498413,764.774841 1773.033691,756.044495 
	C1793.320679,740.690491 1805.279053,720.219360 1809.338257,695.473450 
	C1813.044678,672.878967 1810.277100,650.711121 1799.931519,630.034241 
	C1788.448608,607.083862 1770.370605,590.951172 1747.022339,580.450317 
	C1736.107178,575.541199 1724.706421,572.197510 1712.974365,570.701416 
	C1703.266602,569.463440 1693.455322,569.153015 1683.472656,570.251404 
	C1666.703857,572.096497 1651.173218,576.810913 1636.478027,584.960449 
	C1614.069702,597.387512 1596.996338,614.713745 1584.844727,637.416870 
	C1575.464355,654.942200 1570.762329,673.461670 1570.654541,693.000854 
	C1570.520386,717.321533 1576.873413,739.999634 1590.420410,760.552429 
	C1596.366821,769.573975 1603.189697,778.124329 1606.120239,788.967529 
	C1608.095825,796.277893 1608.412598,803.463318 1604.779907,809.875366 
	C1602.453491,813.982056 1603.625000,817.617737 1602.843018,821.303589 
	C1616.248169,822.311768 1628.879639,824.011841 1641.528687,825.796753 
	C1648.284180,826.750122 1655.176392,827.291321 1661.990234,828.083801 
	C1669.006592,828.899780 1676.032227,829.923462 1683.031250,830.728149 
	C1687.570801,831.250061 1692.278809,832.860596 1697.000000,831.500000 
"/>
<path fill="none" opacity="1.000000" stroke="#000000" stroke-linecap="round" stroke-linejoin="round" stroke-width="10.000000"
	d="
M670.500000,230.500000 
	C668.441589,235.574173 670.586182,240.537155 671.095459,245.490189 
	C671.904602,253.360260 673.822144,261.136047 674.315247,269.011566 
	C674.607422,273.678040 677.034790,277.442963 677.772400,281.955475 
	C680.225220,296.961029 682.817017,311.942963 685.073486,326.988983 
	C687.171387,340.977448 688.944519,355.016968 691.167786,368.973267 
	C693.075684,380.950073 693.823425,393.022003 695.498047,405.000275 
	C696.403320,411.475372 697.283264,417.942993 697.578308,424.496460 
	C697.730042,427.866058 699.945740,429.519409 703.499817,429.538177 
	C710.500488,429.575165 717.500183,429.825165 724.499939,430.001526 
	C744.166748,430.497101 763.833801,430.981873 783.499878,431.505341 
	C801.333862,431.980011 819.166809,432.495331 836.999939,433.001190 
	C860.333435,433.663086 883.667480,434.307739 906.999695,435.009186 
	C922.001221,435.460236 936.999878,436.002869 952.000061,436.498474 
	C957.333069,436.674713 962.665894,436.929749 968.000244,436.973541 
	C973.615051,437.019653 975.818787,435.374878 976.449890,429.994110 
	C978.663452,411.120758 981.715942,392.361481 984.229919,373.530701 
	C986.057678,359.839752 988.351562,346.167328 990.425720,332.488739 
	C993.704834,310.864410 996.424011,289.155762 999.528687,267.504120 
	C1001.372070,254.648331 1003.748352,241.864471 1005.362671,228.982788 
	C1005.913208,224.589905 1007.003052,219.839279 1004.500000,215.500000 
"/>
<path fill="none" opacity="1.000000" stroke="#000000" stroke-linecap="round" stroke-linejoin="round" stroke-width="8.000000"
	d="
M931.000000,740.500000 
	C931.788757,734.760559 927.930359,730.866943 924.899414,727.080566 
	C906.017395,703.492371 881.603333,688.168457 852.476379,680.590881 
	C836.770203,676.504883 820.823059,675.397278 804.481445,677.343994 
	C775.327759,680.816956 750.594238,692.772034 729.456055,712.953979 
	C713.494202,728.193909 702.183594,746.292542 695.083008,767.028442 
	C692.219971,775.389404 690.717102,784.103149 689.918213,792.992676 
	C686.739014,828.368164 697.111206,859.437866 719.007874,886.993713 
	C719.444946,887.543762 720.450134,888.014771 720.434265,888.497864 
	C720.019775,901.116699 730.912170,905.809631 738.213562,912.258240 
	C751.481567,923.976624 767.255310,931.881531 784.500549,936.497986 
	C788.215698,937.492554 791.925476,938.346252 795.503418,936.005249 
	C797.067139,934.982239 798.898682,935.238953 800.489014,935.555298 
	C818.208801,939.080505 835.997742,938.284180 853.461182,934.805115 
	C871.901794,931.131409 888.379028,922.743591 902.553650,910.059937 
	C906.797241,906.262695 910.614319,902.102722 914.452881,897.956360 
	C917.788208,894.353516 919.935059,889.766663 925.441040,888.281494 
	C927.572815,887.706421 929.045715,884.735413 930.569885,882.548706 
	C940.108521,868.864075 945.388000,853.435852 949.468872,837.492004 
	C949.709106,836.553528 949.753113,835.418335 949.460876,834.512634 
	C946.457092,825.201721 950.202942,816.142639 950.745056,807.014526 
	C951.673279,791.386597 948.773682,776.574219 943.895996,762.034912 
	C941.287537,754.259583 936.535950,747.482544 931.500000,741.000000 
"/>
<path fill="none" opacity="1.000000" stroke="#000000" stroke-linecap="round" stroke-linejoin="round" stroke-width="10.000000"
	d="
M485.000000,1686.500000 
	C488.361450,1693.521973 484.345490,1699.502319 481.911072,1705.463623 
	C473.451416,1726.179810 458.416504,1741.751343 440.930145,1754.907104 
	C416.321106,1773.421509 389.082916,1786.845947 358.982849,1793.927002 
	C349.144653,1796.241455 339.142212,1797.694458 329.022034,1798.717773 
	C318.810699,1799.750244 308.627197,1799.804077 298.508636,1799.319702 
	C284.317780,1798.640381 270.233582,1796.265747 256.518219,1792.434692 
	C241.041992,1788.111816 226.141037,1782.176880 212.014786,1774.472900 
	C197.008621,1766.288818 183.007797,1756.614868 169.988113,1745.513916 
	C158.009613,1735.300659 147.180496,1723.974487 136.996460,1712.003052 
	C135.250534,1709.950562 133.936066,1707.698608 133.500000,1705.000000 
"/>
<path fill="none" opacity="1.000000" stroke="#000000" stroke-linecap="round" stroke-linejoin="round" stroke-width="10.000000"
	d="
M479.000000,1685.000000 
	C468.488251,1692.341309 456.154510,1694.245972 443.980621,1695.853271 
	C426.100220,1698.214233 408.024933,1698.246338 389.999786,1698.483887 
	C371.834106,1698.723511 353.665924,1698.777710 335.500183,1699.014648 
	C314.832703,1699.284302 294.157196,1699.392090 273.503510,1700.102539 
	C260.995331,1700.532715 248.442734,1699.619507 236.013870,1700.664917 
	C219.159409,1702.082642 202.329697,1700.994751 185.500183,1701.506104 
	C169.999313,1701.977173 154.501877,1702.589600 138.998199,1702.914307 
	C136.324448,1702.970337 133.747177,1705.743164 131.000000,1703.250000 
"/>
<path fill="none" opacity="1.000000" stroke="#000000" stroke-linecap="round" stroke-linejoin="round" stroke-width="11.000000"
	d="
M1854.500000,1240.750000 
	C1853.303223,1241.087646 1852.234131,1241.052979 1850.975708,1240.562378 
	C1847.813232,1239.329346 1845.107300,1240.375244 1842.464355,1242.454712 
	C1837.384766,1246.451538 1830.878784,1246.669922 1824.984619,1248.449097 
	C1789.059814,1259.292114 1753.677734,1271.690674 1719.026733,1286.064331 
	C1675.507446,1304.116943 1633.287720,1324.889038 1592.528076,1348.548340 
	C1581.011719,1355.233032 1569.751709,1362.373169 1558.551758,1369.580566 
	C1555.355225,1371.637573 1552.261597,1372.776978 1548.497925,1372.531006 
	C1543.707886,1372.218140 1539.740845,1373.533813 1536.937866,1377.960693 
	C1533.615479,1383.208130 1527.866577,1386.199951 1524.000000,1391.000000 
"/>
<path fill="none" opacity="1.000000" stroke="#000000" stroke-linecap="round" stroke-linejoin="round" stroke-width="10.000000"
	d="
M1383.500000,1542.500000 
	C1382.276855,1552.482422 1383.988647,1562.532227 1382.941284,1572.493774 
	C1381.886597,1582.523560 1380.922852,1592.565796 1379.039673,1602.507568 
	C1370.908203,1645.436401 1354.151123,1684.567139 1328.588623,1720.063843 
	C1317.325317,1735.704590 1305.013184,1750.365234 1290.935425,1763.430420 
	C1268.555542,1784.200562 1243.640869,1801.318604 1215.505981,1813.513794 
	C1209.908569,1815.939941 1208.741455,1815.686035 1203.000000,1810.000000 
"/>
<path fill="none" opacity="1.000000" stroke="#000000" stroke-linecap="round" stroke-linejoin="round" stroke-width="8.000000"
	d="
M1424.500000,649.000000 
	C1419.666626,645.551941 1414.596680,648.348694 1410.043945,649.227844 
	C1395.886841,651.961609 1381.679321,654.399963 1367.501831,657.009705 
	C1355.992920,659.128357 1344.507080,661.371521 1332.998535,663.492004 
	C1309.336792,667.851929 1285.668335,672.176208 1261.999512,676.497009 
	C1241.835449,680.177917 1221.668457,683.843201 1201.499268,687.496094 
	C1190.336548,689.517822 1179.152466,691.424622 1168.003662,693.519775 
	C1155.154297,695.934631 1142.333374,698.500000 1129.500000,701.000000 
"/>
<path fill="none" opacity="1.000000" stroke="#000000" stroke-linecap="round" stroke-linejoin="round" stroke-width="7.000000"
	d="
M426.000000,853.500000 
	C432.317383,857.665283 439.732147,859.472046 446.129242,863.809387 
	C459.689423,873.003662 461.102386,888.518799 453.057434,901.535461 
	C443.817383,916.485718 429.822296,925.331482 414.481110,932.459290 
	C391.225677,943.264282 366.775818,950.725159 341.965668,956.861267 
	C329.328308,959.986816 316.387177,962.036194 303.487671,963.915527 
	C282.895813,966.915588 267.151337,977.004211 255.981232,994.487976 
	C251.082260,1002.156067 245.387299,1009.153809 237.483261,1013.972534 
	C234.719437,1015.657471 231.693344,1016.406738 228.500000,1015.000000 
"/>
<path fill="none" opacity="1.000000" stroke="#000000" stroke-linecap="round" stroke-linejoin="round" stroke-width="9.000000"
	d="
M1662.500000,1088.500000 
	C1659.772583,1089.892456 1657.751221,1092.023193 1655.989136,1094.492310 
	C1628.449463,1133.082764 1604.812256,1173.919556 1584.964233,1216.983521 
	C1569.862549,1249.749268 1557.194336,1283.407837 1547.033081,1318.009766 
	C1543.821045,1328.947510 1540.987183,1339.996582 1538.027222,1351.007324 
	C1537.818359,1351.784546 1537.807861,1352.722168 1538.030151,1353.491211 
	C1539.873657,1359.868774 1538.224731,1366.773071 1541.000000,1373.000000 
"/>
<path fill="none" opacity="1.000000" stroke="#000000" stroke-linecap="round" stroke-linejoin="round" stroke-width="10.000000"
	d="
M1381.500000,1548.500000 
	C1373.207886,1549.699951 1367.150391,1555.316284 1360.568970,1559.605835 
	C1330.788696,1579.015869 1304.553711,1602.431396 1281.947144,1629.956665 
	C1265.970093,1649.409668 1252.284912,1670.217773 1240.322754,1692.404419 
	C1224.851196,1721.100464 1214.665527,1751.554565 1207.152710,1783.036377 
	C1206.120239,1787.362549 1205.543091,1791.646484 1202.445435,1794.948853 
	C1201.045044,1796.441772 1201.221313,1798.142700 1201.608765,1799.468262 
	C1202.514404,1802.567749 1202.475098,1805.500000 1201.562988,1808.081421 
	C1193.844116,1808.690552 1188.955566,1804.147827 1183.931274,1799.067993 
	C1149.577759,1764.333618 1120.076416,1725.873413 1095.054565,1683.967407 
	C1089.515137,1674.690063 1084.666748,1665.000000 1079.500000,1655.500000 
"/>
<path fill="none" opacity="1.000000" stroke="#000000" stroke-linecap="round" stroke-linejoin="round" stroke-width="11.000000"
	d="
M722.500000,371.500031 
	C732.666687,372.166687 742.826233,373.237701 753.001465,373.416260 
	C774.514160,373.793823 795.975586,375.314697 817.497192,375.669403 
	C843.002747,376.089722 868.511292,376.249207 893.996033,375.783234 
	C908.658875,375.515198 923.360229,375.662384 937.989624,374.819458 
	C949.161499,374.175720 960.348511,374.443024 971.505920,373.575958 
	C975.468994,373.267944 979.500000,373.833374 983.500000,374.000031 
"/>
<path fill="none" opacity="1.000000" stroke="#000000" stroke-linecap="round" stroke-linejoin="round" stroke-width="10.000000"
	d="
M929.500000,1262.500000 
	C928.803589,1264.774292 927.883850,1266.849976 926.019287,1268.521484 
	C898.009460,1293.630371 869.668762,1318.354736 839.981018,1341.475586 
	C807.446411,1366.813721 774.190002,1391.138184 739.565491,1413.600952 
	C722.024109,1424.981079 704.391724,1436.186401 686.550232,1447.082275 
	C683.459473,1448.969849 680.450623,1449.745728 677.000000,1449.500000 
"/>
<path fill="none" opacity="1.000000" stroke="#000000" stroke-linecap="round" stroke-linejoin="round" stroke-width="8.000000"
	d="
M491.500000,634.500000 
	C486.124756,637.583069 482.899841,642.906128 478.481110,646.979492 
	C471.887054,653.058228 465.197784,659.034973 458.494293,664.993591 
	C436.693359,684.371887 416.487854,705.349915 397.054016,727.048401 
	C372.664215,754.280212 350.071716,782.970459 328.412964,812.436035 
	C310.155365,837.274475 294.582214,863.662231 280.554871,891.028137 
	C279.962433,892.183960 278.609344,893.079285 279.417206,895.034180 
	C281.500427,900.075317 279.108398,904.511658 277.027771,909.012817 
	C261.476746,942.655945 246.011658,976.338684 230.465652,1009.984131 
	C229.687500,1011.668274 229.622284,1013.727783 228.000000,1015.000000 
"/>
<path fill="none" opacity="1.000000" stroke="#000000" stroke-linecap="round" stroke-linejoin="round" stroke-width="8.000000"
	d="
M1433.500000,646.000000 
	C1426.696777,646.070496 1426.149170,646.520996 1424.476318,652.993896 
	C1424.199585,654.065002 1423.700928,655.041870 1423.057617,656.037231 
	C1394.324463,700.494202 1365.692993,745.017029 1336.989990,789.493591 
	C1319.543457,816.528015 1301.986328,843.491150 1284.511719,870.507629 
	C1281.096436,875.787903 1277.860474,881.183899 1274.486084,886.491150 
	C1273.202515,888.509949 1271.658813,890.325500 1269.500000,891.500000 
"/>
<path fill="none" opacity="1.000000" stroke="#000000" stroke-linecap="round" stroke-linejoin="round" stroke-width="11.000000"
	d="
M1201.000000,1796.500000 
	C1197.280640,1793.924072 1195.200806,1790.221191 1194.014282,1785.995972 
	C1186.734009,1760.070190 1177.510986,1734.859741 1164.928711,1711.037598 
	C1148.578613,1680.081421 1127.582642,1653.079712 1097.541260,1633.935303 
	C1084.917114,1625.890137 1071.348389,1620.206787 1056.966919,1616.633057 
	C1047.168945,1614.198364 1045.679932,1615.128784 1046.007446,1624.999756 
	C1046.719849,1646.466553 1052.005981,1666.822632 1060.449341,1686.521729 
	C1072.182373,1713.895752 1088.405884,1738.504517 1107.150879,1761.376343 
	C1119.755493,1776.755615 1133.812988,1790.906860 1150.978027,1801.535522 
	C1162.317261,1808.556763 1174.430054,1813.520508 1187.514771,1815.919678 
	C1192.129883,1816.765869 1196.278320,1815.223389 1199.000000,1811.000000 
"/>
<path fill="none" opacity="1.000000" stroke="#000000" stroke-linecap="round" stroke-linejoin="round" stroke-width="8.000000"
	d="
M1307.000000,301.000000 
	C1305.985352,298.197052 1305.912109,296.076508 1308.379639,293.389496 
	C1318.478149,282.393066 1326.962524,270.152252 1331.918701,255.971588 
	C1340.100098,232.562775 1335.288574,206.421112 1314.055176,190.924362 
	C1301.035034,181.421768 1283.385132,180.747177 1270.044434,190.063583 
	C1256.366577,199.615448 1249.086182,213.228912 1245.897705,229.479935 
	C1243.798218,240.180603 1244.649170,250.845108 1245.181274,261.490936 
	C1245.427979,266.428162 1246.912109,271.244080 1244.500000,276.000000 
"/>
<path fill="none" opacity="1.000000" stroke="#000000" stroke-linecap="round" stroke-linejoin="round" stroke-width="9.000000"
	d="
M1249.000000,290.500000 
	C1249.403198,284.952911 1247.515869,278.741058 1243.716187,276.476196 
	C1239.242798,273.809784 1236.015137,270.296936 1232.574585,266.923950 
	C1218.638062,253.261185 1203.108887,241.917923 1185.486938,233.527451 
	C1175.176514,228.618256 1164.183228,225.668686 1153.055420,229.175919 
	C1138.766724,233.679443 1130.968262,244.614166 1128.032837,259.006683 
	C1123.982178,278.867432 1132.910645,294.027100 1146.569702,306.926147 
	C1160.137451,319.738983 1177.254272,325.672272 1195.003662,329.984802 
	C1198.741211,330.892914 1202.188599,332.189423 1204.500000,335.500000 
"/>
<path fill="none" opacity="1.000000" stroke="#000000" stroke-linecap="round" stroke-linejoin="round" stroke-width="10.000000"
	d="
M1332.500000,358.000000 
	C1332.999512,360.834015 1335.589600,361.783783 1337.466553,361.353973 
	C1344.970337,359.635803 1352.556152,361.371887 1359.990967,360.429108 
	C1385.736694,357.164215 1407.583008,346.799591 1420.842651,323.410828 
	C1428.316040,310.228851 1423.158813,299.696472 1412.965210,292.549683 
	C1404.941895,286.924561 1395.805298,284.752441 1386.002441,284.425476 
	C1368.084351,283.827881 1351.426514,289.585785 1334.513184,294.049866 
	C1325.171753,296.515411 1316.248657,300.544800 1306.503784,301.537720 
	C1306.140259,301.574799 1305.886353,302.270630 1305.486938,302.474365 
	C1304.956543,302.744934 1304.833374,302.833344 1305.250000,303.000000 
"/>
<path fill="none" opacity="1.000000" stroke="#000000" stroke-linecap="round" stroke-linejoin="round" stroke-width="9.000000"
	d="
M1221.500000,334.750000 
	C1217.000000,334.833344 1212.499268,334.890411 1208.000610,335.020233 
	C1206.996582,335.049164 1205.611694,334.968658 1205.059814,335.556213 
	C1199.330811,341.656281 1191.010498,341.878265 1183.961304,344.909912 
	C1168.532104,351.545563 1154.816040,360.080322 1147.555908,376.025452 
	C1141.953613,388.329193 1140.238159,400.872772 1146.979126,413.511139 
	C1152.056396,423.030457 1159.915894,428.295959 1170.493408,430.039673 
	C1184.218750,432.302246 1196.790894,428.346222 1208.969971,422.932526 
	C1227.639648,414.633728 1244.316040,403.253540 1259.019165,389.019775 
	C1260.207153,387.869690 1261.548218,386.754272 1263.021240,386.044220 
	C1268.326782,383.486450 1270.408569,379.056610 1270.750000,373.500000 
"/>
<path fill="none" opacity="1.000000" stroke="#000000" stroke-linecap="round" stroke-linejoin="round" stroke-width="10.000000"
	d="
M1336.500000,362.000000 
	C1336.200195,366.537598 1338.962158,369.940125 1341.056519,373.466400 
	C1348.153931,385.415955 1354.047363,397.882935 1356.937622,411.513214 
	C1360.632324,428.937286 1358.589722,445.307404 1345.964233,458.966888 
	C1336.790894,468.891479 1324.300659,469.730133 1313.088867,462.854980 
	C1292.254395,450.078949 1278.019287,431.611908 1270.065552,408.477448 
	C1268.368286,403.540375 1268.122925,398.222626 1268.050415,392.999298 
	C1268.012329,390.259491 1267.644287,387.739319 1266.000000,385.500000 
"/>
<path fill="none" opacity="1.000000" stroke="#000000" stroke-linecap="round" stroke-linejoin="round" stroke-width="8.000000"
	d="
M1659.500000,1577.500000 
	C1656.000000,1576.543823 1652.451172,1577.655884 1649.008667,1577.388794 
	C1635.511841,1576.341675 1621.945435,1577.319092 1608.520020,1576.248657 
	C1598.309570,1575.434448 1588.163696,1575.933838 1577.999268,1575.519287 
	C1573.153320,1575.321533 1568.417480,1574.150269 1563.494873,1574.397339 
	C1559.848633,1574.580322 1558.603638,1575.849365 1558.424316,1579.496338 
	C1557.595825,1596.338135 1556.709961,1613.182739 1555.419067,1629.993774 
	C1554.676880,1639.658813 1553.388062,1649.283569 1553.532593,1658.999512 
	C1553.569092,1661.452881 1552.073608,1663.304688 1551.451050,1665.671021 
	C1544.143921,1665.083496 1536.958374,1663.141357 1529.497559,1663.438232 
	C1520.206421,1663.807861 1511.422729,1665.860229 1504.055542,1671.571655 
	C1492.383545,1680.620483 1488.925659,1695.922852 1494.630615,1708.942749 
	C1498.148315,1716.970459 1505.310547,1720.795410 1514.001221,1721.484131 
	C1521.506104,1722.078979 1528.623291,1720.454224 1535.511230,1717.526367 
	C1537.872803,1716.522461 1540.377563,1715.887573 1542.999756,1716.000977 
	C1544.362793,1717.784302 1544.656372,1719.835327 1544.500244,1722.000000 
	C1542.973877,1743.166626 1545.018555,1764.332031 1544.558472,1785.501221 
	C1544.478882,1789.158936 1545.139038,1792.836182 1545.511963,1796.498779 
	C1545.691162,1798.257324 1546.758667,1799.508545 1548.497681,1799.439819 
	C1551.095947,1799.336914 1553.527100,1800.315430 1556.003418,1800.414551 
	C1567.850830,1800.887695 1579.673218,1801.941162 1591.483154,1802.747070 
	C1609.513428,1803.977661 1627.501343,1803.105225 1645.501343,1803.422485 
	C1652.993164,1803.554565 1660.466187,1802.381592 1668.000244,1802.397583 
	C1673.102905,1802.408325 1674.436279,1800.517822 1673.447510,1795.510376 
	C1671.970825,1788.030396 1671.671265,1780.557983 1672.491089,1772.999023 
	C1673.995117,1759.132324 1684.443970,1748.226929 1700.506104,1750.456055 
	C1715.440552,1752.528564 1725.637207,1765.701660 1727.148926,1780.484741 
	C1727.776733,1786.623535 1725.982544,1792.480957 1726.504639,1798.500488 
	C1730.721313,1800.289551 1735.352905,1800.135132 1739.459595,1799.301025 
	C1747.386108,1797.691162 1755.201660,1798.600952 1762.989868,1799.144409 
	C1770.824219,1799.690918 1778.687012,1799.045532 1786.531250,1800.305298 
	C1789.935059,1800.852051 1793.460205,1801.525391 1797.000000,1801.513672 
	C1801.963013,1801.497314 1802.896484,1800.505737 1803.531982,1795.504028 
	C1805.101074,1783.158325 1806.921387,1770.844360 1808.470825,1758.496338 
	C1809.618774,1749.348267 1810.215210,1740.124146 1811.575439,1731.011230 
	C1813.114868,1720.697876 1814.439575,1710.369751 1815.725220,1700.027954 
	C1815.980957,1697.971436 1813.521606,1695.807373 1816.000000,1694.000000 
"/>
<path fill="none" opacity="1.000000" stroke="#000000" stroke-linecap="round" stroke-linejoin="round" stroke-width="9.000000"
	d="
M1845.500000,1240.000000 
	C1844.214478,1236.952148 1842.013062,1235.050781 1839.045776,1233.416870 
	C1819.430176,1222.613647 1798.745605,1215.121826 1776.510376,1211.927612 
	C1770.848511,1211.114258 1765.259033,1209.882446 1759.500000,1209.998169 
	C1758.833618,1210.011597 1757.992432,1210.265747 1757.526123,1209.960083 
	C1750.179688,1205.143921 1744.546387,1209.959717 1739.038574,1213.559082 
	C1699.666504,1239.288330 1661.776367,1267.023560 1625.434326,1296.920166 
	C1601.239502,1316.823853 1577.578003,1337.281128 1554.957642,1358.955811 
	C1551.331787,1362.430054 1548.330566,1366.109253 1547.000000,1371.000000 
"/>
<path fill="none" opacity="1.000000" stroke="#000000" stroke-linecap="round" stroke-linejoin="round" stroke-width="8.000000"
	d="
M1361.500000,690.500000 
	C1358.166626,689.032959 1354.797485,689.128540 1351.505981,690.514221 
	C1334.159790,697.817139 1316.894897,705.316650 1299.485962,712.465820 
	C1271.627686,723.906250 1244.024048,735.950134 1216.073608,747.183228 
	C1202.795288,752.519714 1189.868896,758.827393 1176.472534,763.927979 
	C1167.271851,767.431030 1161.540161,765.480713 1157.016968,758.489014 
	C1146.796387,742.690613 1136.568970,726.894348 1126.598511,710.938416 
	C1124.981812,708.350952 1123.523193,706.912537 1120.500000,707.500000 
"/>
<path fill="none" opacity="1.000000" stroke="#000000" stroke-linecap="round" stroke-linejoin="round" stroke-width="10.000000"
	d="
M1654.500000,195.500000 
	C1653.500000,195.500000 1652.156738,195.075531 1651.552124,195.564468 
	C1643.858032,201.785812 1634.687622,205.762405 1626.970459,211.963242 
	C1618.567627,218.714996 1609.700928,224.942780 1602.057983,232.558228 
	C1593.377563,241.207504 1584.222900,249.402649 1576.456543,258.964722 
	C1572.282471,264.103882 1570.083740,268.702911 1572.234497,276.077423 
	C1578.766235,298.472595 1584.929199,320.954865 1594.017700,342.492523 
	C1602.234863,361.965485 1612.956421,380.032654 1625.530640,396.977295 
	C1638.423218,414.350677 1651.324463,431.721283 1664.943237,448.545959 
	C1667.148682,451.270477 1669.498535,453.169037 1673.000000,453.500000 
"/>
<path fill="none" opacity="1.000000" stroke="#000000" stroke-linecap="round" stroke-linejoin="round" stroke-width="8.000000"
	d="
M1802.500000,1138.500000 
	C1797.764648,1135.492798 1792.694946,1136.937744 1788.025391,1138.101807 
	C1754.005249,1146.584229 1720.736572,1157.229248 1689.487183,1173.475342 
	C1686.557983,1174.998047 1683.371216,1175.905884 1680.002319,1175.481445 
	C1676.900146,1175.090820 1674.669556,1176.185791 1672.451050,1178.452148 
	C1645.957520,1205.517700 1623.125366,1235.524902 1601.514282,1266.510010 
	C1582.082397,1294.370483 1564.532837,1323.432617 1547.048706,1352.529297 
	C1545.201660,1355.603394 1543.304443,1358.406372 1540.000000,1360.000000 
"/>
<path fill="none" opacity="1.000000" stroke="#000000" stroke-linecap="round" stroke-linejoin="round" stroke-width="9.000000"
	d="
M313.500000,1644.000000 
	C313.603668,1642.880615 313.164612,1641.994141 312.000732,1642.026489 
	C300.811676,1642.337769 293.593201,1635.021362 286.019623,1628.477295 
	C280.388184,1623.610962 274.898590,1618.720947 268.044617,1615.407715 
	C257.414581,1610.269165 247.351486,1612.646973 237.534332,1617.076050 
	C224.047455,1623.161133 212.893875,1632.686646 201.994858,1642.494263 
	C189.348083,1653.874634 177.533081,1666.206665 163.506088,1676.008667 
	C152.054306,1684.011475 139.998505,1690.305420 125.500000,1690.000000 
"/>
<path fill="none" opacity="1.000000" stroke="#000000" stroke-linecap="round" stroke-linejoin="round" stroke-width="10.000000"
	d="
M488.000000,1677.500000 
	C487.985199,1679.778687 488.171387,1682.008667 486.549408,1684.039429 
	C485.070557,1685.890503 480.232727,1686.190674 479.592468,1683.973267 
	C476.853424,1674.487183 469.951721,1667.589600 464.289795,1660.160156 
	C454.862579,1647.789917 444.585419,1635.971924 432.003906,1626.494873 
	C418.198517,1616.096069 403.126343,1608.979736 385.499756,1608.509155 
	C371.405060,1608.132690 359.386292,1613.561646 348.507263,1622.009399 
	C342.134216,1626.958130 336.036194,1632.290527 329.431061,1636.901245 
	C324.767334,1640.156616 319.298248,1642.019165 313.500000,1642.500000 
"/>
<path fill="none" opacity="1.000000" stroke="#000000" stroke-linecap="round" stroke-linejoin="round" stroke-width="8.000000"
	d="
M1340.500000,1631.500000 
	C1339.615479,1636.891113 1335.996460,1641.013794 1333.347290,1645.407959 
	C1313.164917,1678.882568 1290.930176,1710.986572 1266.383789,1741.406250 
	C1257.941895,1751.867798 1249.312500,1762.230103 1240.088257,1772.082642 
	C1232.190918,1780.517334 1224.484497,1789.136475 1216.578369,1797.573486 
	C1212.752197,1801.656250 1208.546997,1804.007935 1203.000000,1804.000000 
"/>
<path fill="none" opacity="1.000000" stroke="#000000" stroke-linecap="round" stroke-linejoin="round" stroke-width="8.000000"
	d="
M1651.000000,707.000000 
	C1647.087280,702.955444 1647.694336,697.212585 1645.588623,692.460693 
	C1644.173950,689.268372 1642.815308,686.079834 1640.459717,683.537292 
	C1637.412720,680.248474 1633.565430,680.139526 1630.008789,683.010803 
	C1623.776367,688.042419 1620.735596,695.080383 1619.108398,702.523682 
	C1616.255249,715.576294 1616.531128,728.701416 1618.255615,742.031616 
	C1619.529907,751.880676 1621.099121,761.700500 1622.714844,771.464478 
	C1624.614380,782.944214 1626.061523,794.418823 1626.387695,806.003174 
	C1626.542114,811.484741 1625.500000,817.000000 1625.000000,822.500000 
"/>
<path fill="none" opacity="1.000000" stroke="#000000" stroke-linecap="round" stroke-linejoin="round" stroke-width="8.000000"
	d="
M1674.000000,821.000000 
	C1681.387451,813.192932 1686.051514,803.588013 1691.501831,794.501099 
	C1703.328003,774.783752 1712.101929,753.683289 1719.422119,731.973694 
	C1722.233765,723.635010 1724.553711,715.080017 1726.334595,706.465820 
	C1727.208374,702.239563 1727.211426,697.384399 1724.448730,693.536865 
	C1719.252808,686.300720 1712.699829,686.009521 1704.562256,689.160706 
	C1697.453979,691.913452 1693.519653,698.564514 1688.840698,704.371704 
	C1683.052612,711.555603 1683.424438,719.834961 1682.528564,728.003113 
	C1682.036865,732.485779 1681.833374,737.000000 1681.500000,741.500000 
"/>
<path fill="none" opacity="1.000000" stroke="#000000" stroke-linecap="round" stroke-linejoin="round" stroke-width="8.000000"
	d="
M1390.250000,673.500000 
	C1389.569092,675.904968 1387.092651,676.352905 1385.426392,677.380737 
	C1379.785889,680.860107 1373.873779,683.910950 1367.984863,686.970947 
	C1364.425537,688.820557 1361.337402,690.823730 1359.906128,694.967529 
	C1358.903687,697.869324 1355.926025,699.266113 1353.507202,701.010010 
	C1303.170166,737.300720 1252.174927,772.640503 1200.506104,807.009155 
	C1194.615601,810.927307 1194.621216,811.094482 1197.500977,817.499573 
	C1198.551147,819.835510 1198.351807,821.926514 1197.719727,824.552856 
	C1196.602173,829.197510 1196.697754,834.161865 1196.524658,839.000916 
	C1195.958496,854.831848 1195.448486,870.665344 1195.029297,886.500793 
	C1194.891235,891.710144 1193.922852,896.605164 1191.000000,901.000000 
"/>
<path fill="none" opacity="1.000000" stroke="#000000" stroke-linecap="round" stroke-linejoin="round" stroke-width="6.000000"
	d="
M1386.000000,869.250000 
	C1387.372559,869.989380 1389.153564,870.348938 1389.000488,872.500061 
	C1388.396729,880.982666 1392.249268,888.724548 1393.050659,896.995117 
	C1394.131348,908.147827 1396.598145,919.190186 1395.489014,930.498901 
	C1395.406616,931.340576 1395.202637,932.175842 1394.993408,932.998352 
	C1394.303833,935.708435 1393.190186,938.244141 1389.996216,938.437317 
	C1387.315918,938.599426 1385.832031,936.983582 1384.396606,934.561218 
	C1378.606934,924.790405 1372.453125,915.259460 1364.593262,906.912231 
	C1362.635742,904.833252 1360.620850,902.856445 1358.461548,901.045837 
	C1356.817139,899.666870 1354.434937,898.680481 1352.572021,899.639832 
	C1350.561157,900.675415 1349.458862,902.907776 1349.474731,905.500183 
	C1349.532104,914.881226 1349.810181,924.185730 1351.278198,933.534851 
	C1352.256592,939.765198 1352.538208,946.634399 1347.500000,952.000000 
"/>
<path fill="none" opacity="1.000000" stroke="#000000" stroke-linecap="round" stroke-linejoin="round" stroke-width="9.000000"
	d="
M764.000000,1280.500000 
	C761.372498,1280.555176 760.733948,1281.609497 760.288818,1284.467163 
	C759.315430,1290.715820 755.302917,1295.913696 752.430908,1301.464233 
	C745.646362,1314.575684 738.503235,1327.501709 731.499329,1340.499634 
	C717.668213,1366.167480 703.823486,1391.828003 690.005859,1417.503174 
	C685.801208,1425.316040 681.641602,1433.153442 677.529907,1441.015625 
	C676.979248,1442.068604 676.337341,1443.453125 676.585144,1444.479492 
	C677.707214,1449.127441 674.629272,1451.577393 672.080627,1454.568726 
	C670.213806,1456.759766 668.324280,1457.924805 665.500000,1457.500000 
"/>
<path fill="none" opacity="1.000000" stroke="#000000" stroke-linecap="round" stroke-linejoin="round" stroke-width="8.000000"
	d="
M1573.500000,265.500000 
	C1578.390137,267.928436 1583.877319,267.871521 1589.015991,268.315094 
	C1612.687622,270.358337 1636.142212,273.775604 1659.501831,277.989685 
	C1662.012695,278.442627 1664.912598,276.936798 1666.999634,279.469330 
	C1661.038452,296.038574 1663.978638,313.103119 1663.982056,330.000000 
	C1663.984131,340.347107 1664.184570,350.670197 1664.918945,361.005768 
	C1665.772705,373.022217 1666.747070,385.016296 1667.869019,397.012238 
	C1669.009888,409.209534 1670.507812,421.350586 1671.992676,433.500885 
	C1672.427612,437.059967 1672.976807,440.282410 1675.819092,443.177551 
	C1677.446289,444.834930 1679.334839,448.928802 1676.389893,450.829498 
	C1671.571411,453.939545 1672.666138,458.260681 1672.500000,462.500000 
"/>
<path fill="none" opacity="1.000000" stroke="#000000" stroke-linecap="round" stroke-linejoin="round" stroke-width="10.000000"
	d="
M1665.500000,197.500000 
	C1684.218140,202.307831 1702.882812,207.339981 1721.577271,212.203140 
	C1734.297363,215.512100 1747.134521,218.633972 1759.991699,221.536880 
	C1767.204590,223.165390 1774.298218,225.320801 1781.508301,226.963791 
	C1792.288574,229.420395 1797.497925,237.941956 1801.859619,246.570969 
	C1813.127686,268.863556 1824.828003,290.924561 1836.607300,312.942596 
	C1838.888794,317.207001 1838.299072,321.707703 1839.377930,326.030457 
	C1839.903076,328.135010 1838.285400,330.117981 1836.495361,331.493988 
	C1813.502441,349.169739 1790.466187,366.789520 1767.509644,384.512390 
	C1745.131958,401.788361 1722.828857,419.160950 1700.504028,436.505188 
	C1696.475464,439.635132 1692.531372,442.874054 1688.489746,445.986664 
	C1685.418579,448.351868 1681.956421,449.702515 1678.000000,449.500000 
"/>
<path fill="none" opacity="1.000000" stroke="#000000" stroke-linecap="round" stroke-linejoin="round" stroke-width="7.000000"
	d="
M1701.000000,1562.500000 
	C1703.358643,1553.302856 1704.927124,1544.038330 1703.503296,1534.499512 
	C1701.573120,1521.568726 1695.237793,1511.437622 1682.930786,1506.678833 
	C1671.489868,1502.255005 1661.661377,1506.046997 1653.535889,1517.026611 
	C1644.378540,1529.400513 1645.177734,1542.991455 1648.909668,1557.024048 
	C1650.625122,1563.473633 1654.821777,1569.091431 1655.000000,1576.000000 
"/>
<path fill="none" opacity="1.000000" stroke="#000000" stroke-linecap="round" stroke-linejoin="round" stroke-width="8.000000"
	d="
M1749.000000,298.500000 
	C1748.831299,301.744263 1746.901611,304.274963 1745.484375,306.991821 
	C1724.312256,347.576477 1703.459473,388.317932 1684.472656,429.987579 
	C1682.397705,434.541565 1680.503662,439.245728 1677.000000,443.000000 
"/>
<path fill="none" opacity="1.000000" stroke="#000000" stroke-linecap="round" stroke-linejoin="round" stroke-width="7.000000"
	d="
M452.000000,745.750061 
	C452.833344,745.666687 453.880402,745.214722 454.467957,745.555359 
	C463.330261,750.693909 473.836090,750.734863 483.035583,754.921814 
	C490.390472,758.269348 495.880829,762.758118 498.086273,770.976868 
	C500.345306,779.395386 497.464996,786.403198 492.948364,792.964478 
	C486.314484,802.601440 476.389648,808.542786 466.978973,814.969177 
	C457.028656,821.764099 446.890167,828.313965 438.039764,836.542786 
	C433.011261,841.218079 427.770935,845.873718 425.943329,852.985413 
	C425.892242,853.184204 425.000000,853.166687 424.500000,853.250061 
"/>
<path fill="none" opacity="1.000000" stroke="#000000" stroke-linecap="round" stroke-linejoin="round" stroke-width="10.000000"
	d="
M909.000000,1745.500000 
	C914.405334,1752.126831 914.897461,1760.266968 914.287292,1767.983154 
	C913.212708,1781.571289 907.637512,1793.417114 897.008118,1802.509521 
	C885.395203,1812.443115 872.077576,1815.295898 857.521362,1811.419800 
	C843.621521,1807.718384 832.687927,1799.701782 825.510071,1786.994263 
	C824.146423,1784.580078 822.966858,1782.051147 820.500000,1780.500000 
"/>
<path fill="none" opacity="1.000000" stroke="#000000" stroke-linecap="round" stroke-linejoin="round" stroke-width="9.000000"
	d="
M639.499939,1761.500000 
	C639.833313,1774.166626 640.314941,1786.832031 640.427368,1799.500610 
	C640.472778,1804.609863 644.389709,1810.912964 653.500061,1813.999878 
	C669.411804,1819.391113 684.980713,1817.910400 699.959839,1810.914062 
	C710.114197,1806.171387 719.104004,1799.541748 727.018921,1791.518677 
	C729.598206,1788.904297 731.868591,1785.864258 735.500000,1784.500000 
"/>
<path fill="none" opacity="1.000000" stroke="#000000" stroke-linecap="round" stroke-linejoin="round" stroke-width="9.000000"
	d="
M633.500000,1646.500000 
	C633.069702,1656.833374 634.123901,1667.131714 633.699646,1677.508179 
	C633.059265,1693.170898 639.087891,1697.786499 653.528870,1700.864502 
	C675.654602,1705.580078 694.674622,1697.955078 712.059570,1684.577393 
	C718.094971,1679.933105 722.574707,1673.640137 729.000000,1669.500000 
"/>
<path fill="none" opacity="1.000000" stroke="#000000" stroke-linecap="round" stroke-linejoin="round" stroke-width="8.000000"
	d="
M1163.000000,765.500000 
	C1160.704102,770.935486 1162.312622,776.570251 1162.672974,781.988464 
	C1163.440552,793.526123 1164.821289,805.053528 1166.593262,816.485535 
	C1168.514893,828.882690 1170.759277,841.261780 1173.611084,853.474060 
	C1176.644409,866.462585 1180.183472,879.350098 1184.470337,892.010071 
	C1185.522583,895.117737 1186.757690,897.900208 1189.451416,900.060547 
	C1192.035889,902.133240 1193.165161,905.336914 1192.378418,908.469482 
	C1191.609619,911.530884 1193.252930,914.141968 1193.000000,917.000000 
"/>
<path fill="none" opacity="1.000000" stroke="#000000" stroke-linecap="round" stroke-linejoin="round" stroke-width="10.000000"
	d="
M902.500000,1629.000000 
	C915.555664,1651.522339 904.343628,1680.519043 884.982666,1691.970703 
	C871.748291,1699.798706 857.947388,1699.801636 844.010193,1693.975708 
	C833.475220,1689.572021 825.148865,1682.504639 819.537231,1672.479126 
	C818.112854,1669.934448 816.687805,1667.461060 814.500000,1665.500000 
"/>
<path fill="none" opacity="1.000000" stroke="#000000" stroke-linecap="round" stroke-linejoin="round" stroke-width="11.000000"
	d="
M752.500000,1155.499878 
	C768.666687,1154.666626 784.856934,1154.139160 800.991821,1152.893921 
	C811.997864,1152.044312 823.020996,1151.222046 834.020996,1150.233887 
	C842.828308,1149.442627 851.649902,1148.483276 860.493652,1147.902954 
	C867.166321,1147.465088 873.760559,1145.940186 880.500000,1145.999634 
	C883.539734,1146.026367 886.788940,1147.933716 889.500000,1145.000000 
"/>
<path fill="none" opacity="1.000000" stroke="#000000" stroke-linecap="round" stroke-linejoin="round" stroke-width="10.000000"
	d="
M767.500000,173.500000 
	C767.216125,175.824966 767.369690,178.186554 767.220459,180.514130 
	C767.087952,182.580765 767.498596,184.945099 769.359131,187.120483 
	C774.047180,192.601883 775.062134,199.928360 777.425903,206.526550 
	C787.434143,234.463867 797.172913,262.497833 806.994629,290.501892 
	C808.955383,296.092346 810.189514,302.016022 814.510803,306.489594 
	C814.591248,306.572876 814.833313,306.500000 815.000000,306.500000 
"/>
<path fill="none" opacity="1.000000" stroke="#000000" stroke-linecap="round" stroke-linejoin="round" stroke-width="9.000000"
	d="
M897.500000,186.000000 
	C893.229187,186.870865 891.242493,190.516418 889.068970,193.549438 
	C867.158264,224.123917 846.452454,255.490326 827.466248,287.980286 
	C823.829712,294.203247 821.699280,301.415955 815.546448,306.061493 
	C813.693054,307.460785 814.654724,309.970215 814.500000,312.000000 
"/>
<path fill="none" opacity="1.000000" stroke="#000000" stroke-linecap="round" stroke-linejoin="round" stroke-width="9.000000"
	d="
M745.000000,1149.500000 
	C745.850647,1153.891113 742.614258,1156.381470 740.546448,1159.530518 
	C721.457825,1188.600830 700.146912,1216.060791 679.462219,1243.971924 
	C674.382324,1250.826538 669.123779,1257.601562 663.344971,1263.856812 
	C661.276245,1266.096069 662.393311,1269.883789 659.000000,1271.000000 
"/>
<path fill="none" opacity="1.000000" stroke="#000000" stroke-linecap="round" stroke-linejoin="round" stroke-width="8.000000"
	d="
M1253.000000,355.500000 
	C1269.946045,364.939392 1290.613525,355.817169 1297.007202,340.002899 
	C1300.776611,330.679901 1297.987671,322.248657 1289.884399,314.115143 
	C1278.473267,302.661560 1264.784058,301.832977 1250.530884,311.545288 
	C1248.784424,312.735321 1247.204712,313.634521 1245.037109,314.154480 
	C1240.580200,315.223541 1238.227173,319.076721 1236.543335,323.018524 
	C1231.129395,335.693146 1236.848267,348.099152 1245.927979,354.600616 
	C1248.265015,356.274078 1250.295532,355.412598 1252.500000,355.500000 
"/>
<path fill="none" opacity="1.000000" stroke="#000000" stroke-linecap="round" stroke-linejoin="round" stroke-width="10.000000"
	d="
M898.500000,181.000000 
	C897.746765,184.208878 898.157166,186.888489 899.779541,190.110977 
	C902.600952,195.715393 902.555237,202.308487 903.428711,208.510040 
	C905.464050,222.961868 907.643188,237.388367 908.646240,251.989960 
	C909.275879,261.156158 909.686218,270.394257 910.825256,279.459137 
	C911.618347,285.770691 909.561890,292.630585 913.500000,298.500000 
"/>
<path fill="none" opacity="1.000000" stroke="#000000" stroke-linecap="round" stroke-linejoin="round" stroke-width="8.000000"
	d="
M278.500000,894.500000 
	C272.186707,896.593872 270.299774,902.683105 267.642059,907.577148 
	C255.831284,929.326111 243.527039,950.859497 234.529587,974.011475 
	C231.838150,980.937134 229.215775,987.917847 227.155380,995.044922 
	C226.442108,997.512268 225.339951,999.652161 223.913544,1001.430664 
	C219.041840,1007.504150 220.294495,1012.089966 228.000000,1015.000000 
"/>
<path fill="none" opacity="1.000000" stroke="#000000" stroke-linecap="round" stroke-linejoin="round" stroke-width="9.000000"
	d="
M767.000000,185.250000 
	C764.426392,186.828186 763.076050,189.133194 761.912903,191.964233 
	C753.568420,212.275452 747.432129,233.282272 742.066467,254.516800 
	C739.353271,265.254120 737.284729,276.156586 735.034119,287.007080 
	C734.467590,289.738373 733.224915,291.882019 731.000000,293.500000 
"/>
<path fill="none" opacity="1.000000" stroke="#000000" stroke-linecap="round" stroke-linejoin="round" stroke-width="10.000000"
	d="
M1820.500000,1571.750000 
	C1811.000000,1571.666748 1801.500122,1571.532471 1792.000000,1571.511108 
	C1774.666748,1571.472046 1757.309570,1570.948364 1740.008423,1571.694092 
	C1728.484009,1572.190796 1716.980469,1570.488281 1705.500000,1572.000000 
"/>
<path fill="none" opacity="1.000000" stroke="#000000" stroke-linecap="round" stroke-linejoin="round" stroke-width="10.000000"
	d="
M1885.500000,213.500000 
	C1877.774780,212.848480 1874.715942,208.566101 1875.500000,199.500000 
	C1875.964966,194.123215 1875.241943,193.184174 1870.002075,191.990936 
	C1863.414917,190.490906 1856.582153,191.215683 1849.988770,189.544373 
	C1838.459595,186.621918 1833.142334,178.348602 1835.500000,166.499985 
	C1836.674438,160.597473 1835.290649,158.968201 1829.504272,158.452606 
	C1821.754639,157.762100 1814.029785,157.237473 1806.947388,153.089859 
	C1798.698853,148.259369 1793.703125,141.819931 1793.472168,132.000656 
	C1793.269043,123.350243 1790.626099,121.383781 1781.498901,121.027367 
	C1769.973633,120.577309 1758.623169,121.869186 1747.493774,124.977654 
	C1746.875366,125.150368 1746.166626,125.000000 1745.500000,125.000000 
"/>
<path fill="none" opacity="1.000000" stroke="#000000" stroke-linecap="round" stroke-linejoin="round" stroke-width="8.000000"
	d="
M784.499939,615.500000 
	C784.333313,617.000000 784.658813,618.818420 783.925476,619.951843 
	C774.092285,635.150269 764.455200,650.545166 749.495667,661.494019 
	C740.833801,667.833618 731.228760,672.431885 720.493042,672.795044 
	C712.051208,673.080627 703.737000,670.585999 696.042725,666.910583 
	C693.070007,665.490601 690.203186,664.752380 687.000000,665.000000 
"/>
<path fill="none" opacity="1.000000" stroke="#000000" stroke-linecap="round" stroke-linejoin="round" stroke-width="10.000000"
	d="
M825.000000,995.500000 
	C823.333374,994.000000 821.500000,992.647095 820.026184,990.976929 
	C807.379028,976.644897 791.065735,970.940369 772.504089,971.613342 
	C756.647217,972.188293 742.396667,978.334412 729.029602,986.548218 
	C727.086670,987.742004 725.280701,988.942383 723.019653,989.570801 
	C720.446411,990.286072 719.953979,992.596130 720.000000,995.000000 
"/>
<path fill="none" opacity="1.000000" stroke="#000000" stroke-linecap="round" stroke-linejoin="round" stroke-width="6.000000"
	d="
M1204.000000,1265.500000 
	C1200.420044,1269.400024 1196.899292,1273.285034 1196.474854,1278.998169 
	C1195.933472,1286.288818 1199.596313,1291.324829 1205.566040,1294.370483 
	C1210.899902,1297.091919 1216.617554,1296.711792 1222.013672,1293.523071 
	C1232.052612,1287.590942 1234.104248,1277.601196 1230.879517,1268.040649 
	C1227.497070,1258.012085 1218.322754,1255.113525 1209.033081,1260.556396 
	C1207.138184,1261.666748 1205.666626,1263.500000 1204.000000,1265.000000 
"/>
<path fill="none" opacity="1.000000" stroke="#000000" stroke-linecap="round" stroke-linejoin="round" stroke-width="9.000000"
	d="
M969.500000,657.000000 
	C970.403992,662.604797 968.071655,667.783081 966.830383,672.959351 
	C962.293091,691.880920 964.052612,709.657776 975.056702,725.961731 
	C981.035156,734.819519 989.326172,740.992126 999.500305,744.499084 
	C1001.858765,745.311951 1004.337708,745.896606 1006.000000,748.000000 
"/>
<path fill="none" opacity="1.000000" stroke="#000000" stroke-linecap="round" stroke-linejoin="round" stroke-width="9.000000"
	d="
M642.500000,734.000000 
	C642.397034,736.959290 643.631104,739.517151 645.011169,741.993774 
	C652.895691,756.143494 656.195557,771.501343 656.392395,787.501343 
	C656.487305,795.221741 655.450195,802.919434 653.584534,810.520752 
	C651.323486,819.732910 646.610413,826.770508 638.000000,831.000000 
"/>
<path fill="none" opacity="1.000000" stroke="#000000" stroke-linecap="round" stroke-linejoin="round" stroke-width="9.000000"
	d="
M220.500000,1253.750000 
	C228.500000,1252.666748 236.494492,1251.538940 244.505585,1250.545044 
	C245.800003,1250.384399 247.505966,1249.882568 248.456436,1251.035889 
	C252.126221,1255.489014 257.715179,1255.935547 262.515198,1257.963989 
	C284.808136,1267.384766 300.141388,1283.631104 310.064728,1305.470581 
	C313.234802,1312.447266 315.677185,1319.593506 317.531006,1326.992188 
	C317.899445,1328.462646 318.264832,1330.441772 319.322449,1331.140259 
	C323.062897,1333.610474 321.990051,1337.198364 321.965240,1340.499756 
	C321.912628,1347.500610 321.666687,1354.500000 321.500000,1361.500000 
"/>
<path fill="none" opacity="1.000000" stroke="#000000" stroke-linecap="round" stroke-linejoin="round" stroke-width="10.000000"
	d="
M661.000000,1270.500000 
	C665.141907,1273.670044 670.268616,1273.661255 675.015747,1274.398560 
	C696.042297,1277.664062 717.138611,1280.028198 738.497437,1280.247437 
	C745.589539,1280.320312 753.068115,1278.809570 760.000000,1282.000000 
"/>
<path fill="none" opacity="1.000000" stroke="#000000" stroke-linecap="round" stroke-linejoin="round" stroke-width="8.000000"
	d="
M881.500000,608.000000 
	C885.738586,612.396057 886.870483,618.476013 889.940552,623.536072 
	C902.093750,643.566650 919.622681,654.578491 942.979919,657.180298 
	C951.813721,658.164246 960.278809,655.573486 969.017090,656.292603 
	C971.539734,656.500305 973.128113,653.546936 972.500000,650.500000 
"/>
<path fill="none" opacity="1.000000" stroke="#000000" stroke-linecap="round" stroke-linejoin="round" stroke-width="8.000000"
	d="
M882.250000,604.500000 
	C881.732605,606.408752 880.584167,607.705688 879.069885,609.077148 
	C872.081909,615.406250 866.118347,622.840820 858.485535,628.480408 
	C850.799500,634.159302 842.519897,639.002441 832.984253,640.391724 
	C816.684448,642.766357 801.789917,640.069885 790.422180,626.565552 
	C788.567017,624.361755 787.053589,621.539185 784.000000,620.500000 
"/>
<path fill="none" opacity="1.000000" stroke="#000000" stroke-linecap="round" stroke-linejoin="round" stroke-width="10.000000"
	d="
M920.500000,969.500000 
	C918.666687,968.666687 916.687988,968.055603 915.022095,966.966187 
	C894.709839,953.683228 874.458984,955.599304 854.551453,967.585510 
	C845.765137,972.875732 838.555908,980.157288 832.488647,988.491760 
	C831.233765,990.215515 830.144958,992.345520 828.431824,993.388000 
	C825.336792,995.271362 824.861450,997.890930 825.000000,1001.000000 
"/>
<path fill="none" opacity="1.000000" stroke="#000000" stroke-linecap="round" stroke-linejoin="round" stroke-width="9.000000"
	d="
M1592.500000,844.000000 
	C1598.333374,844.666687 1604.170410,845.301758 1609.999023,846.007690 
	C1618.002808,846.976990 1626.008545,847.936646 1633.997803,849.016479 
	C1643.340698,850.279175 1652.693970,851.501282 1661.993042,853.041748 
	C1673.670044,854.976196 1685.478394,856.153687 1697.000000,859.000000 
"/>
<path fill="none" opacity="1.000000" stroke="#000000" stroke-linecap="round" stroke-linejoin="round" stroke-width="11.000000"
	d="
M828.000000,1241.000000 
	C832.428284,1238.697632 836.719666,1241.398193 840.981445,1241.734985 
	C860.208801,1243.254517 879.319031,1245.902466 898.002747,1250.989990 
	C908.552307,1253.862549 919.344849,1255.970703 929.018250,1261.467896 
	C931.026489,1262.609131 933.319092,1262.036987 935.500000,1261.750000 
"/>
<path fill="none" opacity="1.000000" stroke="#000000" stroke-linecap="round" stroke-linejoin="round" stroke-width="9.000000"
	d="
M741.500000,1722.000000 
	C746.159302,1725.105835 747.802429,1730.576050 751.425781,1734.567383 
	C772.695129,1757.996826 806.882202,1756.581421 826.008484,1733.506958 
	C826.607605,1732.784302 827.262329,1732.070801 828.011719,1731.515869 
	C832.124023,1728.471313 834.112427,1724.667114 832.500000,1719.500000 
"/>
<path fill="none" opacity="1.000000" stroke="#000000" stroke-linecap="round" stroke-linejoin="round" stroke-width="10.000000"
	d="
M421.500000,1255.500000 
	C416.333344,1256.052856 411.173126,1256.240234 405.997284,1255.519531 
	C403.432098,1255.162476 401.424042,1255.785645 399.394165,1257.898315 
	C396.242401,1261.178467 391.609833,1262.241943 387.489410,1263.974854 
	C373.133911,1270.011719 361.002930,1279.008545 350.438171,1290.442871 
	C340.128845,1301.600708 332.176392,1313.995850 327.388367,1328.463013 
	C326.693420,1330.562866 324.500000,1332.166626 323.000000,1334.000000 
"/>
<path fill="none" opacity="1.000000" stroke="#000000" stroke-linecap="round" stroke-linejoin="round" stroke-width="10.000000"
	d="
M994.500000,920.000000 
	C990.297607,921.119385 986.362244,919.274475 982.535095,918.354065 
	C958.432556,912.557190 933.286133,926.135498 925.400085,951.468872 
	C923.647034,957.100342 924.021973,963.172180 921.131775,968.570557 
	C920.154175,970.396362 922.221191,972.558533 923.056274,974.475464 
	C923.949341,976.525452 926.007202,975.134155 927.500000,975.500000 
"/>
<path fill="none" opacity="1.000000" stroke="#000000" stroke-linecap="round" stroke-linejoin="round" stroke-width="8.000000"
	d="
M735.500000,1599.500000 
	C736.348633,1604.427002 733.312073,1607.480469 730.610657,1611.083008 
	C722.814026,1621.480347 713.294006,1629.698242 702.005493,1636.009766 
	C689.097717,1643.226562 675.250549,1647.128784 660.498474,1647.423218 
	C654.174316,1647.549316 647.833313,1646.833374 641.500000,1646.500000 
"/>
<path fill="none" opacity="1.000000" stroke="#000000" stroke-linecap="round" stroke-linejoin="round" stroke-width="9.000000"
	d="
M735.500000,1607.000000 
	C738.500000,1610.833374 741.494873,1614.670654 744.500854,1618.499268 
	C760.272339,1638.587280 790.422546,1642.537598 810.578735,1627.102783 
	C814.966309,1623.743042 818.632568,1619.795410 822.456421,1615.956543 
	C826.909119,1611.486206 827.491699,1611.181519 831.460815,1616.032104 
	C841.221863,1627.960815 853.852356,1634.153076 868.991272,1636.068970 
	C878.554199,1637.279297 887.641479,1635.829712 896.462891,1632.404419 
	C898.462036,1631.627930 900.256348,1630.435669 902.500000,1630.500000 
"/>
<path fill="none" opacity="1.000000" stroke="#000000" stroke-linecap="round" stroke-linejoin="round" stroke-width="6.000000"
	d="
M629.500000,110.000000 
	C619.597046,109.498573 610.984802,113.517601 603.073303,118.613762 
	C590.778320,126.533516 582.384460,137.810120 578.582703,152.022110 
	C576.072693,161.405212 575.469238,170.985672 578.454468,180.514267 
	C578.944885,182.079498 578.833313,183.833328 579.000000,185.500000 
"/>
<path fill="none" opacity="1.000000" stroke="#000000" stroke-linecap="round" stroke-linejoin="round" stroke-width="10.000000"
	d="
M1012.500000,745.750000 
	C1005.190186,746.373535 1002.999390,753.018005 999.669617,757.622681 
	C988.313171,773.327209 986.548462,795.306946 997.414734,812.553711 
	C1004.264404,823.425476 1013.995178,830.166748 1025.463989,835.083984 
	C1027.144653,835.804565 1028.154175,834.633057 1029.500000,834.750000 
"/>
<path fill="none" opacity="1.000000" stroke="#000000" stroke-linecap="round" stroke-linejoin="round" stroke-width="9.000000"
	d="
M1817.000000,1572.500000 
	C1819.628540,1578.666626 1817.155029,1584.870850 1816.847046,1590.992310 
	C1816.175049,1604.350586 1814.459717,1617.653564 1813.616333,1631.007324 
	C1813.334595,1635.471313 1811.626587,1636.870972 1807.498291,1636.519409 
	C1793.792969,1635.352295 1783.188599,1640.733154 1775.509399,1652.006348 
	C1766.998291,1664.500488 1771.067749,1679.978882 1782.945190,1689.071533 
	C1790.962158,1695.208740 1799.666870,1697.603027 1809.484985,1695.912720 
	C1811.183594,1695.620117 1812.825806,1695.590820 1814.500000,1695.500000 
"/>
<path fill="none" opacity="1.000000" stroke="#000000" stroke-linecap="round" stroke-linejoin="round" stroke-width="8.000000"
	d="
M741.500000,1714.500000 
	C743.573425,1722.852661 736.338684,1726.547852 732.335510,1731.363281 
	C719.207947,1747.154907 701.747620,1756.293579 681.975342,1760.894043 
	C673.328308,1762.905884 664.344116,1762.013550 655.500305,1761.953857 
	C653.831421,1761.942627 652.166626,1761.333374 650.500000,1761.000122 
"/>
<path fill="none" opacity="1.000000" stroke="#000000" stroke-linecap="round" stroke-linejoin="round" stroke-width="9.000000"
	d="
M1011.500000,208.500000 
	C1008.640137,208.053543 1006.628845,208.699631 1005.936951,211.986725 
	C1005.483582,214.140656 1004.095703,215.371170 1001.515991,215.648773 
	C999.745789,215.839249 997.977539,216.927933 996.438660,218.437500 
	C980.872559,233.706680 964.780884,248.460709 949.640747,264.135925 
	C940.148804,273.963287 930.101196,283.313507 921.467896,293.973999 
	C920.369202,295.330688 919.007629,296.958008 917.468567,297.387299 
	C912.036499,298.902588 911.510742,302.973114 911.500000,307.500000 
"/>
<path fill="none" opacity="1.000000" stroke="#000000" stroke-linecap="round" stroke-linejoin="round" stroke-width="10.000000"
	d="
M885.500000,1147.500000 
	C885.978882,1150.992920 884.311035,1153.743774 882.513123,1156.508545 
	C866.157532,1181.660767 849.848816,1206.843384 833.474976,1231.983643 
	C831.948547,1234.327271 830.900513,1236.662354 831.500000,1239.500000 
"/>
<path fill="none" opacity="1.000000" stroke="#000000" stroke-linecap="round" stroke-linejoin="round" stroke-width="8.000000"
	d="
M683.500000,658.500000 
	C683.500000,659.166687 683.231873,660.012390 683.539795,660.473450 
	C689.136658,668.852844 689.371948,678.801025 689.667908,688.010681 
	C690.317749,708.229736 679.668091,728.705322 654.993469,732.456848 
	C648.632996,733.423950 642.041016,734.875549 636.500000,729.750000 
"/>
<path fill="none" opacity="1.000000" stroke="#000000" stroke-linecap="round" stroke-linejoin="round" stroke-width="10.000000"
	d="
M626.500000,826.750000 
	C634.951538,828.129211 640.080383,834.348755 645.467163,840.031128 
	C656.277405,851.434753 662.728943,865.235229 665.332886,880.528442 
	C667.169678,891.315674 666.400146,902.362122 663.304749,912.942871 
	C662.620911,915.280396 663.120117,917.939087 661.252686,919.804932 
	C662.706482,922.526917 665.124817,923.265381 667.504089,923.446350 
	C683.526550,924.665039 695.267334,932.962463 704.496582,945.502502 
	C712.398376,956.238708 716.116089,968.637451 718.410034,981.515991 
	C718.937927,984.479675 719.717529,987.126770 721.500000,989.500000 
"/>
<path fill="none" opacity="1.000000" stroke="#000000" stroke-linecap="round" stroke-linejoin="round" stroke-width="11.000000"
	d="
M329.499969,1146.500000 
	C329.166656,1147.500000 329.007080,1148.605957 328.472412,1149.483154 
	C324.323608,1156.289062 326.335571,1163.800659 326.142517,1171.003784 
	C326.068176,1173.776489 326.944061,1176.535767 326.634125,1179.513916 
	C326.146484,1184.199707 327.990723,1188.361206 330.349365,1192.584106 
	C334.238403,1199.547607 337.039032,1207.035645 341.920532,1213.559448 
	C354.629761,1230.544312 371.261139,1241.883423 391.009521,1248.973511 
	C395.009552,1250.409546 399.192474,1251.406982 401.500000,1255.500000 
"/>
<path fill="none" opacity="1.000000" stroke="#000000" stroke-linecap="round" stroke-linejoin="round" stroke-width="8.000000"
	d="
M1033.000000,842.000000 
	C1030.059692,842.576172 1027.853394,839.408142 1024.454956,840.897278 
	C1015.567871,844.791443 1006.985962,848.797058 1000.948425,856.961853 
	C992.466125,868.432678 991.191528,881.520081 992.142212,894.989990 
	C992.521790,900.367249 993.579773,905.788635 995.305664,911.063599 
	C995.997131,913.177063 996.394226,915.868774 995.621948,918.535339 
	C994.777100,921.452148 998.110718,924.613159 1001.500000,924.750000 
"/>
<path fill="none" opacity="1.000000" stroke="#000000" stroke-linecap="round" stroke-linejoin="round" stroke-width="8.000000"
	d="
M326.000000,1188.000000 
	C323.280884,1189.357056 322.066833,1191.945190 321.032135,1194.512939 
	C313.726135,1212.643677 300.071960,1224.747559 283.476776,1233.958130 
	C274.805359,1238.770996 265.675934,1242.545410 256.027893,1245.105103 
	C252.946548,1245.922729 249.968613,1247.651367 248.000000,1250.500000 
"/>
<path fill="none" opacity="1.000000" stroke="#000000" stroke-linecap="round" stroke-linejoin="round" stroke-width="8.000000"
	d="
M1794.000000,237.000000 
	C1780.163818,248.891220 1769.526245,263.423279 1759.422852,278.448151 
	C1756.741333,282.436066 1754.432129,286.731079 1750.093262,289.639160 
	C1746.276001,292.197693 1747.474487,296.640411 1752.003174,298.492340 
	C1763.175415,303.061096 1775.066406,305.264984 1786.536011,308.885773 
	C1800.718750,313.363037 1815.186768,316.930145 1829.482788,321.059479 
	C1832.306763,321.875153 1835.072266,322.534821 1838.000000,322.500000 
"/>
<path fill="none" opacity="1.000000" stroke="#000000" stroke-linecap="round" stroke-linejoin="round" stroke-width="10.000000"
	d="
M1664.000000,1079.500000 
	C1662.173950,1085.634888 1665.013184,1090.555542 1667.234009,1096.106445 
	C1671.033691,1105.603394 1672.609131,1115.875977 1674.643921,1125.970947 
	C1678.246094,1143.842041 1679.046509,1161.910400 1680.000000,1180.000000 
"/>
<path fill="none" opacity="1.000000" stroke="#000000" stroke-linecap="round" stroke-linejoin="round" stroke-width="10.000000"
	d="
M815.500000,1658.500000 
	C815.657715,1662.406494 814.163879,1664.626709 810.721375,1667.286499 
	C804.528137,1672.071533 798.625122,1677.300537 791.961487,1681.437988 
	C784.364990,1686.154541 775.847046,1689.179443 766.997131,1689.316895 
	C753.827271,1689.521362 741.878784,1685.529297 733.613647,1674.415527 
	C731.992004,1672.235107 728.021545,1670.999634 729.500000,1667.000000 
"/>
<path fill="none" opacity="1.000000" stroke="#000000" stroke-linecap="round" stroke-linejoin="round" stroke-width="8.000000"
	d="
M954.000000,1370.500000 
	C948.500000,1378.500000 943.252380,1386.688354 937.450989,1394.463379 
	C922.154602,1414.963867 903.592163,1432.083862 882.506348,1446.509277 
	C881.580811,1447.142456 880.673462,1447.687012 879.500000,1447.500000 
"/>
<path fill="none" opacity="1.000000" stroke="#000000" stroke-linecap="round" stroke-linejoin="round" stroke-width="10.000000"
	d="
M821.500000,1773.500000 
	C821.817200,1777.500244 820.230164,1779.663452 816.716492,1782.289673 
	C810.949280,1786.600220 805.677307,1791.685303 799.478088,1795.463989 
	C783.967834,1804.918335 767.798645,1807.506836 751.027100,1798.946899 
	C743.849609,1795.283813 738.170593,1789.942505 735.500000,1782.000000 
"/>
<path fill="none" opacity="1.000000" stroke="#000000" stroke-linecap="round" stroke-linejoin="round" stroke-width="8.000000"
	d="
M1679.000000,875.250000 
	C1664.016479,873.511047 1649.074097,871.519836 1634.013794,870.325745 
	C1621.680298,869.347900 1609.394409,867.928589 1597.000000,868.000000 
"/>
<path fill="none" opacity="1.000000" stroke="#000000" stroke-linecap="round" stroke-linejoin="round" stroke-width="8.000000"
	d="
M797.500000,935.000000 
	C795.394104,928.760010 789.385925,928.208496 784.468079,926.597473 
	C763.578369,919.753906 745.393494,908.547241 729.532288,893.466003 
	C727.051392,891.107178 724.611206,889.030640 721.000000,889.000000 
"/>
<path fill="none" opacity="1.000000" stroke="#000000" stroke-linecap="round" stroke-linejoin="round" stroke-width="8.000000"
	d="
M1648.500000,200.000000 
	C1652.126465,207.953796 1653.027954,216.634750 1654.894531,225.023468 
	C1658.585327,241.610580 1661.622192,258.342651 1665.107544,274.977448 
	C1665.322876,276.004883 1665.255005,277.013062 1665.500000,278.000000 
"/>
<path fill="none" opacity="1.000000" stroke="#000000" stroke-linecap="round" stroke-linejoin="round" stroke-width="6.000000"
	d="
M189.500000,1817.500000 
	C190.842865,1822.162964 188.399704,1826.462646 188.140656,1830.993774 
	C187.919785,1834.857422 186.618805,1838.646973 186.039810,1842.505981 
	C185.538544,1845.846802 186.631973,1847.632935 190.512589,1846.544922 
	C193.952423,1845.580444 197.480820,1844.888794 201.005341,1844.281006 
	C204.573654,1843.665771 205.630630,1844.917358 205.019440,1848.503296 
	C204.738647,1850.150513 204.716675,1851.840332 204.487778,1853.498291 
	C204.174255,1855.769409 205.332428,1857.223145 206.991318,1858.511230 
	C209.096893,1860.145996 210.905197,1858.100586 211.875702,1857.341187 
	C215.462219,1854.533936 219.073334,1851.809204 223.000000,1849.500000 
"/>
<path fill="none" opacity="1.000000" stroke="#000000" stroke-linecap="round" stroke-linejoin="round" stroke-width="9.000000"
	d="
M833.500000,1727.500000 
	C838.145630,1730.317505 840.653809,1735.316162 844.968140,1738.542603 
	C862.821289,1751.893555 882.050232,1755.607056 902.928833,1746.830811 
	C904.941467,1745.984863 909.114441,1747.505005 909.000000,1743.000000 
"/>
<path fill="none" opacity="1.000000" stroke="#000000" stroke-linecap="round" stroke-linejoin="round" stroke-width="8.000000"
	d="
M1667.500000,279.500000 
	C1669.908691,278.611084 1672.028687,278.353088 1674.562378,279.897766 
	C1678.747437,282.449158 1683.812256,282.497040 1688.513794,283.430359 
	C1705.143433,286.731445 1721.523071,291.073639 1737.975464,295.100037 
	C1741.242065,295.899475 1744.270264,296.531342 1747.500000,295.500000 
"/>
<path fill="none" opacity="1.000000" stroke="#000000" stroke-linecap="round" stroke-linejoin="round" stroke-width="8.000000"
	d="
M165.500000,1151.500000 
	C165.235840,1148.097534 164.420395,1146.449219 160.057465,1145.675781 
	C152.486267,1144.333984 145.235306,1141.166260 137.507935,1139.949585 
	C133.660767,1139.343994 129.832321,1139.681641 126.000847,1139.483643 
	C123.602409,1139.359619 121.674194,1140.250610 121.085495,1142.522217 
	C120.556877,1144.561768 122.110664,1146.039551 123.470634,1147.526855 
	C130.088806,1154.764160 137.957001,1160.323120 146.504715,1164.991333 
	C149.652878,1166.710693 152.021271,1170.554443 156.500000,1168.750000 
"/>
<path fill="none" opacity="1.000000" stroke="#000000" stroke-linecap="round" stroke-linejoin="round" stroke-width="8.000000"
	d="
M1721.500000,213.500000 
	C1721.012573,215.004059 1720.525146,216.508133 1720.057861,217.949936 
	C1727.525879,228.119461 1731.363281,240.006241 1735.978149,251.508759 
	C1740.149048,261.904572 1743.114258,272.703125 1745.874268,283.532043 
	C1746.513794,286.041077 1748.157959,287.760437 1749.000000,290.000000 
"/>
<path fill="none" opacity="1.000000" stroke="#000000" stroke-linecap="round" stroke-linejoin="round" stroke-width="10.000000"
	d="
M666.500000,220.500000 
	C666.542358,225.611130 669.159302,229.024261 673.992554,230.523972 
	C676.229797,231.218170 678.170898,232.415466 680.038940,233.952713 
	C697.576782,248.385315 712.285034,265.173767 723.594849,284.945740 
	C725.259583,287.856018 727.156128,290.726410 729.875916,293.139862 
	C733.429138,296.292847 732.422974,301.182068 732.500000,305.500000 
"/>
<path fill="none" opacity="1.000000" stroke="#000000" stroke-linecap="round" stroke-linejoin="round" stroke-width="6.000000"
	d="
M1135.000000,1289.000000 
	C1135.919678,1293.374390 1139.731201,1294.431641 1142.991455,1294.295166 
	C1147.409180,1294.110474 1150.974243,1291.779907 1153.623657,1287.577881 
	C1158.233276,1280.266724 1156.756592,1272.662476 1155.960327,1265.004150 
	C1155.714966,1262.644287 1155.373657,1260.167358 1154.425293,1258.033203 
	C1152.183716,1252.989014 1147.750610,1251.136353 1142.550537,1253.606445 
	C1137.051636,1256.218506 1131.265625,1259.032837 1128.082275,1264.547485 
	C1123.035522,1273.290283 1125.191528,1279.998413 1132.505005,1286.494385 
	C1133.301758,1287.202271 1134.166626,1287.833252 1135.000000,1288.500000 
"/>
<path fill="none" opacity="1.000000" stroke="#000000" stroke-linecap="round" stroke-linejoin="round" stroke-width="6.000000"
	d="
M148.500000,1779.500000 
	C142.409409,1779.125000 138.739868,1781.769897 137.542923,1788.008179 
	C135.341370,1799.482178 133.768127,1810.918823 140.969864,1821.520508 
	C145.575562,1828.300537 153.465408,1831.094482 161.001114,1828.252930 
	C161.981552,1827.883179 161.292755,1827.071777 161.500000,1826.500000 
"/>
<path fill="none" opacity="1.000000" stroke="#000000" stroke-linecap="round" stroke-linejoin="round" stroke-width="11.000000"
	d="
M1810.000000,1134.000000 
	C1806.016846,1136.137817 1802.647827,1138.330078 1801.276123,1143.439941 
	C1799.922974,1148.480835 1795.207397,1151.889893 1791.915649,1155.931274 
	C1779.962891,1170.605591 1767.682251,1185.013184 1755.483398,1199.486084 
	C1753.614624,1201.703125 1752.623535,1204.246582 1752.000000,1207.000000 
"/>
<path fill="none" opacity="1.000000" stroke="#000000" stroke-linecap="round" stroke-linejoin="round" stroke-width="7.000000"
	d="
M207.000000,1877.500000 
	C202.314011,1883.115723 195.606247,1886.089600 189.922791,1890.398193 
	C187.476501,1892.252808 184.787369,1890.458984 184.575882,1886.995361 
	C184.383865,1883.850586 184.393204,1880.560547 185.123779,1877.529785 
	C185.854065,1874.500244 185.214981,1872.390991 182.881531,1870.456299 
	C177.773331,1870.983276 172.914780,1872.875488 168.013184,1874.538818 
	C165.060303,1875.540894 162.150787,1876.217407 158.998169,1876.031006 
	C153.634476,1875.713867 152.412689,1873.792358 153.969376,1868.490967 
	C157.204483,1857.474121 161.434006,1846.810425 165.253342,1836.001221 
	C166.940369,1831.227051 166.296463,1829.656982 162.000000,1828.250000 
"/>
<path fill="none" opacity="1.000000" stroke="#000000" stroke-linecap="round" stroke-linejoin="round" stroke-width="7.000000"
	d="
M630.000000,124.750000 
	C616.425415,123.377739 603.627380,135.254562 599.477051,150.993942 
	C597.167725,159.751419 597.773438,168.623535 597.972656,177.500610 
	C598.002502,178.829529 597.666626,180.166672 597.500000,181.500000 
"/>
<path fill="none" opacity="1.000000" stroke="#000000" stroke-linecap="round" stroke-linejoin="round" stroke-width="7.000000"
	d="
M947.500000,828.000000 
	C942.744019,829.385620 941.393982,833.431702 939.988220,837.495911 
	C935.290771,851.077087 929.279297,864.129333 922.779175,876.887512 
	C920.490601,881.379333 919.698792,885.352356 920.500000,890.000000 
"/>
<path fill="none" opacity="1.000000" stroke="#000000" stroke-linecap="round" stroke-linejoin="round" stroke-width="8.000000"
	d="
M1720.000000,219.000000 
	C1717.167480,218.929993 1715.222046,220.585266 1713.512695,222.511276 
	C1700.163696,237.550934 1687.029541,252.742386 1676.373901,269.921753 
	C1674.718140,272.590973 1673.459106,275.516083 1671.500000,278.000000 
"/>
<path fill="none" opacity="1.000000" stroke="#000000" stroke-linecap="round" stroke-linejoin="round" stroke-width="8.000000"
	d="
M165.500000,1102.500000 
	C165.603134,1105.239380 166.338272,1107.108765 168.803055,1109.229004 
	C172.594910,1112.490601 173.937866,1117.872559 175.969421,1122.513428 
	C182.135345,1136.599121 186.742844,1151.148804 188.500000,1166.500000 
"/>
<path fill="none" opacity="1.000000" stroke="#000000" stroke-linecap="round" stroke-linejoin="round" stroke-width="6.000000"
	d="
M279.500000,315.500000 
	C274.354156,313.645569 269.363159,313.915680 264.494476,316.489563 
	C261.443054,318.102753 258.362701,319.597076 259.477448,324.005707 
	C259.807434,325.310730 258.513031,326.009430 257.986664,326.992859 
	C254.500046,333.506653 253.457092,339.984680 257.994171,346.504059 
	C263.125732,353.877625 270.302490,354.657623 278.516907,353.635956 
	C283.600769,353.003632 287.788025,351.775330 291.062714,347.548584 
	C294.217468,343.476685 295.098663,337.112793 292.500000,332.500000 
	C286.872772,322.511292 276.017090,318.917725 265.487396,323.470856 
	C263.755035,324.219940 262.055115,325.313141 260.000000,325.000000 
"/>
<path fill="none" opacity="1.000000" stroke="#000000" stroke-linecap="round" stroke-linejoin="round" stroke-width="10.000000"
	d="
M1443.500000,1423.000000 
	C1445.339722,1424.683350 1447.518555,1425.165649 1449.978027,1425.619263 
	C1456.437134,1426.810303 1457.855103,1428.930908 1453.996582,1434.497559 
	C1446.138672,1445.833740 1437.690308,1456.712769 1428.463623,1466.967163 
	C1426.804688,1468.810913 1426.284790,1472.379761 1422.500000,1471.500000 
"/>
<path fill="none" opacity="1.000000" stroke="#000000" stroke-linecap="round" stroke-linejoin="round" stroke-width="10.000000"
	d="
M397.750000,1325.500000 
	C398.410217,1329.612183 396.291412,1333.483276 396.573792,1337.494751 
	C396.890869,1342.000000 395.031067,1346.417236 396.863281,1351.054077 
	C398.241272,1354.541382 401.374420,1356.322998 403.088837,1359.451294 
	C409.823120,1371.739746 421.007965,1378.750732 433.543152,1383.894897 
	C434.366364,1384.232544 435.454224,1384.613403 435.930847,1385.071899 
	C441.911987,1390.825195 449.367126,1389.364624 456.500000,1389.500000 
"/>
<path fill="none" opacity="1.000000" stroke="#000000" stroke-linecap="round" stroke-linejoin="round" stroke-width="6.000000"
	d="
M1684.000000,710.500000 
	C1681.010864,707.509155 1679.776978,703.432922 1677.507812,699.994873 
	C1674.729980,695.785828 1672.081177,691.581970 1665.995850,691.927368 
	C1663.825928,692.050537 1661.588013,692.478516 1660.599487,694.062073 
	C1656.765381,700.203491 1651.537231,705.945312 1651.133423,713.507141 
	C1650.639282,722.760193 1649.012451,731.834717 1648.000000,741.000000 
"/>
<path fill="none" opacity="1.000000" stroke="#000000" stroke-linecap="round" stroke-linejoin="round" stroke-width="6.000000"
	d="
M168.000000,1783.500000 
	C164.851074,1788.119385 162.534637,1793.128540 161.001724,1798.500488 
	C158.957367,1805.664795 162.797562,1813.239380 170.990555,1815.042969 
	C176.943024,1816.353271 183.039948,1815.966431 189.007996,1816.951538 
	C189.278900,1816.996338 189.666672,1816.333374 190.000000,1816.000000 
"/>
<path fill="none" opacity="1.000000" stroke="#000000" stroke-linecap="round" stroke-linejoin="round" stroke-width="7.000000"
	d="
M600.500000,1067.500000 
	C590.119263,1064.839600 579.680054,1062.426636 569.488281,1059.035278 
	C551.217651,1052.955688 532.964783,1046.845581 515.250000,1039.250000 
"/>
<path fill="none" opacity="1.000000" stroke="#000000" stroke-linecap="round" stroke-linejoin="round" stroke-width="7.000000"
	d="
M1877.500000,904.750000 
	C1874.206543,905.850281 1871.350464,907.241333 1871.441650,911.501221 
	C1871.473633,912.993408 1871.126465,914.648193 1870.454834,915.977112 
	C1863.695679,929.348022 1856.860718,942.680908 1849.960449,955.979492 
	C1849.211426,957.423157 1848.456787,959.123474 1846.500000,959.500000 
"/>
<path fill="none" opacity="1.000000" stroke="#000000" stroke-linecap="round" stroke-linejoin="round" stroke-width="8.000000"
	d="
M1241.500000,866.500000 
	C1229.941162,878.485840 1217.830322,889.878967 1205.000366,900.500427 
	C1201.509033,903.390747 1197.957275,906.130920 1193.000000,905.500000 
"/>
<path fill="none" opacity="1.000000" stroke="#000000" stroke-linecap="round" stroke-linejoin="round" stroke-width="7.000000"
	d="
M1427.750000,857.500000 
	C1428.997437,860.372498 1429.227173,862.897644 1427.660889,866.079224 
	C1425.318848,870.837341 1427.519287,876.069153 1428.170288,880.977417 
	C1428.789429,885.645996 1430.037720,890.240723 1430.618408,894.985535 
	C1431.348145,900.949524 1431.620361,906.544067 1427.567261,911.554443 
	C1427.226562,911.975769 1427.071167,913.319092 1428.000000,914.000000 
"/>
<path fill="none" opacity="1.000000" stroke="#000000" stroke-linecap="round" stroke-linejoin="round" stroke-width="8.000000"
	d="
M199.500000,1390.000000 
	C202.591644,1393.384155 207.010620,1393.948364 210.976822,1395.557129 
	C221.420425,1399.793091 230.418457,1406.089600 237.534439,1414.972412 
	C239.520096,1417.451172 241.375076,1420.185791 244.500000,1421.500000 
"/>
<path fill="none" opacity="1.000000" stroke="#000000" stroke-linecap="round" stroke-linejoin="round" stroke-width="8.000000"
	d="
M244.000000,1360.500000 
	C237.566101,1368.444336 230.127213,1375.100586 220.504318,1379.010620 
	C216.145691,1380.781738 211.863525,1382.745239 207.473770,1384.431641 
	C206.629257,1384.755981 205.756866,1384.738403 204.974396,1385.472778 
	C197.387573,1392.592773 187.354721,1389.920532 178.500000,1392.000000 
"/>
<path fill="none" opacity="1.000000" stroke="#000000" stroke-linecap="round" stroke-linejoin="round" stroke-width="9.000000"
	d="
M1199.500000,822.000000 
	C1201.633667,821.899353 1203.171631,823.033264 1204.494019,824.505432 
	C1216.789429,838.195129 1229.621338,851.397522 1242.227173,864.786133 
	C1250.436890,873.505798 1257.897705,883.122375 1267.557251,890.424194 
	C1269.290039,891.733887 1270.188721,892.932190 1270.000000,895.000000 
"/>
<path fill="none" opacity="1.000000" stroke="#000000" stroke-linecap="round" stroke-linejoin="round" stroke-width="8.000000"
	d="
M295.500000,1381.000000 
	C289.147430,1380.713257 283.383087,1381.296387 278.363220,1386.364502 
	C274.015594,1390.753906 267.866913,1392.963623 262.875488,1396.839722 
	C256.466064,1401.817017 252.461777,1408.204590 248.389618,1414.933228 
	C242.457947,1424.734375 247.399384,1433.447876 249.999802,1442.500000 
	C250.334778,1443.666260 250.666656,1444.833374 250.999985,1446.000000 
"/>
<path fill="none" opacity="1.000000" stroke="#000000" stroke-linecap="round" stroke-linejoin="round" stroke-width="8.000000"
	d="
M397.000000,1354.500000 
	C393.143890,1357.310913 394.256531,1361.744263 393.558319,1365.510864 
	C391.438599,1376.945435 384.444702,1384.556274 375.698700,1391.741821 
	C369.220001,1397.064819 362.562622,1399.979004 354.520172,1401.139771 
	C351.066345,1401.638184 347.833344,1403.666626 344.500000,1405.000000 
"/>
<path fill="none" opacity="1.000000" stroke="#000000" stroke-linecap="round" stroke-linejoin="round" stroke-width="10.000000"
	d="
M442.500000,1390.000000 
	C441.552917,1392.719604 439.290680,1394.218018 436.981049,1395.464844 
	C426.706940,1401.012085 419.084747,1409.188477 412.964813,1418.978027 
	C411.203644,1421.795044 409.406738,1424.569458 407.237671,1427.196289 
	C404.709808,1430.257568 406.074097,1434.978394 406.000000,1439.000000 
"/>
<path fill="none" opacity="1.000000" stroke="#000000" stroke-linecap="round" stroke-linejoin="round" stroke-width="6.000000"
	d="
M1389.500000,871.500000 
	C1397.349854,873.659363 1401.495361,880.086487 1405.962646,886.028076 
	C1410.630005,892.235596 1414.842041,898.788086 1419.574951,904.942322 
	C1421.562622,907.526611 1423.891724,910.035217 1427.000000,911.500000 
"/>
<path fill="none" opacity="1.000000" stroke="#000000" stroke-linecap="round" stroke-linejoin="round" stroke-width="8.000000"
	d="
M1604.500000,822.500000 
	C1601.833374,831.333374 1598.191162,840.006042 1596.704834,849.033752 
	C1593.691772,867.333191 1595.537231,883.502686 1613.588745,895.364868 
	C1619.426758,899.201172 1626.002930,901.602051 1633.464844,902.350159 
	C1639.739136,902.979126 1646.107300,901.658020 1652.250000,903.500000 
"/>
<path fill="none" opacity="1.000000" stroke="#000000" stroke-linecap="round" stroke-linejoin="round" stroke-width="9.000000"
	d="
M369.500000,1398.000000 
	C372.201721,1400.437500 375.758392,1400.823486 378.949524,1402.123901 
	C388.301971,1405.935425 395.703339,1412.426025 400.867096,1421.079346 
	C402.338867,1423.545654 404.129364,1425.490234 406.000000,1427.500000 
"/>
<path fill="none" opacity="1.000000" stroke="#000000" stroke-linecap="round" stroke-linejoin="round" stroke-width="8.000000"
	d="
M1627.000000,902.500000 
	C1625.478394,911.740112 1629.852295,918.193787 1637.978760,919.621033 
	C1641.132080,920.174866 1643.490601,919.506042 1645.460205,917.461609 
	C1648.848877,913.944092 1652.564331,910.490662 1652.468994,905.000549 
	C1652.452393,904.046082 1652.814331,903.338318 1653.513916,903.031677 
	C1657.911133,901.103943 1657.485229,897.221863 1657.500000,893.500000 
"/>
<path fill="none" opacity="1.000000" stroke="#000000" stroke-linecap="round" stroke-linejoin="round" stroke-width="6.000000"
	d="
M1319.250000,920.000000 
	C1319.226562,921.470886 1321.539185,921.767761 1320.612305,924.045715 
	C1317.474121,931.759155 1320.623535,939.674194 1320.714844,947.497498 
	C1320.781250,953.177002 1322.833252,958.833313 1324.000000,964.500000 
"/>
<path fill="none" opacity="1.000000" stroke="#000000" stroke-linecap="round" stroke-linejoin="round" stroke-width="7.000000"
	d="
M1871.000000,909.000000 
	C1868.420166,907.968994 1865.963745,908.539978 1863.496582,909.491028 
	C1851.827759,913.988647 1841.186646,920.453369 1831.135254,927.687927 
	C1826.773193,930.827576 1822.667969,933.930176 1817.505615,935.518127 
	C1812.544067,937.044312 1807.879272,936.432617 1804.601562,932.417114 
	C1801.657715,928.810547 1802.540405,924.475708 1804.522339,920.511169 
	C1805.388916,918.777771 1806.606812,917.220398 1807.477905,915.488892 
	C1809.288696,911.889038 1810.905884,908.343201 1810.105713,903.980591 
	C1809.483032,900.585510 1810.264404,897.378235 1815.000000,897.750000 
"/>
<path fill="none" opacity="1.000000" stroke="#000000" stroke-linecap="round" stroke-linejoin="round" stroke-width="8.000000"
	d="
M170.500000,131.500000 
	C165.283432,130.542374 160.585419,133.233231 155.516556,133.685501 
	C149.280563,134.241882 143.203445,136.399628 136.981308,137.381577 
	C134.602158,137.757034 132.761719,138.594788 130.993942,139.973267 
	C133.895233,153.350616 133.727249,166.965958 134.500000,180.500000 
"/>
<path fill="none" opacity="1.000000" stroke="#000000" stroke-linecap="round" stroke-linejoin="round" stroke-width="9.000000"
	d="
M151.500000,1169.500000 
	C147.474838,1175.153442 140.814041,1177.147339 135.425278,1180.892456 
	C133.146057,1182.476562 131.479553,1184.312866 129.797607,1186.308472 
	C133.853378,1190.147339 163.763504,1197.378296 175.500000,1197.500000 
"/>
<path fill="none" opacity="1.000000" stroke="#000000" stroke-linecap="round" stroke-linejoin="round" stroke-width="11.000000"
	d="
M1412.500000,1427.000000 
	C1412.766113,1430.423340 1410.514526,1432.867920 1408.947510,1435.468384 
	C1402.160400,1446.731201 1394.280029,1457.206299 1385.500000,1467.000000 
"/>
<path fill="none" opacity="1.000000" stroke="#000000" stroke-linecap="round" stroke-linejoin="round" stroke-width="7.000000"
	d="
M1070.500000,546.500000 
	C1072.818115,549.503052 1072.183472,553.157593 1072.405884,556.506226 
	C1072.880493,563.652466 1072.949097,570.833435 1072.942017,577.999939 
	C1072.939331,580.793457 1073.701172,582.932800 1076.000000,584.500000 
"/>
<path fill="none" opacity="1.000000" stroke="#000000" stroke-linecap="round" stroke-linejoin="round" stroke-width="8.000000"
	d="
M567.500000,1059.000000 
	C564.225647,1071.735962 560.734375,1084.424072 559.000000,1097.500000 
"/>
<path fill="none" opacity="1.000000" stroke="#000000" stroke-linecap="round" stroke-linejoin="round" stroke-width="8.000000"
	d="
M245.000000,1349.500000 
	C244.050400,1349.550415 243.344559,1349.411987 243.421722,1351.003784 
	C243.642334,1355.556274 244.536469,1359.368530 247.852814,1363.129761 
	C255.351151,1371.633911 264.771454,1375.868042 275.500916,1377.995483 
	C278.414398,1378.572998 281.114349,1379.514771 283.000000,1382.000000 
"/>
<path fill="none" opacity="1.000000" stroke="#000000" stroke-linecap="round" stroke-linejoin="round" stroke-width="9.000000"
	d="
M166.000000,1108.000000 
	C161.994797,1111.708374 162.331039,1116.700806 161.997589,1121.499878 
	C161.508438,1128.540039 162.490906,1135.513306 163.110779,1142.490112 
	C163.221405,1143.735352 162.936050,1144.544922 162.500000,1145.500000 
"/>
<path fill="none" opacity="1.000000" stroke="#000000" stroke-linecap="round" stroke-linejoin="round" stroke-width="8.000000"
	d="
M595.000000,1065.000000 
	C596.826233,1058.834595 594.162659,1053.380005 591.917847,1048.034546 
	C588.907776,1040.866455 586.577576,1033.134033 579.500000,1028.500000 
"/>
<path fill="none" opacity="1.000000" stroke="#000000" stroke-linecap="round" stroke-linejoin="round" stroke-width="10.000000"
	d="
M1427.000000,1387.000000 
	C1419.586792,1395.125854 1411.338501,1402.354370 1403.045044,1409.551880 
	C1400.362915,1411.879639 1397.361328,1414.168457 1396.500000,1418.000000 
"/>
<path fill="none" opacity="1.000000" stroke="#000000" stroke-linecap="round" stroke-linejoin="round" stroke-width="7.000000"
	d="
M1117.500000,548.000000 
	C1116.243774,557.282104 1114.310669,566.422302 1112.122192,575.529358 
	C1111.628906,577.582214 1110.378418,578.855835 1109.500000,580.500000 
"/>
<path fill="none" opacity="1.000000" stroke="#000000" stroke-linecap="round" stroke-linejoin="round" stroke-width="7.000000"
	d="
M1486.500000,384.000000 
	C1480.666626,391.333313 1475.025269,398.832245 1468.908569,405.921112 
	C1466.343506,408.893982 1465.237549,411.776764 1466.000000,415.500000 
"/>
<path fill="none" opacity="1.000000" stroke="#000000" stroke-linecap="round" stroke-linejoin="round" stroke-width="6.000000"
	d="
M1093.500000,554.500000 
	C1089.148804,557.105103 1088.462036,561.954163 1086.523193,566.011047 
	C1083.272583,572.812683 1080.222046,579.712402 1076.000000,586.000000 
"/>
<path fill="none" opacity="1.000000" stroke="#000000" stroke-linecap="round" stroke-linejoin="round" stroke-width="8.000000"
	d="
M578.500000,1022.500000 
	C581.115784,1028.553101 575.415405,1032.348877 574.299377,1037.456177 
	C572.767944,1044.464722 569.833313,1051.166626 567.500000,1058.000000 
"/>
<path fill="none" opacity="1.000000" stroke="#000000" stroke-linecap="round" stroke-linejoin="round" stroke-width="6.000000"
	d="
M1321.500000,923.500000 
	C1327.167725,925.824829 1330.503906,930.898132 1334.367920,935.120789 
	C1339.248047,940.453857 1343.078735,946.736023 1347.575562,952.440430 
	C1348.455078,953.555969 1346.738525,954.259460 1347.750000,955.000000 
"/>
<path fill="none" opacity="1.000000" stroke="#000000" stroke-linecap="round" stroke-linejoin="round" stroke-width="6.000000"
	d="
M1173.500000,1383.500000 
	C1174.192017,1391.006714 1171.453003,1398.113647 1170.829712,1405.485596 
	C1170.589111,1408.331177 1170.489014,1410.886108 1171.500000,1413.500000 
"/>
<path fill="none" opacity="1.000000" stroke="#000000" stroke-linecap="round" stroke-linejoin="round" stroke-width="7.000000"
	d="
M1829.500000,931.000000 
	C1835.374023,940.545166 1838.447876,951.724670 1846.446289,960.051636 
	C1846.862549,960.485046 1846.500000,961.666687 1846.500000,962.500000 
"/>
<path fill="none" opacity="1.000000" stroke="#000000" stroke-linecap="round" stroke-linejoin="round" stroke-width="7.000000"
	d="
M1515.500000,395.500000 
	C1509.948120,405.361511 1501.942383,413.165039 1493.919678,420.916870 
	C1493.030884,421.775574 1492.559692,422.402466 1492.500000,423.500000 
"/>
<path fill="none" opacity="1.000000" stroke="#000000" stroke-linecap="round" stroke-linejoin="round" stroke-width="5.000000"
	d="
M691.500000,365.000000 
	C699.210571,364.826904 706.881042,365.178833 714.506470,366.461639 
	C716.506042,366.798004 718.174316,367.484711 719.500000,369.000000 
"/>
<path fill="none" opacity="1.000000" stroke="#000000" stroke-linecap="round" stroke-linejoin="round" stroke-width="9.000000"
	d="
M721.750000,370.500000 
	C720.539307,373.671051 718.030579,374.104584 714.999084,374.045135 
	C707.835205,373.904572 700.666687,374.000000 693.500000,374.000000 
"/>
<path fill="none" opacity="1.000000" stroke="#000000" stroke-linecap="round" stroke-linejoin="round" stroke-width="7.000000"
	d="
M1021.000000,534.000000 
	C1025.485596,532.065491 1029.735840,530.628296 1035.055298,531.734192 
	C1039.621948,532.683655 1044.664307,531.291931 1049.501221,531.020752 
	C1051.384033,530.915222 1053.345459,530.683594 1055.115967,532.273193 
	C1054.578491,538.042297 1050.714478,542.685913 1048.505371,548.002258 
	C1046.961548,551.717651 1044.362183,554.902405 1044.790894,559.519409 
	C1045.036255,562.160889 1041.677979,563.842041 1040.000000,566.000000 
"/>
<path fill="none" opacity="1.000000" stroke="#000000" stroke-linecap="round" stroke-linejoin="round" stroke-width="6.000000"
	d="
M1093.500000,547.500000 
	C1091.918091,555.115723 1097.953979,560.165039 1100.318848,566.378662 
	C1102.293091,571.566467 1104.249023,577.362732 1109.335205,581.217468 
	C1110.750366,582.289978 1110.166626,586.000000 1110.500000,588.500000 
"/>
<path fill="none" opacity="1.000000" stroke="#000000" stroke-linecap="round" stroke-linejoin="round" stroke-width="8.000000"
	d="
M987.750000,1344.500000 
	C990.359863,1349.436890 990.232727,1354.240967 986.444092,1358.449707 
	C984.439758,1360.676147 981.369446,1361.395996 978.525452,1360.864014 
	C976.809937,1360.543335 975.156311,1360.770142 973.500000,1360.500000 
"/>
<path fill="none" opacity="1.000000" stroke="#000000" stroke-linecap="round" stroke-linejoin="round" stroke-width="7.000000"
	d="
M1818.500000,902.500000 
	C1820.293701,909.431519 1823.550781,915.814392 1826.056274,922.478882 
	C1826.801514,924.461548 1828.253784,926.163635 1830.000000,927.500000 
"/>
<path fill="none" opacity="1.000000" stroke="#000000" stroke-linecap="round" stroke-linejoin="round" stroke-width="8.000000"
	d="
M1396.500000,1839.500000 
	C1388.914917,1839.861938 1381.451050,1841.123657 1373.994873,1842.471436 
	C1372.865112,1842.675659 1371.666626,1842.500000 1370.500000,1842.500000 
"/>
<path fill="none" opacity="1.000000" stroke="#000000" stroke-linecap="round" stroke-linejoin="round" stroke-width="7.000000"
	d="
M1501.500000,391.500000 
	C1493.666626,400.000000 1485.833374,408.500000 1478.000000,417.000000 
"/>
<path fill="none" opacity="1.000000" stroke="#000000" stroke-linecap="round" stroke-linejoin="round" stroke-width="7.000000"
	d="
M1449.000000,887.000000 
	C1442.625854,883.899292 1441.066895,876.939880 1437.129272,871.899048 
	C1434.706787,868.798035 1433.087524,865.093750 1429.500000,863.000000 
"/>
<path fill="none" opacity="1.000000" stroke="#000000" stroke-linecap="round" stroke-linejoin="round" stroke-width="6.000000"
	d="
M1072.500000,541.500000 
	C1072.518799,544.575989 1070.524658,545.685547 1068.074707,547.127014 
	C1062.830688,550.212219 1057.989136,553.984619 1053.004639,557.506531 
	C1050.590088,559.212524 1048.150146,560.789246 1045.000000,560.500000 
"/>
<path fill="none" opacity="1.000000" stroke="#000000" stroke-linecap="round" stroke-linejoin="round" stroke-width="7.000000"
	d="
M1456.750000,859.500000 
	C1457.963379,861.682922 1457.420410,863.401550 1456.108398,865.565735 
	C1453.567627,869.756714 1454.087280,874.936951 1452.515015,879.505127 
	C1452.240845,880.301697 1452.646362,881.131531 1452.048340,882.032104 
	C1449.302246,886.167297 1450.067383,890.911194 1450.000000,895.500000 
"/>
<path fill="none" opacity="1.000000" stroke="#000000" stroke-linecap="round" stroke-linejoin="round" stroke-width="9.000000"
	d="
M1426.750000,1796.500000 
	C1426.715820,1804.364868 1425.266357,1811.999023 1423.000000,1819.500000 
"/>
<path fill="none" opacity="1.000000" stroke="#000000" stroke-linecap="round" stroke-linejoin="round" stroke-width="6.000000"
	d="
M1247.000000,314.500000 
	C1246.917358,316.762970 1246.613159,318.805389 1245.652954,321.064972 
	C1241.747070,330.255951 1242.256348,339.228302 1248.467651,347.524231 
	C1250.208008,349.848541 1253.041382,351.575165 1253.000000,355.000000 
"/>
<path fill="none" opacity="1.000000" stroke="#000000" stroke-linecap="round" stroke-linejoin="round" stroke-width="8.000000"
	d="
M1458.500000,1865.000000 
	C1450.504150,1866.147949 1445.352539,1861.104736 1440.000488,1856.499390 
	C1439.050537,1855.682251 1438.407104,1854.457275 1437.000000,1854.250000 
"/>
<path fill="none" opacity="1.000000" stroke="#000000" stroke-linecap="round" stroke-linejoin="round" stroke-width="7.000000"
	d="
M1050.000000,513.500000 
	C1044.500000,517.333374 1039.048584,521.239380 1033.475342,524.963013 
	C1031.346802,526.385193 1029.983765,528.244324 1029.000000,530.500000 
"/>
<path fill="none" opacity="1.000000" stroke="#000000" stroke-linecap="round" stroke-linejoin="round" stroke-width="11.000000"
	d="
M245.500000,1327.500000 
	C241.588577,1334.538330 240.555054,1341.838379 243.500000,1349.500000 
"/>
<path fill="none" opacity="1.000000" stroke="#000000" stroke-linecap="round" stroke-linejoin="round" stroke-width="9.000000"
	d="
M1460.750000,1400.000000 
	C1457.381104,1405.291748 1452.777832,1409.504639 1448.493408,1413.993652 
	C1446.488159,1416.094482 1444.477051,1418.047607 1443.406372,1420.965576 
	C1442.107910,1424.503784 1438.758057,1424.685059 1435.500000,1424.500000 
"/>
<path fill="none" opacity="1.000000" stroke="#000000" stroke-linecap="round" stroke-linejoin="round" stroke-width="8.000000"
	d="
M1420.500000,1860.500000 
	C1419.244995,1865.799316 1419.111572,1871.164673 1420.081299,1876.485229 
	C1420.405640,1878.265503 1419.963623,1881.284912 1423.500000,1880.750000 
"/>
<path fill="none" opacity="1.000000" stroke="#000000" stroke-linecap="round" stroke-linejoin="round" stroke-width="10.000000"
	d="
M172.500000,624.500000 
	C165.269119,624.619324 158.849396,627.428589 152.493439,630.486389 
	C150.542877,631.424744 148.971832,633.299072 146.500000,633.000000 
"/>
<path fill="none" opacity="1.000000" stroke="#000000" stroke-linecap="round" stroke-linejoin="round" stroke-width="10.000000"
	d="
M1391.000000,1419.500000 
	C1393.940063,1417.852783 1396.520752,1418.354248 1399.559814,1419.880859 
	C1404.518433,1422.371826 1409.531006,1424.916382 1415.000000,1426.250000 
"/>
<path fill="none" opacity="1.000000" stroke="#000000" stroke-linecap="round" stroke-linejoin="round" stroke-width="8.000000"
	d="
M1464.500000,1830.500000 
	C1457.305664,1830.987793 1451.051270,1834.979126 1444.000000,1836.000000 
"/>
<path fill="none" opacity="1.000000" stroke="#000000" stroke-linecap="round" stroke-linejoin="round" stroke-width="8.000000"
	d="
M1404.749878,1858.000000 
	C1401.166626,1863.333252 1397.583252,1868.666626 1393.999878,1874.000000 
"/>
<path fill="none" opacity="1.000000" stroke="#000000" stroke-linecap="round" stroke-linejoin="round" stroke-width="5.000000"
	d="
M1148.000000,1282.500000 
	C1146.491455,1286.019653 1143.580200,1287.330811 1139.999268,1287.482300 
	C1138.421143,1287.549072 1136.882690,1287.638916 1135.500000,1288.500000 
"/>
<path fill="none" opacity="1.000000" stroke="#000000" stroke-linecap="round" stroke-linejoin="round" stroke-width="5.000000"
	d="
M384.500000,1336.500000 
	C386.588531,1341.226685 390.068146,1344.415894 395.000000,1346.000000 
"/>
<path fill="none" opacity="1.000000" stroke="#000000" stroke-linecap="round" stroke-linejoin="round" stroke-width="9.000000"
	d="
M972.000000,1354.500000 
	C973.059326,1361.713379 972.041138,1368.572021 968.500000,1375.000000 
"/>
<path fill="none" opacity="1.000000" stroke="#000000" stroke-linecap="round" stroke-linejoin="round" stroke-width="5.000000"
	d="
M1468.000000,874.000000 
	C1464.700073,870.468201 1462.811157,865.592590 1458.000000,863.500000 
"/>
<path fill="none" opacity="1.000000" stroke="#000000" stroke-linecap="round" stroke-linejoin="round" stroke-width="2.000000"
	d="
M487.500000,643.500000 
	C485.779968,645.119873 483.657166,645.128662 481.500000,645.000000 
"/>
<path fill="none" opacity="1.000000" stroke="#000000" stroke-linecap="round" stroke-linejoin="round" stroke-width="6.000000"
	d="
M437.000000,311.000000 
	C435.998474,310.912872 435.531677,311.878784 434.518616,312.089447 
	C421.320831,314.833740 420.069855,330.387756 427.967468,338.531555 
	C432.833008,343.548767 438.084808,347.000549 445.498077,347.119690 
	C453.335419,347.245667 458.619629,343.358246 461.276398,336.907898 
	C463.692078,331.042877 461.912262,324.902527 457.484772,320.013794 
	C452.154694,314.128387 445.693329,310.607391 437.500000,311.000000 
"/>
<path fill="none" opacity="1.000000" stroke="#000000" stroke-linecap="round" stroke-linejoin="round" stroke-width="8.000000"
	d="
M1269.500000,1260.500000 
	C1258.078613,1262.068237 1254.817139,1272.387207 1255.188110,1280.991943 
	C1255.615845,1290.917603 1261.845825,1297.106445 1272.041748,1298.739136 
	C1278.797241,1299.821045 1284.550171,1295.753662 1288.479248,1289.985840 
	C1292.626831,1283.896851 1294.181030,1277.370850 1290.467163,1270.517822 
	C1286.750977,1263.660034 1280.477173,1260.950439 1272.999512,1260.508179 
	C1272.003052,1260.449219 1271.000000,1260.500000 1270.000000,1260.500000 
"/>
<path fill="none" opacity="1.000000" stroke="#000000" stroke-linecap="round" stroke-linejoin="round" stroke-width="6.000000"
	d="
M366.000000,313.000031 
	C362.000000,314.333344 357.744965,315.175903 354.049866,317.096008 
	C344.593750,322.009796 340.943878,329.677094 342.700714,338.459839 
	C344.902100,349.464935 351.733459,354.600494 362.007385,355.405609 
	C375.949158,356.498138 385.634186,349.626221 389.363556,336.461334 
	C392.360596,325.881744 387.429810,317.899658 375.970245,314.089478 
	C373.007446,313.104401 369.747711,312.563477 366.500000,313.000000 
"/>
</svg>