<svg version="1.1" id="Layer_1" xmlns="http://www.w3.org/2000/svg" xmlns:xlink="http://www.w3.org/1999/xlink" x="0px" y="0px"
	 width="100%" viewBox="0 0 2000 2000" enable-background="new 0 0 2000 2000" xml:space="preserve">
<path fill="none" opacity="1.000000" stroke="#000000" stroke-linecap="round" stroke-linejoin="round" stroke-width="7.000000"
	d="
M776.000000,822.500000 
	C774.053650,824.091309 772.684143,826.049377 771.993042,828.498047 
	C763.337036,859.167725 754.408752,889.763489 746.079590,920.521545 
	C739.113159,946.247375 731.919800,971.902283 724.565796,997.518860 
	C718.084656,1020.095276 712.239380,1042.853516 705.977356,1065.493774 
	C700.792603,1084.239136 696.149719,1103.117676 691.391357,1121.972534 
	C684.978760,1147.382935 679.043884,1172.896484 673.549927,1198.510742 
	C667.661804,1225.963257 662.114258,1253.489380 656.513306,1281.002686 
	C649.458374,1315.658203 642.362122,1350.306274 635.552429,1385.010254 
	C631.562195,1405.345703 627.723877,1425.708862 623.586731,1446.017700 
	C620.481262,1461.261597 618.305115,1476.692261 615.467590,1491.994019 
	C611.259949,1514.683960 606.704956,1537.309814 602.546997,1560.008545 
	C599.960388,1574.128784 598.179810,1588.401123 595.424438,1602.485229 
	C590.403992,1628.148193 586.225769,1653.961060 580.675903,1679.538208 
	C575.290161,1704.358521 570.123352,1729.227051 564.582031,1754.018311 
	C561.139709,1769.419434 558.177063,1784.946045 555.576172,1800.512695 
	C551.725708,1823.558105 549.078979,1846.777100 546.464478,1869.995972 
	C544.735535,1885.350464 542.610657,1900.659912 540.765137,1916.001831 
	C538.781250,1932.493774 537.051758,1949.017212 534.954163,1965.494141 
	C533.470825,1977.146729 531.821106,1988.774780 531.000000,2000.500000 
"/>
<path fill="none" opacity="1.000000" stroke="#000000" stroke-linecap="round" stroke-linejoin="round" stroke-width="7.000000"
	d="
M870.000000,717.000000 
	C873.584473,722.748169 879.257263,725.134583 885.502502,726.488464 
	C923.166687,734.653442 960.269958,744.816223 996.484619,758.042175 
	C1015.302002,764.914429 1033.657593,772.940186 1052.048828,780.886902 
	C1063.116333,785.669067 1074.682129,789.292603 1085.970703,793.577332 
	C1086.874023,793.920105 1087.794312,794.188354 1088.479858,793.943604 
	C1094.093018,791.939453 1099.142700,794.024414 1104.538330,795.343140 
	C1116.351074,798.230347 1128.318237,800.405762 1140.490967,801.593018 
	C1165.784302,804.059937 1191.151123,803.807556 1216.496460,804.611145 
	C1247.168701,805.583618 1276.447021,799.370850 1304.979492,788.943970 
	C1330.224121,779.718750 1353.515869,766.609619 1376.008301,752.012756 
	C1386.315796,745.323425 1396.363892,738.409424 1404.031494,728.524414 
	C1414.574219,714.932983 1418.813232,699.048889 1421.520630,682.503357 
	C1425.287842,659.480347 1427.171143,636.337219 1426.507812,612.999756 
	C1426.027832,596.109680 1423.988037,579.451660 1420.050049,562.988037 
	C1415.011475,541.923767 1408.953369,521.170288 1402.639404,500.457489 
	C1397.903809,484.922089 1393.387695,469.339233 1388.101807,453.964996 
	C1382.295898,437.079041 1370.844482,424.868011 1356.373413,415.699860 
	C1343.675293,407.654968 1329.909668,401.274170 1314.998901,398.004822 
	C1304.704346,395.747650 1294.216064,395.329285 1284.028442,397.626373 
	C1258.672241,403.343750 1233.367798,409.330170 1208.494873,416.983521 
	C1176.406250,426.857178 1145.426514,439.262482 1116.454590,456.423279 
	C1113.709351,458.049316 1110.346802,458.689056 1107.000000,458.500000 
"/>
<path fill="none" opacity="1.000000" stroke="#000000" stroke-linecap="round" stroke-linejoin="round" stroke-width="7.000000"
	d="
M782.000000,774.500000 
	C778.480591,775.389343 776.761780,778.023621 774.921631,780.950745 
	C768.494995,791.173584 765.224304,802.587646 762.046021,814.012817 
	C756.169556,835.137878 751.326477,856.574219 740.542969,876.023865 
	C731.949829,891.522888 721.680420,905.829346 710.447083,919.456421 
	C705.611267,925.322754 702.154358,931.949219 698.514893,938.508240 
	C698.101562,939.253113 697.237854,939.687256 697.927429,941.037048 
	C700.700134,946.463989 698.332764,951.841614 696.916260,956.976868 
	C685.961182,996.692078 675.747620,1036.599243 665.455383,1076.488525 
	C654.516846,1118.882324 644.116943,1161.405273 634.000366,1204.000122 
	C628.498352,1227.166260 622.810059,1250.290405 617.551147,1273.511597 
	C611.825562,1298.793823 606.507812,1324.168335 600.997742,1349.499512 
	C596.175476,1371.668579 591.214600,1393.808350 586.534058,1416.007202 
	C582.042969,1437.307251 577.800720,1458.660034 573.510193,1480.002075 
	C569.960571,1497.658691 566.411926,1515.316528 563.028259,1533.005371 
	C560.387268,1546.811768 558.029480,1560.671997 555.492737,1574.498657 
	C552.189270,1592.504150 548.837219,1610.500732 545.498352,1628.499756 
	C543.673889,1638.334717 541.657410,1648.138428 540.076904,1658.012329 
	C539.327148,1662.696045 536.837952,1665.719849 533.000000,1668.000000 
"/>
<path fill="none" opacity="1.000000" stroke="#000000" stroke-linecap="round" stroke-linejoin="round" stroke-width="7.000000"
	d="
M743.000000,629.500000 
	C744.260620,622.249390 740.461487,616.241516 737.938721,610.024841 
	C724.717896,577.445068 711.244202,544.959167 699.076538,511.971771 
	C685.905212,476.263092 673.379211,440.316833 660.487061,404.504669 
	C647.577026,368.642944 626.885193,337.806091 598.906860,312.101349 
	C578.878235,293.700256 556.866394,277.656189 534.993713,261.508484 
	C519.952637,250.404282 504.524567,240.061508 487.054382,232.867966 
	C472.830200,227.011017 458.474670,222.241470 442.999298,222.057938 
	C427.993103,221.879974 414.082245,226.779312 400.517181,232.540482 
	C368.857269,245.986679 346.123901,268.940430 329.942535,298.969055 
	C321.474304,314.684021 308.645172,326.167694 293.566528,335.606262 
	C277.860718,345.437439 262.235046,355.416565 246.944611,365.919342 
	C233.231537,375.338593 227.192673,388.077179 226.881226,404.497742 
	C226.522125,423.431610 229.421570,441.511566 238.012634,458.493622 
	C243.852310,470.036926 252.166626,479.697266 261.519379,488.479340 
	C274.049438,500.244873 287.860962,510.158813 303.480530,517.541199 
	C320.486267,525.578796 337.407532,533.827881 355.022430,540.440308 
	C382.217194,550.648926 410.110077,558.988403 436.959595,570.097656 
	C466.114410,582.160828 494.672455,595.528870 522.603882,610.303589 
	C535.494507,617.122314 549.364441,622.188721 563.036377,627.404602 
	C578.059021,633.135742 593.427429,637.905640 608.967773,642.118896 
	C612.115967,642.972412 615.695190,644.377319 616.500000,648.500000 
"/>
<path fill="none" opacity="1.000000" stroke="#000000" stroke-linecap="round" stroke-linejoin="round" stroke-width="6.000000"
	d="
M1445.000000,1417.500000 
	C1443.506226,1411.829468 1444.745117,1407.429810 1449.929932,1403.897095 
	C1454.595581,1400.718140 1458.656128,1396.654175 1463.003174,1393.003784 
	C1466.698608,1389.900391 1470.632446,1387.218872 1472.129028,1382.037231 
	C1473.335327,1377.860962 1477.209839,1375.197754 1480.058838,1372.053223 
	C1494.093994,1356.562012 1507.787354,1340.774902 1521.571533,1325.062744 
	C1537.598511,1306.793945 1554.390747,1289.196899 1570.435181,1270.942993 
	C1585.615723,1253.671753 1598.465088,1234.734497 1609.608032,1214.559692 
	C1617.753662,1199.811523 1625.818359,1185.071289 1630.948853,1168.983643 
	C1638.581299,1145.050171 1641.105835,1120.584351 1638.571167,1095.492798 
	C1634.483276,1055.023926 1612.494751,1027.533081 1576.939453,1010.123535 
	C1560.331421,1001.991455 1542.083130,998.780151 1523.993164,995.538025 
	C1515.014160,993.928772 1506.140869,991.785461 1497.006836,990.927124 
	C1484.446533,989.746765 1472.334473,991.301819 1460.499878,995.499512 
	C1425.857544,1007.787048 1398.425171,1029.273071 1377.417480,1059.442505 
	C1361.768921,1081.915771 1352.556396,1106.684570 1347.916382,1133.485474 
	C1345.557129,1147.112671 1344.719360,1160.825806 1345.687500,1174.486694 
	C1346.724365,1189.120483 1349.502930,1203.580566 1352.282471,1218.041748 
	C1355.561157,1235.100098 1359.098999,1252.082886 1363.003662,1268.999146 
	C1368.635254,1293.397461 1375.856201,1317.335938 1384.026978,1340.990723 
	C1386.350830,1347.718140 1389.121582,1354.291260 1391.451904,1361.016602 
	C1392.741455,1364.738281 1394.969482,1367.380859 1398.500000,1369.000000 
"/>
<path fill="none" opacity="1.000000" stroke="#000000" stroke-linecap="round" stroke-linejoin="round" stroke-width="7.000000"
	d="
M774.500000,744.750000 
	C773.343140,745.127319 772.156555,745.378601 771.513123,743.993896 
	C769.688416,740.066956 766.060486,737.060791 765.548706,732.494568 
	C765.446411,731.581604 765.080444,731.053589 764.504395,730.495483 
	C763.488831,729.511536 762.600403,728.367554 761.483826,727.521362 
	C753.836609,721.726013 746.747681,715.376160 739.827515,708.678223 
	C730.664062,699.809265 718.248901,696.246582 706.469177,692.087341 
	C698.444336,689.253906 692.301453,684.910278 688.353516,677.073792 
	C685.983398,672.369324 680.589417,670.674316 675.989929,668.521484 
	C659.402954,660.757751 642.445068,654.009888 624.504578,649.979553 
	C620.422546,649.062561 616.509155,648.183411 612.443726,650.396667 
	C610.959595,651.204651 608.776978,651.203369 607.009949,650.934448 
	C600.203064,649.898499 593.310425,650.135559 586.487000,649.707336 
	C549.038330,647.357300 511.529022,646.848572 473.999969,646.860535 
	C456.333557,646.866150 438.674103,646.572083 420.997986,646.886169 
	C402.006927,647.223694 382.964386,647.334412 364.009430,646.323242 
	C342.539246,645.177856 321.242310,642.177185 300.480682,636.065552 
	C291.388550,633.389099 281.944824,632.395752 272.516571,631.350403 
	C269.007446,630.961365 265.453400,630.991455 262.013641,630.418152 
	C251.167328,628.610413 243.173447,632.916016 238.095016,642.052795 
	C229.555847,657.415955 227.072067,674.284729 229.214767,691.473206 
	C230.562378,702.283569 233.869553,712.865967 236.529907,723.492493 
	C240.751114,740.353882 244.785522,757.276489 249.594818,773.972656 
	C255.849670,795.687378 264.920258,816.303345 276.024200,835.986328 
	C284.019440,850.158813 289.497009,865.605469 298.028931,879.482239 
	C311.856689,901.972290 325.485321,924.821960 348.059784,939.910522 
	C375.224731,958.067261 402.898651,975.447449 432.498627,989.502869 
	C456.223297,1000.768372 481.034332,1008.900452 507.027588,1012.288269 
	C529.075623,1015.161865 551.307556,1014.322754 573.516418,1012.169128 
	C587.744751,1010.789368 601.522095,1008.059875 614.998718,1003.496216 
	C629.490540,998.588806 642.235840,990.630981 653.994141,980.992859 
	C666.914917,970.401978 678.213684,958.202454 689.007385,945.506287 
	C691.130798,943.008667 693.683289,941.126648 697.000000,940.500000 
"/>
<path fill="none" opacity="1.000000" stroke="#000000" stroke-linecap="round" stroke-linejoin="round" stroke-width="7.000000"
	d="
M526.000000,1679.000000 
	C530.905823,1674.428833 533.457031,1669.896973 530.833862,1662.383423 
	C528.586609,1655.946533 526.381775,1648.553833 530.415710,1641.452148 
	C531.172058,1640.120361 531.013977,1638.162109 530.972351,1636.500732 
	C530.516479,1618.333008 530.470947,1600.136597 529.315674,1582.011719 
	C528.667786,1571.845947 527.773865,1561.645142 526.708008,1551.478149 
	C525.322083,1538.257446 523.565735,1525.110352 521.466125,1512.005371 
	C516.193665,1479.097290 507.612518,1447.183594 491.977875,1417.511719 
	C483.033203,1400.536255 472.317139,1384.785034 460.091064,1369.925049 
	C436.419128,1341.153320 407.568756,1318.646851 375.933716,1299.610107 
	C349.436798,1283.665161 321.132355,1271.365479 292.001587,1260.995483 
	C274.706909,1254.838867 257.304504,1249.055176 239.535065,1244.367065 
	C236.180222,1243.482056 233.426727,1243.514282 230.500000,1245.000000 
"/>
<path fill="none" opacity="1.000000" stroke="#000000" stroke-linecap="round" stroke-linejoin="round" stroke-width="7.000000"
	d="
M759.000000,660.000000 
	C764.243896,653.704529 763.414246,646.832275 761.581604,639.479675 
	C755.725464,615.985535 750.850220,592.252563 744.030701,568.990967 
	C736.872864,544.575439 727.974731,520.789368 719.134216,496.950226 
	C709.010437,469.650696 699.109985,442.234039 693.420654,413.515717 
	C690.987854,401.235504 688.950684,388.939941 687.355164,376.518616 
	C685.730408,363.868835 684.906616,351.208832 684.529663,338.499115 
	C684.218262,328.003418 683.957336,317.498138 684.051331,307.000458 
	C684.178223,292.831940 684.197815,278.635376 685.140381,264.509369 
	C685.975403,251.996231 686.224792,239.377579 688.539124,227.007324 
	C694.707764,194.035233 708.472473,165.493484 737.552917,146.581406 
	C751.421997,137.561829 766.850769,132.453568 783.500183,131.502762 
	C820.597290,129.384201 856.127502,136.513718 890.478210,150.055328 
	C907.326355,156.697144 922.579590,166.315460 937.531189,176.453995 
	C948.203796,183.690964 959.129761,190.557968 970.008789,197.486221 
	C985.886230,207.597839 1003.685669,211.926941 1021.982483,215.100845 
	C1036.668457,217.648361 1051.288330,220.272888 1065.094604,226.800018 
	C1079.237671,233.486420 1090.577881,243.227570 1099.332397,255.618423 
	C1111.387695,272.680908 1120.009399,291.509033 1122.985229,312.502106 
	C1123.713745,317.642151 1124.489380,322.751648 1124.581909,327.998566 
	C1124.851807,343.335968 1125.451416,358.668427 1126.010864,373.999603 
	C1126.998901,401.070251 1119.367188,426.151917 1108.488647,450.494904 
	C1108.246826,451.035858 1107.564331,451.487274 1107.539917,452.001892 
	C1107.104614,461.195953 1099.383057,464.597046 1093.421509,468.890991 
	C1064.178345,489.954102 1034.368286,510.214478 1005.949585,532.435486 
	C974.063171,557.367859 943.332031,583.585205 914.511292,612.011475 
	C891.169006,635.034241 870.530640,660.350037 851.528381,687.020203 
	C847.609253,692.520752 849.323425,698.600098 850.543030,704.491089 
	C850.934387,706.381409 851.833374,708.166626 852.500061,710.000000 
"/>
<path fill="none" opacity="1.000000" stroke="#000000" stroke-linecap="round" stroke-linejoin="round" stroke-width="6.000000"
	d="
M1404.000000,1512.000000 
	C1399.204834,1513.982056 1398.343506,1518.883423 1396.609375,1522.798462 
	C1383.699219,1551.945312 1369.029663,1580.173462 1353.563721,1608.035400 
	C1332.649170,1645.713379 1308.655396,1681.338257 1282.388062,1715.413696 
	C1270.265015,1731.140259 1257.558472,1746.626221 1240.469849,1757.452393 
	C1219.745605,1770.581787 1196.838501,1776.267212 1172.512939,1774.337158 
	C1149.172852,1772.485229 1128.919922,1762.742798 1112.023926,1746.475220 
	C1091.074341,1726.305054 1071.597412,1704.803223 1055.562744,1680.458740 
	C1042.882568,1661.207031 1038.748657,1639.864014 1041.161865,1616.990723 
	C1042.396484,1605.288330 1044.705322,1593.992554 1048.917725,1582.968628 
	C1054.006104,1569.652710 1061.594971,1557.890991 1070.560425,1547.049927 
	C1093.439453,1519.384155 1122.068604,1499.611694 1154.940308,1485.362305 
	C1176.879395,1475.852295 1199.503052,1468.533691 1222.564209,1462.756226 
	C1235.625977,1459.484009 1249.027832,1457.178223 1262.473999,1455.312256 
	C1275.971069,1453.439209 1289.467896,1451.607910 1302.995483,1449.962402 
	C1312.352539,1448.824219 1321.690186,1447.476440 1330.991089,1445.945557 
	C1336.440918,1445.048340 1338.997192,1441.955933 1338.750000,1437.500000 
"/>
<path fill="none" opacity="1.000000" stroke="#000000" stroke-linecap="round" stroke-linejoin="round" stroke-width="8.000000"
	d="
M188.000000,1207.500000 
	C190.136993,1213.454346 190.516251,1219.990112 193.940903,1225.536499 
	C194.072998,1225.750366 194.361618,1226.275269 194.101273,1227.034668 
	C191.453415,1234.757812 193.624100,1242.163208 196.019806,1249.493530 
	C197.230240,1253.197266 196.885315,1257.362183 195.724396,1260.394531 
	C192.950974,1267.638916 194.863297,1274.651733 195.899261,1281.439087 
	C196.435471,1284.952148 194.850204,1287.648804 195.273987,1291.028320 
	C199.898621,1327.909790 209.212448,1363.448975 222.857941,1398.056030 
	C237.592407,1435.424805 257.457520,1469.567505 282.988464,1500.509521 
	C310.359375,1533.681519 343.237549,1560.447876 378.961243,1584.058716 
	C407.459839,1602.894165 436.959473,1620.196899 464.552185,1640.428833 
	C477.690247,1650.062134 490.635803,1659.898438 502.996185,1670.504395 
	C505.600372,1672.738892 508.612427,1673.617676 512.000427,1673.513672 
	C514.524536,1673.436157 516.710205,1674.468750 519.082214,1675.250610 
	C527.385925,1677.988159 527.840332,1684.941650 528.942627,1691.509644 
	C531.722656,1708.074707 530.788818,1724.459839 527.723206,1741.041260 
	C524.552856,1758.189087 523.135315,1775.662720 521.009949,1793.001221 
	C519.294495,1806.995239 517.545105,1820.986816 516.027100,1835.002930 
	C513.428955,1858.992310 511.024506,1883.002563 508.491089,1906.999023 
	C506.871765,1922.337402 505.343231,1937.688477 503.444763,1952.993164 
	C501.896484,1965.474976 500.680237,1977.983887 499.338013,1990.482544 
	C498.979492,1993.821411 498.608093,1997.144165 498.478821,2000.500000 
	C497.166656,2000.500000 495.833344,2000.500000 494.500000,2000.500000 
"/>
<path fill="none" opacity="1.000000" stroke="#000000" stroke-linecap="round" stroke-linejoin="round" stroke-width="8.000000"
	d="
M1351.500000,588.000000 
	C1340.856934,586.320068 1330.193359,587.022217 1319.496338,587.395264 
	C1310.992676,587.691833 1302.495850,587.975281 1293.997437,588.454346 
	C1281.138916,589.179199 1268.316772,590.266052 1255.484131,591.304504 
	C1246.824219,592.005249 1238.139771,592.770508 1229.520996,593.695496 
	C1220.171143,594.698914 1210.811890,596.119324 1201.473877,597.291504 
	C1189.278687,598.822083 1177.134766,600.627319 1165.007568,602.547974 
	C1152.610962,604.511353 1140.308594,607.061401 1127.967529,609.323059 
	C1105.887207,613.369568 1084.135986,618.717712 1062.532104,624.617493 
	C1041.586792,630.337524 1020.954895,637.120605 1000.440674,644.331238 
	C978.089844,652.187500 956.225098,661.132629 934.487732,670.471375 
	C930.444092,672.208618 927.074951,674.408264 926.000000,679.000000 
"/>
<path fill="none" opacity="1.000000" stroke="#000000" stroke-linecap="round" stroke-linejoin="round" stroke-width="6.000000"
	d="
M1409.000000,1462.000000 
	C1414.357300,1469.083008 1412.009399,1476.998657 1410.839111,1484.474854 
	C1409.543457,1492.751709 1407.017090,1500.837646 1404.981079,1508.995239 
	C1404.681274,1510.195923 1404.301880,1511.186157 1404.944092,1512.526733 
	C1407.113525,1517.056763 1406.111206,1522.000366 1405.339233,1526.472290 
	C1401.875122,1546.536011 1397.921021,1566.517334 1393.966553,1586.493408 
	C1391.649780,1598.196289 1388.749390,1609.787109 1386.587524,1621.516113 
	C1385.128540,1629.431519 1384.782471,1637.547974 1383.435425,1645.489014 
	C1381.270752,1658.250610 1380.576050,1671.144775 1379.878540,1684.006958 
	C1379.202393,1696.474854 1379.316406,1709.005859 1379.591431,1721.498047 
	C1379.782593,1730.175049 1380.379639,1738.898071 1381.603882,1747.485229 
	C1383.563843,1761.232544 1385.980835,1774.933838 1390.999023,1788.000366 
	C1401.554199,1815.484375 1415.676025,1840.789185 1437.571045,1860.922729 
	C1452.994385,1875.105469 1471.547485,1882.679443 1492.491211,1884.596069 
	C1498.334717,1885.130737 1504.148560,1885.536011 1509.999878,1885.485474 
	C1514.848999,1885.443726 1519.593262,1884.317139 1524.501709,1884.397095 
	C1532.030640,1884.520020 1539.606201,1883.335693 1546.940430,1882.135742 
	C1553.451294,1881.070068 1560.057739,1879.052612 1566.512207,1877.039062 
	C1572.956787,1875.028442 1579.626343,1873.682983 1585.961792,1871.394409 
	C1591.478394,1869.401489 1596.767944,1866.693481 1601.981201,1863.964111 
	C1618.203247,1855.470825 1634.252686,1846.714844 1648.528076,1835.034302 
	C1664.048584,1822.334961 1675.669556,1807.166626 1682.690430,1788.070068 
	C1689.808228,1768.710083 1693.446899,1749.023193 1692.990112,1728.500244 
	C1692.585571,1710.325562 1687.877319,1693.047974 1682.017944,1675.993774 
	C1670.859863,1643.516724 1653.513916,1614.577271 1631.992676,1588.005859 
	C1628.044189,1583.130859 1623.178345,1578.791016 1620.175781,1573.402100 
	C1614.427246,1563.085205 1604.416748,1558.795288 1594.993652,1553.511353 
	C1572.447021,1540.868652 1550.995361,1526.520386 1530.032227,1511.455200 
	C1507.448120,1495.225098 1485.129272,1478.633545 1463.926636,1460.586182 
	C1461.357544,1458.399536 1460.316528,1456.042358 1460.000000,1453.000000 
"/>
<path fill="none" opacity="1.000000" stroke="#000000" stroke-linecap="round" stroke-linejoin="round" stroke-width="6.000000"
	d="
M1470.500000,1387.000000 
	C1473.621460,1387.146118 1476.226074,1386.491821 1479.077881,1384.618530 
	C1511.698853,1363.191406 1545.346558,1343.446045 1580.568237,1326.643066 
	C1610.557861,1312.335938 1641.418945,1299.977905 1673.512451,1291.044678 
	C1685.445679,1287.723022 1697.618652,1285.679443 1709.984863,1284.358521 
	C1724.507690,1282.806885 1739.073975,1282.797607 1753.481201,1283.777222 
	C1770.754028,1284.951660 1788.321167,1286.154297 1804.482056,1293.539307 
	C1819.096802,1300.217773 1830.836914,1310.656128 1841.527344,1322.475342 
	C1860.755249,1343.733521 1873.000977,1368.598633 1878.292847,1396.539185 
	C1881.808960,1415.103638 1882.469727,1434.004639 1880.666870,1453.015869 
	C1879.224731,1468.221680 1876.078003,1482.784180 1870.584229,1497.032471 
	C1861.393799,1520.868042 1845.884888,1539.489380 1825.530029,1554.540527 
	C1806.888672,1568.324707 1786.063599,1576.791382 1763.507202,1581.534424 
	C1740.176270,1586.440186 1716.917725,1585.234863 1693.484131,1582.119507 
	C1669.605591,1578.944946 1646.549927,1572.554077 1623.528931,1565.899780 
	C1620.904053,1565.141235 1618.551636,1564.892578 1616.000000,1565.500000 
"/>
<path fill="none" opacity="1.000000" stroke="#000000" stroke-linecap="round" stroke-linejoin="round" stroke-width="7.000000"
	d="
M958.500000,282.750000 
	C952.745972,289.589172 949.284668,297.808044 945.069031,305.537628 
	C926.693359,339.230133 910.200439,373.846283 896.062683,409.524841 
	C879.792603,450.584473 863.348328,491.596039 848.238220,533.086731 
	C838.792908,559.022400 831.062683,585.617126 824.449219,612.487488 
	C819.879883,631.052490 814.435974,649.408630 810.154236,668.035461 
	C807.720032,678.624939 803.652954,688.924316 803.500000,700.000000 
"/>
<path fill="none" opacity="1.000000" stroke="#000000" stroke-linecap="round" stroke-linejoin="round" stroke-width="5.000000"
	d="
M516.500000,1673.000000 
	C515.019409,1664.676514 510.792480,1657.580811 506.526459,1650.484131 
	C505.167755,1648.223755 504.528992,1645.957153 504.821442,1642.982422 
	C505.485809,1636.225464 503.231018,1630.286865 497.517426,1625.976929 
	C493.448364,1622.907715 491.604584,1618.072021 489.128845,1613.923096 
	C470.908112,1583.388428 450.144470,1554.661133 428.569244,1526.447021 
	C410.860382,1503.289062 391.740997,1481.348633 372.450256,1459.543945 
	C365.425812,1451.604126 357.897797,1444.103760 350.487762,1436.511963 
	C329.600159,1415.111816 309.801971,1392.780884 290.897888,1369.583252 
	C262.961365,1335.301636 236.921768,1299.641968 211.498947,1263.500732 
	C210.674149,1262.328125 209.639114,1261.258789 209.034027,1259.983887 
	C206.608017,1254.871582 202.784546,1251.989868 197.000000,1252.000000 
"/>
<path fill="none" opacity="1.000000" stroke="#000000" stroke-linecap="round" stroke-linejoin="round" stroke-width="8.000000"
	d="
M828.500000,737.999939 
	C822.333313,739.666626 816.158020,741.302856 810.011108,743.039246 
	C809.262878,743.250610 808.457886,743.865723 808.035461,744.522766 
	C805.991577,747.701965 802.799011,749.017578 799.552368,750.606995 
	C794.495239,753.082764 791.122864,757.442749 790.157654,763.027222 
	C789.840393,764.862793 789.204041,766.099976 787.968628,766.954651 
	C783.610596,769.969299 781.643738,773.865845 783.568359,778.974243 
	C784.565247,781.620483 783.863403,784.262878 783.319885,786.455322 
	C780.703308,797.010315 780.741150,807.921509 778.556946,818.511719 
	C778.371704,819.409912 778.339172,820.436646 778.939148,821.533264 
	C783.534668,829.932495 783.130798,839.455994 784.337036,848.521667 
	C786.277710,863.107544 787.690002,877.809570 788.356262,892.506531 
	C789.055115,907.921753 790.479187,923.232056 792.541504,938.494385 
	C793.898865,948.539001 795.691406,958.533936 797.241089,968.540100 
	C798.632324,977.523254 800.333557,986.474304 801.510620,995.498596 
	C804.435303,1017.921875 813.754639,1037.227173 828.924561,1054.067993 
	C848.617432,1075.929810 873.937805,1088.072021 901.001099,1097.496948 
	C917.754761,1103.331299 934.782837,1108.442627 952.049744,1112.275879 
	C970.922791,1116.465454 990.078918,1119.531250 1009.496216,1120.570312 
	C1023.830322,1121.337402 1038.185181,1122.071167 1052.493042,1121.359253 
	C1069.378662,1120.519165 1086.233887,1119.352661 1103.034668,1116.720947 
	C1123.938477,1113.446411 1144.154663,1107.917236 1163.957764,1100.881104 
	C1184.088013,1093.728760 1203.537231,1084.793091 1222.960693,1075.914185 
	C1238.207520,1068.944458 1253.896729,1062.795532 1268.001587,1053.502319 
	C1277.948853,1046.948486 1287.379150,1039.714478 1295.966064,1031.464722 
	C1303.276245,1024.441528 1311.111694,1017.889954 1316.996094,1009.497253 
	C1328.016846,993.779053 1326.825928,975.405640 1314.597900,960.420166 
	C1300.382446,942.999512 1283.103638,929.057190 1265.442627,915.575195 
	C1231.244995,889.469666 1196.561157,864.014709 1160.501221,840.498047 
	C1139.075562,826.525146 1116.837280,813.920837 1094.428955,801.629517 
	C1091.143555,799.827393 1089.054565,797.612122 1087.500000,794.500000 
"/>
<path fill="none" opacity="1.000000" stroke="#000000" stroke-linecap="round" stroke-linejoin="round" stroke-width="7.000000"
	d="
M414.500000,357.500000 
	C414.818573,358.339233 413.744232,359.554352 415.491760,360.030243 
	C446.682953,368.524231 475.873047,381.894928 503.929382,397.625946 
	C528.538391,411.424042 551.448242,427.839417 573.566284,445.416595 
	C597.386414,464.346344 619.611267,484.985992 640.402283,507.091888 
	C668.851868,537.340820 693.992432,570.223572 716.102539,605.435608 
	C722.119629,615.018372 726.711670,625.529907 734.411682,634.079590 
	C735.704773,635.515381 735.776672,638.021057 736.511108,639.995850 
	C738.416748,645.120300 741.905518,648.356201 747.500000,649.000000 
"/>
<path fill="none" opacity="1.000000" stroke="#000000" stroke-linecap="round" stroke-linejoin="round" stroke-width="6.000000"
	d="
M1514.500000,1051.500000 
	C1510.010132,1058.583618 1508.224243,1066.748779 1505.584839,1074.528809 
	C1498.092651,1096.613281 1490.778442,1118.763916 1483.803955,1141.016968 
	C1474.300171,1171.340576 1465.305298,1201.824341 1457.051636,1232.513916 
	C1452.506470,1249.414307 1448.097046,1266.358643 1444.483765,1283.496582 
	C1441.563721,1297.346802 1438.285889,1311.125366 1435.605713,1325.020386 
	C1434.536743,1330.562378 1431.298584,1335.176270 1430.065674,1340.515137 
	C1428.463379,1347.453003 1427.458008,1354.526855 1425.956299,1361.490601 
	C1424.945557,1366.177734 1422.776489,1370.341919 1419.000000,1373.500000 
"/>
<path fill="none" opacity="1.000000" stroke="#000000" stroke-linecap="round" stroke-linejoin="round" stroke-width="8.000000"
	d="
M1036.500000,645.500000 
	C1034.679199,648.984924 1030.860229,648.413879 1027.962402,649.388306 
	C1012.876343,654.461304 997.614136,659.009094 982.514587,664.043823 
	C967.115112,669.178772 951.844055,674.697998 936.483398,679.951477 
	C934.940247,680.479309 932.986511,680.884949 931.529663,680.409119 
	C923.053528,677.640686 916.369385,682.508545 910.730225,686.802368 
	C903.866821,692.028564 896.067383,693.689697 888.490479,696.474060 
	C886.218933,697.308838 883.833313,697.833313 881.500000,698.500000 
"/>
<path fill="none" opacity="1.000000" stroke="#000000" stroke-linecap="round" stroke-linejoin="round" stroke-width="7.000000"
	d="
M843.500000,715.500000 
	C840.166687,717.166687 836.868347,718.909607 833.483337,720.463684 
	C832.067749,721.113525 831.424683,722.194702 831.016357,723.505066 
	C830.451294,725.318176 829.937134,727.152222 829.510986,729.002502 
	C827.712891,736.809509 830.668884,742.866272 837.999573,746.500854 
	C839.502319,747.246033 840.928162,746.860657 842.512695,746.568970 
	C848.634705,745.441711 854.209656,745.864197 858.588257,751.430603 
	C861.718567,755.410095 865.922119,758.015930 871.504395,757.552673 
	C875.366882,757.232117 878.174622,760.147888 881.511169,761.471802 
	C889.036011,764.457825 893.151245,771.584656 899.486145,776.019775 
	C927.189758,795.415588 954.770203,814.955261 980.541748,836.951111 
	C1010.107544,862.185364 1033.989990,891.649902 1049.468628,927.513550 
	C1058.525146,948.497192 1064.529419,970.493774 1070.565308,992.482056 
	C1073.253662,1002.275330 1076.376587,1011.926208 1078.269043,1021.949219 
	C1078.577271,1023.582214 1078.083008,1025.027832 1078.500000,1026.500000 
"/>
<path fill="none" opacity="1.000000" stroke="#000000" stroke-linecap="round" stroke-linejoin="round" stroke-width="5.000000"
	d="
M1408.000000,1280.500000 
	C1408.333374,1291.833374 1408.154907,1303.211304 1409.139526,1314.487793 
	C1410.187378,1326.486328 1409.257935,1338.678833 1411.358643,1350.435913 
	C1412.643677,1357.629272 1412.032349,1365.871582 1417.556885,1371.948242 
	C1418.645142,1373.145386 1418.670532,1374.319702 1418.452393,1375.491211 
	C1417.463867,1380.803467 1417.911987,1386.307861 1416.052368,1391.518677 
	C1414.973755,1394.540894 1415.139893,1397.669678 1417.000000,1400.500000 
"/>
<path fill="none" opacity="1.000000" stroke="#000000" stroke-linecap="round" stroke-linejoin="round" stroke-width="6.000000"
	d="
M1428.000000,1455.000000 
	C1436.602295,1456.702393 1443.771240,1464.751953 1446.175659,1473.451416 
	C1447.903931,1479.704468 1449.025269,1486.081787 1452.095825,1492.202759 
	C1455.029907,1498.051880 1455.707397,1505.228760 1458.479126,1511.509277 
	C1467.368164,1531.651245 1476.318604,1551.768433 1484.966309,1572.014404 
	C1499.908813,1606.996826 1514.403687,1642.166504 1528.509644,1677.496094 
	C1540.295654,1707.015015 1552.132568,1736.513916 1564.066895,1765.972900 
	C1564.988770,1768.248535 1564.414551,1770.327026 1564.500000,1772.500000 
"/>
<path fill="none" opacity="1.000000" stroke="#000000" stroke-linecap="round" stroke-linejoin="round" stroke-width="6.000000"
	d="
M1122.500000,1262.500000 
	C1130.252441,1263.474243 1136.598022,1267.963257 1143.469604,1271.067383 
	C1159.232300,1278.187988 1175.072510,1285.200806 1190.450684,1293.095947 
	C1223.507812,1310.067261 1256.447021,1327.243286 1288.071777,1346.884399 
	C1316.013428,1364.237915 1343.658447,1381.993042 1370.523804,1400.966309 
	C1371.838745,1401.895020 1373.500000,1402.333374 1375.000000,1403.000000 
"/>
<path fill="none" opacity="1.000000" stroke="#000000" stroke-linecap="round" stroke-linejoin="round" stroke-width="6.000000"
	d="
M1038.000000,1285.500000 
	C1039.486694,1274.366089 1040.689453,1263.241699 1044.414551,1252.470459 
	C1054.201416,1224.171265 1070.871826,1201.522217 1096.436890,1185.400024 
	C1110.128418,1176.765625 1124.110474,1169.156982 1139.998413,1165.493042 
	C1155.810425,1161.846558 1171.592896,1159.690186 1188.024658,1161.238037 
	C1200.855713,1162.446411 1213.471558,1164.176880 1225.448364,1168.638550 
	C1239.898682,1174.021606 1252.381348,1182.892212 1264.015991,1192.981567 
	C1288.101196,1213.867432 1307.989014,1238.104980 1323.541504,1265.976807 
	C1339.688599,1294.914185 1356.024658,1323.748779 1372.618774,1352.431274 
	C1375.976196,1358.234375 1376.084839,1365.158691 1380.412964,1370.569580 
	C1385.451416,1376.868774 1387.689575,1384.742676 1391.203003,1391.900391 
	C1395.140991,1399.923218 1399.977905,1407.511108 1403.000000,1416.000000 
"/>
<path fill="none" opacity="1.000000" stroke="#000000" stroke-linecap="round" stroke-linejoin="round" stroke-width="7.000000"
	d="
M694.500000,693.000000 
	C690.311401,696.837769 685.130005,696.946533 680.004639,696.452209 
	C658.675964,694.394836 637.371521,694.684570 615.992554,695.865051 
	C599.153931,696.794861 582.491760,698.859680 566.023804,702.120300 
	C544.046387,706.471741 522.503174,712.609314 501.502502,720.506653 
	C475.367310,730.334839 450.894684,743.249817 428.499603,759.999451 
	C408.934357,774.632629 390.055786,790.116150 371.498566,805.998352 
	C369.342316,807.843811 367.407593,810.179016 364.927307,811.345459 
	C362.757385,812.366028 363.459961,814.245789 362.500000,815.500000 
"/>
<path fill="none" opacity="1.000000" stroke="#000000" stroke-linecap="round" stroke-linejoin="round" stroke-width="5.000000"
	d="
M1397.500000,1471.500000 
	C1392.313599,1472.764526 1387.325439,1474.354126 1383.990967,1478.993530 
	C1381.214966,1482.855835 1377.178223,1484.848877 1373.157471,1487.262329 
	C1367.692017,1490.542603 1363.307617,1495.638428 1358.504883,1500.005371 
	C1345.323975,1511.989624 1332.334473,1524.190552 1318.968262,1535.963989 
	C1279.728149,1570.528687 1240.191406,1604.739746 1199.054565,1637.069458 
	C1183.054077,1649.644653 1167.659424,1662.991333 1152.012329,1676.014771 
	C1150.648804,1677.149902 1149.575562,1678.702515 1147.500000,1678.500000 
"/>
<path fill="none" opacity="1.000000" stroke="#000000" stroke-linecap="round" stroke-linejoin="round" stroke-width="6.000000"
	d="
M1036.500000,1285.500000 
	C1040.332275,1285.900391 1038.453003,1288.909546 1038.385986,1290.495117 
	C1037.762329,1305.241943 1041.457642,1319.041382 1046.991699,1332.503418 
	C1053.941650,1349.409668 1064.600952,1363.753296 1077.522583,1376.477051 
	C1090.466919,1389.223145 1104.939575,1400.031250 1121.035645,1408.431763 
	C1140.123291,1418.393433 1160.204712,1425.571533 1181.478149,1429.615112 
	C1201.518433,1433.424194 1221.711426,1434.332031 1241.996826,1435.084351 
	C1261.829224,1435.819824 1281.658203,1436.580566 1301.491943,1437.241089 
	C1308.979126,1437.490479 1316.503906,1438.063110 1323.997559,1437.891235 
	C1329.238525,1437.770996 1333.787354,1438.638062 1337.500000,1442.500000 
"/>
<path fill="none" opacity="1.000000" stroke="#000000" stroke-linecap="round" stroke-linejoin="round" stroke-width="5.000000"
	d="
M895.000061,482.000031 
	C889.833374,494.166687 884.453857,506.248230 879.547241,518.518860 
	C871.043823,539.784180 862.906616,561.195679 854.481995,582.492859 
	C843.285889,610.796265 832.773193,639.351868 822.414185,667.968933 
	C821.036804,671.774109 819.508850,675.466431 819.000000,679.500000 
"/>
<path fill="none" opacity="1.000000" stroke="#000000" stroke-linecap="round" stroke-linejoin="round" stroke-width="4.000000"
	d="
M639.500000,448.500000 
	C642.868958,456.443176 647.907532,463.458252 652.010010,470.994537 
	C659.641663,485.013641 667.322754,499.005829 675.002380,512.998718 
	C687.993713,536.670105 700.993286,560.336975 714.002625,583.998535 
	C721.154541,597.006653 728.366089,609.982178 735.462402,623.020447 
	C736.457825,624.849243 736.782166,627.069153 739.000000,628.000000 
"/>
<path fill="none" opacity="1.000000" stroke="#000000" stroke-linecap="round" stroke-linejoin="round" stroke-width="6.000000"
	d="
M850.000000,713.500000 
	C849.990601,717.843018 851.775757,721.674866 853.520813,725.490479 
	C855.257141,729.286865 858.860229,730.451050 862.499268,731.502563 
	C882.947266,737.411255 903.246155,743.784241 922.990845,751.772583 
	C944.856323,760.619080 965.857117,771.208740 986.009155,783.484985 
	C995.455627,789.239563 1005.000000,794.833374 1014.500000,800.500000 
"/>
<path fill="none" opacity="1.000000" stroke="#000000" stroke-linecap="round" stroke-linejoin="round" stroke-width="5.000000"
	d="
M466.500000,1445.500000 
	C474.882050,1460.028809 481.275787,1475.512207 487.371765,1491.050293 
	C496.016846,1513.085571 502.100739,1535.963867 507.481781,1559.004272 
	C511.408112,1575.815918 515.311035,1592.636475 518.836060,1609.534180 
	C519.333923,1611.920898 520.614563,1614.952881 518.510254,1617.508423 
	C518.428589,1617.607788 518.471619,1617.839111 518.504089,1617.999146 
	C520.431030,1627.516479 519.689209,1637.907837 527.500000,1645.500000 
"/>
<path fill="none" opacity="1.000000" stroke="#000000" stroke-linecap="round" stroke-linejoin="round" stroke-width="5.000000"
	d="
M612.500000,521.500000 
	C631.229004,538.280884 648.908081,556.069397 665.577820,574.931213 
	C685.956238,597.989502 704.629456,622.273254 721.555725,647.963318 
	C731.204163,662.607483 740.149902,677.677185 749.500000,692.500000 
"/>
<path fill="none" opacity="1.000000" stroke="#000000" stroke-linecap="round" stroke-linejoin="round" stroke-width="5.000000"
	d="
M326.499969,1506.500000 
	C339.333313,1516.000000 352.221283,1525.427246 364.987152,1535.017090 
	C384.202942,1549.451660 403.395996,1563.918213 422.475067,1578.532593 
	C432.910583,1586.526001 443.214081,1594.686890 453.039246,1603.456055 
	C465.026581,1614.155151 476.440216,1625.394409 486.988770,1637.509766 
	C488.474487,1639.216431 490.193542,1640.207520 492.500000,1640.000000 
"/>
<path fill="none" opacity="1.000000" stroke="#000000" stroke-linecap="round" stroke-linejoin="round" stroke-width="5.000000"
	d="
M202.000000,1264.000000 
	C205.762436,1268.292603 205.896027,1273.983276 207.352600,1279.042480 
	C213.788010,1301.395264 223.201202,1322.515625 233.007568,1343.496460 
	C245.312729,1369.823120 259.627838,1395.063599 274.521484,1419.987183 
	C274.682495,1420.256714 275.166687,1420.333252 275.500031,1420.500000 
"/>
<path fill="none" opacity="1.000000" stroke="#000000" stroke-linecap="round" stroke-linejoin="round" stroke-width="4.000000"
	d="
M199.000000,1286.000000 
	C202.945831,1288.288330 202.115585,1292.641724 202.860504,1296.030640 
	C207.630463,1317.730957 215.037125,1338.582764 223.632538,1358.944092 
	C235.347717,1386.695557 248.485107,1413.818970 262.500000,1440.500000 
"/>
<path fill="none" opacity="1.000000" stroke="#000000" stroke-linecap="round" stroke-linejoin="round" stroke-width="6.000000"
	d="
M1815.500000,1401.500000 
	C1813.959961,1402.466675 1812.242554,1402.506470 1810.500000,1402.505859 
	C1785.000000,1402.497192 1759.492065,1402.887207 1734.002808,1402.362183 
	C1717.330200,1402.018799 1700.666382,1402.188599 1683.999634,1402.038208 
	C1677.001709,1401.975098 1670.000244,1402.342651 1662.999878,1402.492065 
	C1661.613525,1402.521606 1660.121216,1402.318115 1660.500000,1404.500000 
"/>
<path fill="none" opacity="1.000000" stroke="#000000" stroke-linecap="round" stroke-linejoin="round" stroke-width="6.000000"
	d="
M566.500000,581.500000 
	C591.341370,593.504211 614.987366,607.628906 638.511536,621.981079 
	C655.572937,632.390320 672.497314,643.012268 688.465393,655.045898 
	C698.955383,662.951294 708.543030,671.908203 716.927673,682.059692 
	C717.637695,682.919312 719.144775,683.842712 718.500000,685.500000 
"/>
<path fill="none" opacity="1.000000" stroke="#000000" stroke-linecap="round" stroke-linejoin="round" stroke-width="6.000000"
	d="
M1009.500000,832.500000 
	C987.447876,814.262878 966.292542,794.859863 941.978271,779.534485 
	C918.649963,764.830627 894.233643,752.328247 868.058411,743.330017 
	C863.834595,741.877930 861.186707,743.522522 858.000000,745.000000 
"/>
<path fill="none" opacity="1.000000" stroke="#000000" stroke-linecap="round" stroke-linejoin="round" stroke-width="5.000000"
	d="
M1048.500000,700.500000 
	C1036.535889,699.139709 1024.521484,698.986572 1012.500000,698.998718 
	C1005.666687,699.005676 998.817200,698.697998 992.003296,699.061707 
	C976.992676,699.862915 961.992493,700.901184 947.003052,702.039795 
	C938.985962,702.648743 930.981934,703.524963 923.005127,704.540527 
	C915.314575,705.519714 907.664307,706.818176 900.005127,708.032349 
	C899.465820,708.117859 899.000000,708.666626 898.500000,709.000000 
"/>
<path fill="none" opacity="1.000000" stroke="#000000" stroke-linecap="round" stroke-linejoin="round" stroke-width="5.000000"
	d="
M372.500000,1498.500000 
	C393.413422,1514.985107 412.194946,1533.796143 430.382874,1553.110352 
	C453.547363,1577.709229 473.492950,1604.901611 491.575500,1633.452148 
	C492.214905,1634.461670 492.894165,1635.570557 492.911835,1636.501709 
	C493.052155,1643.885132 498.323975,1645.376953 504.000000,1646.500000 
"/>
<path fill="none" opacity="1.000000" stroke="#000000" stroke-linecap="round" stroke-linejoin="round" stroke-width="6.000000"
	d="
M1660.000000,1402.750000 
	C1651.828247,1403.262573 1643.639160,1403.214355 1635.483887,1404.387573 
	C1630.225586,1405.144287 1624.832764,1404.908813 1619.486450,1405.326416 
	C1596.928589,1407.088135 1574.448853,1409.494019 1552.001099,1412.258423 
	C1538.161987,1413.962646 1524.325073,1415.687012 1510.502197,1417.516846 
	C1495.325806,1419.526001 1480.193359,1421.902466 1464.986328,1423.630005 
	C1459.186401,1424.288940 1452.899658,1426.920288 1447.500000,1422.000000 
"/>
<path fill="none" opacity="1.000000" stroke="#000000" stroke-linecap="round" stroke-linejoin="round" stroke-width="6.000000"
	d="
M817.500000,472.500000 
	C816.489624,481.547852 814.764832,490.508545 813.693176,499.522980 
	C812.764526,507.334534 811.873596,515.175659 810.921143,522.990417 
	C809.803406,532.161499 809.053528,541.370178 807.713562,550.531250 
	C806.702576,557.443359 806.284546,564.511780 805.491699,571.499084 
	C804.526733,580.003052 803.093262,588.476990 802.610168,597.006226 
	C802.088440,606.217957 800.681824,615.321350 800.024719,624.501770 
	C799.308228,634.512756 797.500122,644.422485 797.448608,654.499756 
	C797.428101,658.501343 796.833313,662.500000 796.500000,666.500000 
"/>
<path fill="none" opacity="1.000000" stroke="#000000" stroke-linecap="round" stroke-linejoin="round" stroke-width="6.000000"
	d="
M811.500000,743.500000 
	C815.275635,751.081482 821.214722,757.140991 826.108154,763.921936 
	C841.284607,784.952271 854.387329,807.099731 864.507874,830.996643 
	C871.714478,848.013245 878.147461,865.308533 883.482544,883.005249 
	C883.620728,883.463623 883.500000,884.000000 883.500000,884.500000 
"/>
<path fill="none" opacity="1.000000" stroke="#000000" stroke-linecap="round" stroke-linejoin="round" stroke-width="8.000000"
	d="
M1065.500000,724.500000 
	C1055.000000,723.333374 1044.495483,722.205383 1034.001221,720.989380 
	C1022.847168,719.697021 1011.670593,718.598022 1000.514099,717.371582 
	C979.720398,715.085754 958.876343,713.888672 937.998962,713.025818 
	C933.510986,712.840332 929.295837,714.010803 924.918823,715.201782 
	C920.108276,716.510620 914.666565,715.480408 909.500000,715.505127 
	C903.377136,715.534485 897.467224,713.965820 891.519592,712.891479 
	C886.733765,712.027039 882.642273,709.269714 879.000000,706.000000 
"/>
<path fill="none" opacity="1.000000" stroke="#000000" stroke-linecap="round" stroke-linejoin="round" stroke-width="5.000000"
	d="
M754.500000,519.500000 
	C754.418091,525.301270 756.210571,530.827026 757.047119,536.493042 
	C758.895874,549.015381 761.037903,561.494080 762.990051,574.001526 
	C765.200134,588.161499 767.437012,602.318481 769.469910,616.504333 
	C771.373413,629.787903 773.138672,643.094849 774.000000,656.500000 
"/>
<path fill="none" opacity="1.000000" stroke="#000000" stroke-linecap="round" stroke-linejoin="round" stroke-width="5.000000"
	d="
M210.000000,1236.500000 
	C208.272614,1241.520264 211.134247,1245.131104 214.045166,1248.460449 
	C220.567398,1255.920166 227.061981,1263.437012 234.049301,1270.450806 
	C257.920563,1294.412476 282.146790,1318.021484 305.926483,1342.072754 
	C315.209381,1351.461548 323.666687,1361.666626 332.500031,1371.500000 
"/>
<path fill="none" opacity="1.000000" stroke="#000000" stroke-linecap="round" stroke-linejoin="round" stroke-width="5.000000"
	d="
M384.500000,1348.500000 
	C366.264984,1328.847900 345.773285,1311.878052 323.512970,1296.980591 
	C313.117828,1290.023804 302.369446,1283.637329 291.448059,1277.593872 
	C281.022461,1271.824829 270.218903,1266.724487 259.467377,1261.567993 
	C256.346649,1260.071411 252.833328,1258.686890 249.500000,1261.500000 
"/>
<path fill="none" opacity="1.000000" stroke="#000000" stroke-linecap="round" stroke-linejoin="round" stroke-width="4.000000"
	d="
M1581.000000,1457.000000 
	C1577.814819,1455.512085 1574.381226,1455.778931 1571.005615,1455.443848 
	C1561.949341,1454.544922 1553.067871,1452.471436 1544.014038,1451.383179 
	C1529.628052,1449.654053 1515.333984,1447.162842 1500.999878,1445.000977 
	C1485.500488,1442.663208 1470.000610,1440.329590 1454.499512,1438.003418 
	C1451.506226,1437.554321 1448.823730,1438.945679 1446.000000,1439.500000 
"/>
<path fill="none" opacity="1.000000" stroke="#000000" stroke-linecap="round" stroke-linejoin="round" stroke-width="4.000000"
	d="
M1431.000000,1464.500000 
	C1435.166626,1477.166626 1439.233032,1489.867432 1443.519897,1502.493286 
	C1454.009644,1533.387329 1463.946289,1564.473267 1475.473877,1595.009888 
	C1476.010986,1596.432861 1476.166626,1598.000000 1476.500000,1599.500000 
"/>
<path fill="none" opacity="1.000000" stroke="#000000" stroke-linecap="round" stroke-linejoin="round" stroke-width="5.000000"
	d="
M1596.500000,1336.500000 
	C1568.537964,1348.025635 1541.512085,1361.487915 1515.008545,1376.015503 
	C1499.961548,1384.263184 1485.046997,1392.753052 1469.973877,1400.952026 
	C1464.861206,1403.733154 1461.114258,1408.194092 1456.277588,1411.416626 
	C1451.479614,1414.613403 1446.235840,1416.837646 1441.471924,1419.957153 
	C1439.304077,1421.376465 1436.650879,1422.071899 1434.534058,1423.548584 
	C1428.025269,1428.089478 1420.683350,1426.933472 1413.500000,1427.000000 
"/>
<path fill="none" opacity="1.000000" stroke="#000000" stroke-linecap="round" stroke-linejoin="round" stroke-width="6.000000"
	d="
M843.000000,752.500000 
	C846.601624,762.099548 854.152710,768.986206 860.092468,776.930847 
	C880.847778,804.691650 898.652588,834.228088 914.516602,864.991455 
	C918.070374,871.882935 921.833313,878.666687 925.500000,885.500000 
"/>
<path fill="none" opacity="1.000000" stroke="#000000" stroke-linecap="round" stroke-linejoin="round" stroke-width="4.000000"
	d="
M1595.500000,1360.500000 
	C1588.413208,1362.091187 1581.818604,1365.123047 1574.998291,1367.494873 
	C1549.289673,1376.435791 1523.709717,1385.723022 1498.505371,1396.013184 
	C1490.137817,1399.429321 1481.784790,1402.890503 1473.523804,1406.553711 
	C1470.193115,1408.030518 1466.964111,1408.474609 1463.500000,1407.500000 
"/>
<path fill="none" opacity="1.000000" stroke="#000000" stroke-linecap="round" stroke-linejoin="round" stroke-width="5.000000"
	d="
M1534.500000,1605.500000 
	C1529.263794,1594.083374 1522.767334,1583.352539 1516.490479,1572.505493 
	C1499.050537,1542.366577 1479.811279,1513.411743 1458.980835,1485.514282 
	C1456.375244,1482.024902 1453.843262,1478.189087 1448.500000,1479.000000 
"/>
<path fill="none" opacity="1.000000" stroke="#000000" stroke-linecap="round" stroke-linejoin="round" stroke-width="4.000000"
	d="
M454.000000,1490.500000 
	C475.152649,1521.296753 491.647858,1554.461792 504.540497,1589.485107 
	C507.418701,1597.303955 510.616516,1604.993896 513.152222,1612.951538 
	C513.844666,1615.124512 514.774353,1617.919312 517.500000,1619.000000 
"/>
<path fill="none" opacity="1.000000" stroke="#000000" stroke-linecap="round" stroke-linejoin="round" stroke-width="4.000000"
	d="
M904.500000,547.500000 
	C891.666687,569.666687 878.833435,591.833374 866.000122,614.000061 
	C855.000122,633.000061 844.051331,652.030212 832.917847,670.951660 
	C831.846375,672.772461 831.051575,674.694824 830.000000,676.500000 
"/>
<path fill="none" opacity="1.000000" stroke="#000000" stroke-linecap="round" stroke-linejoin="round" stroke-width="6.000000"
	d="
M1587.500000,1872.000000 
	C1600.500000,1910.166626 1613.492798,1948.335815 1626.509155,1986.496826 
	C1628.108643,1991.186401 1629.833374,1995.833374 1631.500000,2000.500000 
"/>
<path fill="none" opacity="1.000000" stroke="#000000" stroke-linecap="round" stroke-linejoin="round" stroke-width="5.000000"
	d="
M924.500000,716.500000 
	C926.397705,720.137085 929.686646,721.582458 933.501892,721.981934 
	C948.171143,723.517822 962.581116,726.469727 977.014465,729.429382 
	C1001.234924,734.395996 1025.102661,740.743713 1049.007080,746.972656 
	C1050.452393,747.349243 1052.000000,747.333313 1053.500000,747.500000 
"/>
<path fill="none" opacity="1.000000" stroke="#000000" stroke-linecap="round" stroke-linejoin="round" stroke-width="5.000000"
	d="
M1555.500000,1587.500000 
	C1535.229004,1562.172974 1515.590088,1536.343506 1493.587402,1512.419556 
	C1481.770142,1499.570312 1470.157837,1486.537231 1458.050659,1473.951172 
	C1454.689697,1470.457397 1451.127930,1469.055664 1446.500000,1470.500000 
"/>
<path fill="none" opacity="1.000000" stroke="#000000" stroke-linecap="round" stroke-linejoin="round" stroke-width="4.000000"
	d="
M769.500000,741.500000 
	C766.387024,742.340210 763.560120,743.362000 759.991638,743.235718 
	C746.177917,742.746765 732.314148,742.051025 718.500916,743.508606 
	C693.150757,746.183777 668.629822,752.496460 644.500000,760.500000 
"/>
<path fill="none" opacity="1.000000" stroke="#000000" stroke-linecap="round" stroke-linejoin="round" stroke-width="5.000000"
	d="
M1254.500000,1345.500000 
	C1269.716187,1352.426025 1284.363159,1360.460327 1298.985840,1368.525757 
	C1319.042969,1379.588867 1339.000488,1390.832275 1358.998169,1402.003296 
	C1359.846069,1402.477051 1360.724976,1402.924072 1361.490479,1403.512329 
	C1366.446655,1407.320312 1371.738892,1408.255127 1377.500000,1405.500000 
"/>
<path fill="none" opacity="1.000000" stroke="#000000" stroke-linecap="round" stroke-linejoin="round" stroke-width="7.000000"
	d="
M1427.500000,1455.500000 
	C1428.281006,1460.697266 1425.939697,1465.730103 1426.947876,1471.010010 
	C1430.350342,1488.829834 1433.276855,1506.731934 1436.802124,1524.539185 
	C1440.174316,1541.572754 1443.841553,1558.532593 1447.482666,1575.503784 
	C1447.619385,1576.140991 1447.500000,1576.833374 1447.500000,1577.500000 
"/>
<path fill="none" opacity="1.000000" stroke="#000000" stroke-linecap="round" stroke-linejoin="round" stroke-width="4.000000"
	d="
M1031.500000,670.499939 
	C1017.333313,673.166626 1003.145447,675.726074 989.005005,678.525146 
	C967.929810,682.697083 947.157043,688.105652 926.475159,693.911499 
	C921.231567,695.383484 915.586182,697.287598 910.500000,693.000000 
"/>
<path fill="none" opacity="1.000000" stroke="#000000" stroke-linecap="round" stroke-linejoin="round" stroke-width="6.000000"
	d="
M1546.500000,1883.500000 
	C1553.833252,1906.833374 1561.030762,1930.210449 1568.547241,1953.484741 
	C1573.632690,1969.231445 1579.166748,1984.833374 1584.500000,2000.500000 
"/>
<path fill="none" opacity="1.000000" stroke="#000000" stroke-linecap="round" stroke-linejoin="round" stroke-width="4.000000"
	d="
M756.500000,733.500000 
	C747.871094,730.029419 739.158264,726.855591 730.005981,724.971008 
	C721.574768,723.234863 713.114319,721.696960 704.499207,721.547302 
	C696.997253,721.416870 689.589905,720.104187 681.986511,720.865601 
	C672.026917,721.862976 661.984436,721.678772 651.986755,722.890991 
	C632.223267,725.287354 612.789124,729.228943 593.505615,734.022705 
	C583.973206,736.392334 574.432739,738.777832 565.037476,741.623657 
	C561.860901,742.585876 558.732422,743.145630 555.500000,743.500000 
"/>
<path fill="none" opacity="1.000000" stroke="#000000" stroke-linecap="round" stroke-linejoin="round" stroke-width="3.000000"
	d="
M1451.000000,1459.000000 
	C1461.333252,1467.833374 1471.443237,1476.946411 1482.057861,1485.427490 
	C1494.634155,1495.475952 1506.547974,1506.260376 1518.453491,1517.051270 
	C1530.332031,1527.817627 1541.794800,1539.041382 1553.519897,1549.978638 
	C1557.918457,1554.081543 1561.100220,1559.442383 1566.500000,1562.500000 
"/>
<path fill="none" opacity="1.000000" stroke="#000000" stroke-linecap="round" stroke-linejoin="round" stroke-width="6.000000"
	d="
M1399.500000,1466.500122 
	C1397.000000,1466.000122 1394.433350,1465.711182 1392.016479,1464.947998 
	C1388.810547,1463.935791 1386.450806,1465.092529 1383.978149,1466.971191 
	C1360.461060,1484.837402 1337.109497,1502.929321 1312.978760,1519.969971 
	C1305.160889,1525.490967 1297.089111,1530.641235 1289.349854,1536.294434 
	C1287.563477,1537.599365 1286.820801,1539.984375 1284.500000,1540.500000 
"/>
<path fill="none" opacity="1.000000" stroke="#000000" stroke-linecap="round" stroke-linejoin="round" stroke-width="7.000000"
	d="
M784.500000,486.500000 
	C783.718445,487.900391 783.484924,489.384796 783.472839,490.999786 
	C783.350769,507.333466 782.739075,523.676575 783.116211,539.997314 
	C783.520752,557.502075 782.925110,575.014099 783.616394,592.495422 
	C784.097961,604.673340 783.747864,616.834167 783.938660,629.000977 
	C784.082275,638.162781 783.666687,647.333313 783.500000,656.500000 
"/>
<path fill="none" opacity="1.000000" stroke="#000000" stroke-linecap="round" stroke-linejoin="round" stroke-width="4.000000"
	d="
M1573.500000,1486.500000 
	C1542.656006,1476.817017 1512.669922,1464.682129 1482.019775,1454.440918 
	C1479.333008,1453.543213 1476.696167,1452.412842 1474.040039,1451.395386 
	C1471.032959,1450.243530 1468.434814,1450.119385 1465.478882,1451.453125 
	C1459.309937,1454.236328 1455.323120,1449.084717 1450.509155,1446.979248 
	C1450.106934,1446.803223 1449.726074,1446.390015 1449.515869,1445.991577 
	C1445.482300,1438.345581 1436.678589,1436.601929 1431.000000,1431.000000 
"/>
<path fill="none" opacity="1.000000" stroke="#000000" stroke-linecap="round" stroke-linejoin="round" stroke-width="3.000000"
	d="
M1568.500000,1388.500000 
	C1557.333374,1391.500000 1546.181152,1394.555420 1534.996948,1397.488525 
	C1511.340210,1403.692749 1487.650635,1409.773071 1464.016968,1416.063721 
	C1460.386597,1417.029907 1457.115479,1417.511597 1454.000000,1415.000000 
"/>
<path fill="none" opacity="1.000000" stroke="#000000" stroke-linecap="round" stroke-linejoin="round" stroke-width="6.000000"
	d="
M1466.500000,1453.000000 
	C1471.323120,1457.970337 1477.694336,1460.583740 1483.531372,1463.945679 
	C1512.963135,1480.897461 1542.488770,1497.686523 1572.053101,1514.406128 
	C1572.960938,1514.919678 1574.081177,1516.049072 1575.500000,1515.500000 
"/>
<path fill="none" opacity="1.000000" stroke="#000000" stroke-linecap="round" stroke-linejoin="round" stroke-width="4.000000"
	d="
M1387.500000,1238.500000 
	C1386.558838,1244.947144 1388.542603,1251.175293 1389.143433,1257.486328 
	C1390.718262,1274.026855 1392.964844,1290.504395 1395.012939,1306.998413 
	C1396.276367,1317.173706 1397.486084,1327.362061 1399.095337,1337.484863 
	C1399.680176,1341.163940 1399.654175,1344.414795 1397.500000,1347.500000 
"/>
<path fill="none" opacity="1.000000" stroke="#000000" stroke-linecap="round" stroke-linejoin="round" stroke-width="7.000000"
	d="
M195.000000,1226.500000 
	C197.952988,1226.417114 201.051254,1226.637573 202.937897,1229.048584 
	C207.778229,1235.234497 215.386230,1236.928833 221.593643,1240.851807 
	C225.519516,1243.333008 230.033340,1244.590820 232.124146,1249.446533 
	C232.843094,1251.116211 234.806488,1252.541260 236.534088,1253.433960 
	C243.335297,1256.947876 248.429764,1262.452515 254.129578,1267.349121 
	C265.016602,1276.702026 276.577698,1285.283813 288.020905,1293.972534 
	C305.285858,1307.081909 322.062347,1320.714355 337.623718,1335.873047 
	C342.845978,1340.960083 347.106903,1347.130371 353.500000,1351.000000 
"/>
<path fill="none" opacity="1.000000" stroke="#000000" stroke-linecap="round" stroke-linejoin="round" stroke-width="4.000000"
	d="
M1457.500000,1294.500000 
	C1453.666748,1306.333374 1449.638062,1318.107666 1446.044800,1330.013550 
	C1440.376099,1348.796021 1434.782471,1367.607788 1429.657837,1386.542725 
	C1428.427612,1391.088257 1429.166748,1396.166626 1429.000122,1401.000000 
"/>
<path fill="none" opacity="1.000000" stroke="#000000" stroke-linecap="round" stroke-linejoin="round" stroke-width="6.000000"
	d="
M840.500000,877.500000 
	C837.739014,865.386047 833.383057,853.736084 829.322632,842.061707 
	C822.350342,822.014832 815.956970,801.669861 805.514526,782.991882 
	C803.393433,779.197998 802.041992,774.833069 797.500000,773.000000 
"/>
<path fill="none" opacity="1.000000" stroke="#000000" stroke-linecap="round" stroke-linejoin="round" stroke-width="3.000000"
	d="
M1581.500000,1436.500000 
	C1571.000000,1436.000000 1560.503540,1435.399170 1549.998901,1435.030884 
	C1541.004150,1434.715576 1532.000000,1434.669312 1523.000000,1434.499512 
	C1514.333374,1434.335938 1505.613159,1434.707520 1497.014038,1433.857544 
	C1487.175293,1432.884766 1477.300293,1433.649170 1467.500000,1432.500000 
"/>
<path fill="none" opacity="1.000000" stroke="#000000" stroke-linecap="round" stroke-linejoin="round" stroke-width="4.000000"
	d="
M453.500000,1522.500000 
	C465.634277,1542.140259 476.720886,1562.339233 485.996765,1583.501465 
	C490.918182,1594.729370 495.955994,1605.895996 500.193817,1617.428833 
	C501.480469,1620.930298 501.660034,1623.763550 500.500000,1627.000000 
"/>
<path fill="none" opacity="1.000000" stroke="#000000" stroke-linecap="round" stroke-linejoin="round" stroke-width="6.000000"
	d="
M1471.500122,1291.500000 
	C1459.750122,1323.666748 1448.029053,1355.843994 1436.199341,1387.981323 
	C1435.165771,1390.788940 1433.416626,1393.333374 1432.000000,1396.000000 
"/>
<path fill="none" opacity="1.000000" stroke="#000000" stroke-linecap="round" stroke-linejoin="round" stroke-width="9.000000"
	d="
M839.000000,747.500000 
	C835.199951,755.640015 836.724792,762.599365 841.842285,770.107483 
	C858.566711,794.644470 873.059814,820.567932 887.500000,846.500000 
"/>
<path fill="none" opacity="1.000000" stroke="#000000" stroke-linecap="round" stroke-linejoin="round" stroke-width="5.000000"
	d="
M980.000000,591.500000 
	C957.346924,606.164246 935.861084,622.434387 915.085938,639.604004 
	C906.741943,646.499817 898.477173,653.588623 890.969849,661.471313 
	C888.302185,664.272461 885.217712,666.602112 881.000000,666.500000 
"/>
<path fill="none" opacity="1.000000" stroke="#000000" stroke-linecap="round" stroke-linejoin="round" stroke-width="8.000000"
	d="
M866.500000,758.000000 
	C865.582031,763.458984 868.718811,767.058411 872.532593,769.957092 
	C902.196228,792.502502 927.221252,819.629456 950.500000,848.500000 
"/>
<path fill="none" opacity="1.000000" stroke="#000000" stroke-linecap="round" stroke-linejoin="round" stroke-width="6.000000"
	d="
M790.500000,766.000000 
	C792.333313,767.500000 794.303589,768.867432 795.940125,770.557983 
	C796.716736,771.360229 797.698669,772.718140 796.961243,773.977295 
	C794.776733,777.707458 796.104797,781.427368 797.057678,784.984558 
	C802.723450,806.134094 807.441528,827.487793 811.554382,848.989624 
	C812.874146,855.889282 814.833374,862.666687 816.500000,869.500000 
"/>
<path fill="none" opacity="1.000000" stroke="#000000" stroke-linecap="round" stroke-linejoin="round" stroke-width="4.000000"
	d="
M1381.000000,1453.000000 
	C1375.578491,1448.498779 1369.525024,1450.996094 1364.031616,1452.150391 
	C1346.113892,1455.915527 1328.303345,1460.210571 1310.514404,1464.558838 
	C1303.094849,1466.372437 1295.804810,1468.744873 1288.531250,1471.096924 
	C1287.452759,1471.445679 1286.486938,1471.255005 1285.500000,1471.500000 
"/>
<path fill="none" opacity="1.000000" stroke="#000000" stroke-linecap="round" stroke-linejoin="round" stroke-width="4.000000"
	d="
M1309.500000,1304.500000 
	C1318.000000,1313.666626 1326.528320,1322.807129 1334.993774,1332.005737 
	C1349.975830,1348.285034 1364.154297,1365.255127 1377.944946,1382.543945 
	C1380.914062,1386.265991 1383.426758,1390.162720 1389.000000,1389.500000 
"/>
<path fill="none" opacity="1.000000" stroke="#000000" stroke-linecap="round" stroke-linejoin="round" stroke-width="6.000000"
	d="
M1370.500000,1423.500000 
	C1370.308960,1418.958740 1366.980103,1417.111938 1363.493530,1415.514038 
	C1342.339722,1405.819214 1321.180054,1396.137329 1299.990723,1386.520264 
	C1294.552124,1384.051880 1289.000000,1381.833374 1283.500000,1379.500000 
"/>
<path fill="none" opacity="1.000000" stroke="#000000" stroke-linecap="round" stroke-linejoin="round" stroke-width="3.000000"
	d="
M1297.500000,1322.500000 
	C1320.969849,1342.463379 1343.612915,1363.339844 1366.011353,1384.487915 
	C1368.928589,1387.242188 1371.919800,1389.931274 1375.023438,1392.471436 
	C1377.882812,1394.811279 1378.586182,1397.473877 1377.578613,1401.022339 
	C1376.916626,1403.353760 1377.566284,1405.337646 1379.931274,1407.092651 
	C1386.123901,1411.688110 1392.353394,1415.489014 1400.497070,1415.648071 
	C1404.768188,1415.731445 1407.976807,1419.236938 1411.500000,1421.500000 
"/>
<path fill="none" opacity="1.000000" stroke="#000000" stroke-linecap="round" stroke-linejoin="round" stroke-width="3.000000"
	d="
M769.500000,747.000000 
	C765.585571,750.772949 760.184204,750.436340 755.475647,751.922913 
	C728.855225,760.327637 704.007263,772.105408 681.916260,789.393005 
	C681.428162,789.774902 680.501526,790.587158 679.500000,790.500000 
"/>
<path fill="none" opacity="1.000000" stroke="#000000" stroke-linecap="round" stroke-linejoin="round" stroke-width="3.000000"
	d="
M1375.500000,1459.000000 
	C1375.420532,1462.939453 1372.112305,1464.022583 1369.478760,1465.461182 
	C1343.351807,1479.734619 1317.991333,1495.380615 1291.512207,1509.023804 
	C1290.582275,1509.502930 1289.833374,1510.333374 1289.000000,1511.000000 
"/>
<path fill="none" opacity="1.000000" stroke="#000000" stroke-linecap="round" stroke-linejoin="round" stroke-width="5.000000"
	d="
M1392.000000,1490.500000 
	C1387.603271,1490.047729 1385.315796,1492.941895 1382.979858,1495.984619 
	C1369.520996,1513.516113 1356.086792,1531.067871 1342.461304,1548.469727 
	C1336.188477,1556.480957 1329.500000,1564.166626 1323.000000,1572.000000 
"/>
<path fill="none" opacity="1.000000" stroke="#000000" stroke-linecap="round" stroke-linejoin="round" stroke-width="4.000000"
	d="
M818.500000,566.500000 
	C816.457642,578.888367 813.501587,591.097473 811.292419,603.462891 
	C809.742737,612.137390 808.277161,620.853455 806.569458,629.513672 
	C805.070496,637.114868 804.166687,644.833313 803.000000,652.500000 
"/>
<path fill="none" opacity="1.000000" stroke="#000000" stroke-linecap="round" stroke-linejoin="round" stroke-width="6.000000"
	d="
M977.500000,612.500000 
	C957.385132,624.220093 937.708130,636.608521 918.982483,650.476318 
	C912.927490,654.960510 906.638123,659.127014 900.522644,663.531372 
	C899.201172,664.483093 897.466675,665.653442 897.113098,667.029114 
	C894.726013,676.315369 887.281494,677.841064 879.500000,679.000000 
"/>
<path fill="none" opacity="1.000000" stroke="#000000" stroke-linecap="round" stroke-linejoin="round" stroke-width="4.000000"
	d="
M585.500000,714.500000 
	C601.353821,710.841187 617.307861,707.768372 633.498474,705.985840 
	C651.462463,704.008179 669.379211,702.661987 687.512756,704.364136 
	C703.927002,705.904785 719.737915,709.389526 734.990479,715.523743 
	C738.439575,716.910828 741.827576,717.976868 745.500000,716.500000 
"/>
<path fill="none" opacity="1.000000" stroke="#000000" stroke-linecap="round" stroke-linejoin="round" stroke-width="6.000000"
	d="
M977.500000,632.499939 
	C953.500000,645.166626 929.457092,657.753418 905.549316,670.591736 
	C902.216553,672.381409 898.961731,672.475403 895.500000,672.500000 
"/>
<path fill="none" opacity="1.000000" stroke="#000000" stroke-linecap="round" stroke-linejoin="round" stroke-width="5.000000"
	d="
M1377.500000,1486.500000 
	C1377.431641,1488.766235 1377.875244,1490.919800 1376.056641,1493.048340 
	C1354.965332,1517.734619 1333.489014,1542.070557 1310.988403,1565.488892 
	C1310.581909,1565.912109 1310.000122,1566.166748 1309.500122,1566.500122 
"/>
<path fill="none" opacity="1.000000" stroke="#000000" stroke-linecap="round" stroke-linejoin="round" stroke-width="5.000000"
	d="
M1509.500000,1315.500000 
	C1496.206665,1333.565308 1482.152344,1351.019653 1467.518433,1368.015869 
	C1461.573730,1374.920044 1456.179810,1382.333130 1449.880371,1388.884888 
	C1445.554688,1393.383911 1441.331909,1398.992065 1434.951782,1400.256958 
	C1429.551758,1401.327515 1424.806152,1403.980591 1419.500000,1405.000000 
"/>
<path fill="none" opacity="1.000000" stroke="#000000" stroke-linecap="round" stroke-linejoin="round" stroke-width="5.000000"
	d="
M573.500000,663.000000 
	C584.394409,665.161316 595.522278,664.722351 606.503845,665.966187 
	C619.914551,667.485168 633.253540,669.515198 646.479248,672.106079 
	C655.586609,673.890198 664.776672,675.558228 673.526550,678.931091 
	C675.356262,679.636414 677.136719,680.044922 678.000000,682.000000 
"/>
<path fill="none" opacity="1.000000" stroke="#000000" stroke-linecap="round" stroke-linejoin="round" stroke-width="5.000000"
	d="
M1380.500000,1273.500000 
	C1381.833374,1282.666626 1382.818970,1291.900879 1384.583374,1300.983765 
	C1387.088501,1313.880981 1390.128052,1326.675293 1393.030151,1339.493164 
	C1393.666138,1342.302002 1393.844971,1345.433594 1396.992432,1347.014893 
	C1399.986938,1348.519409 1398.515991,1351.783447 1399.224854,1354.084717 
	C1400.572021,1358.458984 1402.035889,1363.224854 1399.591431,1368.046387 
	C1398.391479,1370.413208 1399.915771,1373.044556 1400.522461,1375.494385 
	C1401.435913,1379.182495 1402.469360,1382.842041 1403.507080,1386.498047 
	C1405.158691,1392.317627 1409.783325,1394.757446 1415.000000,1396.500000 
"/>
<path fill="none" opacity="1.000000" stroke="#000000" stroke-linecap="round" stroke-linejoin="round" stroke-width="4.000000"
	d="
M803.000000,751.000000 
	C817.440796,772.849121 828.945862,796.329529 840.876892,819.563232 
	C841.831665,821.422241 843.691162,823.073120 843.500000,825.500000 
"/>
<path fill="none" opacity="1.000000" stroke="#000000" stroke-linecap="round" stroke-linejoin="round" stroke-width="6.000000"
	d="
M1412.500000,1445.500000 
	C1403.559692,1447.914429 1394.042725,1447.931030 1385.496460,1451.992554 
	C1385.023926,1452.217041 1384.304565,1452.177246 1384.028564,1452.522705 
	C1378.078125,1459.975098 1368.439209,1457.787842 1360.914673,1461.318115 
	C1353.131958,1464.969604 1344.567505,1466.913086 1336.523438,1470.060059 
	C1324.765503,1474.659912 1313.166626,1479.666626 1301.500000,1484.500000 
"/>
<path fill="none" opacity="1.000000" stroke="#000000" stroke-linecap="round" stroke-linejoin="round" stroke-width="5.000000"
	d="
M948.000000,594.000000 
	C931.734375,608.384216 916.867615,624.202942 901.596191,639.595398 
	C896.715759,644.514404 892.123047,649.844604 887.296631,654.802002 
	C882.507874,659.720764 881.081726,665.602905 878.953979,671.483337 
	C878.431213,672.928284 879.300476,674.162842 879.004883,675.501099 
	C878.714233,676.816711 879.547180,678.268921 878.501831,679.501587 
	C873.416260,685.498535 873.217102,692.691162 873.500000,700.000000 
"/>
<path fill="none" opacity="1.000000" stroke="#000000" stroke-linecap="round" stroke-linejoin="round" stroke-width="3.000000"
	d="
M760.500000,761.500000 
	C737.983643,775.203308 719.921509,794.059448 701.499695,812.499695 
	C697.168518,816.835144 692.833252,821.166626 688.499939,825.499939 
"/>
<path fill="none" opacity="1.000000" stroke="#000000" stroke-linecap="round" stroke-linejoin="round" stroke-width="4.000000"
	d="
M1288.500000,1411.500000 
	C1297.500000,1413.500000 1306.483032,1415.580688 1315.504272,1417.479614 
	C1326.986694,1419.896729 1338.499023,1422.171509 1350.000610,1424.496948 
	C1353.371338,1425.178345 1356.755005,1425.934570 1360.000000,1424.000000 
"/>
<path fill="none" opacity="1.000000" stroke="#000000" stroke-linecap="round" stroke-linejoin="round" stroke-width="4.000000"
	d="
M1391.000000,1496.500000 
	C1386.333252,1504.000000 1381.386597,1511.342407 1377.057495,1519.032349 
	C1367.672852,1535.703125 1356.946167,1551.509155 1346.500000,1567.500000 
"/>
<path fill="none" opacity="1.000000" stroke="#000000" stroke-linecap="round" stroke-linejoin="round" stroke-width="4.000000"
	d="
M1479.000000,1328.000000 
	C1467.666748,1347.666626 1456.408447,1367.377563 1444.897583,1386.939697 
	C1443.575317,1389.187012 1443.362061,1391.186157 1443.500000,1393.500000 
"/>
<path fill="none" opacity="1.000000" stroke="#000000" stroke-linecap="round" stroke-linejoin="round" stroke-width="4.000000"
	d="
M1414.500000,1450.000000 
	C1413.500000,1452.000000 1412.314819,1453.931274 1411.541260,1456.015381 
	C1410.228394,1459.552368 1408.210693,1461.953369 1404.567993,1463.646362 
	C1399.862549,1465.832886 1397.305786,1469.492065 1398.265381,1475.537231 
	C1398.838501,1479.147583 1397.617310,1483.304932 1394.994141,1486.495117 
	C1392.618774,1489.384277 1392.271484,1492.721558 1393.589478,1495.963623 
	C1394.659668,1498.596191 1394.003540,1500.688599 1393.017090,1503.007324 
	C1385.447266,1520.798706 1378.046753,1538.669678 1367.528564,1555.018433 
	C1367.301147,1555.372070 1367.500000,1556.000000 1367.500000,1556.500000 
"/>
<path fill="none" opacity="1.000000" stroke="#000000" stroke-linecap="round" stroke-linejoin="round" stroke-width="3.000000"
	d="
M925.500000,566.500000 
	C907.960693,587.618164 891.463623,609.546082 875.000000,631.500000 
"/>
<path fill="none" opacity="1.000000" stroke="#000000" stroke-linecap="round" stroke-linejoin="round" stroke-width="4.000000"
	d="
M1417.000000,1471.500000 
	C1419.645386,1473.951538 1420.159912,1477.165283 1419.977295,1480.498779 
	C1419.082764,1496.826904 1419.420166,1513.169922 1419.573730,1529.499268 
	C1419.769531,1550.335571 1420.370605,1571.170898 1421.064575,1591.997803 
	C1421.337158,1600.177612 1422.393311,1608.329224 1422.956787,1616.502930 
	C1423.093384,1618.484009 1423.400879,1620.561157 1422.500000,1622.500000 
"/>
<path fill="none" opacity="1.000000" stroke="#000000" stroke-linecap="round" stroke-linejoin="round" stroke-width="4.000000"
	d="
M1412.000000,1429.500122 
	C1405.666626,1430.666748 1399.302734,1431.692749 1393.013672,1433.062988 
	C1390.133667,1433.690308 1387.951416,1433.379395 1385.426392,1431.604736 
	C1381.539673,1428.873169 1377.180908,1426.807373 1372.995239,1424.508789 
	C1370.020142,1422.874878 1366.994629,1425.135254 1364.002319,1424.489258 
	C1362.513550,1424.168091 1360.439453,1425.604004 1359.821289,1422.536011 
	C1359.575684,1421.316895 1357.474731,1420.135376 1355.978516,1419.555298 
	C1336.844482,1412.138062 1317.666626,1404.833374 1298.500000,1397.500000 
"/>
<path fill="none" opacity="1.000000" stroke="#000000" stroke-linecap="round" stroke-linejoin="round" stroke-width="6.000000"
	d="
M626.500000,679.500000 
	C626.222656,682.082642 628.112915,681.450928 629.500183,681.494019 
	C642.734375,681.905457 655.872498,683.232300 669.021301,684.824158 
	C676.023560,685.671875 683.080322,683.562317 690.000000,682.000000 
"/>
<path fill="none" opacity="1.000000" stroke="#000000" stroke-linecap="round" stroke-linejoin="round" stroke-width="5.000000"
	d="
M947.500000,796.000000 
	C938.519714,791.176331 930.527527,784.781433 921.551941,779.904419 
	C914.673279,776.166931 907.886780,772.229065 901.096924,768.331116 
	C897.916016,766.505005 895.210693,766.235840 892.000000,767.000000 
"/>
<path fill="none" opacity="1.000000" stroke="#000000" stroke-linecap="round" stroke-linejoin="round" stroke-width="3.000000"
	d="
M1487.500000,1545.500000 
	C1478.500000,1530.000000 1469.536011,1514.478882 1460.461548,1499.022583 
	C1459.089233,1496.685303 1457.377441,1494.365723 1454.000000,1495.000000 
"/>
<path fill="none" opacity="1.000000" stroke="#000000" stroke-linecap="round" stroke-linejoin="round" stroke-width="3.000000"
	d="
M1337.500000,1315.500000 
	C1344.486572,1322.760010 1349.407349,1331.568237 1355.460205,1339.530273 
	C1360.159546,1345.712158 1364.526978,1352.147705 1368.984863,1358.510620 
	C1370.491211,1360.660522 1372.070068,1362.561523 1375.000000,1362.500000 
"/>
<path fill="none" opacity="1.000000" stroke="#000000" stroke-linecap="round" stroke-linejoin="round" stroke-width="6.000000"
	d="
M626.500000,681.000000 
	C622.438110,682.319214 618.496765,680.723633 614.500610,680.489807 
	C602.968872,679.815002 591.528442,681.682983 579.999451,681.636536 
	C571.668945,681.602966 563.330261,682.797546 555.000916,683.510864 
	C547.829773,684.125000 540.666687,684.833313 533.500000,685.500000 
"/>
<path fill="none" opacity="1.000000" stroke="#000000" stroke-linecap="round" stroke-linejoin="round" stroke-width="8.000000"
	d="
M803.000000,700.000000 
	C801.768250,700.979187 800.330505,700.328003 799.002991,700.520630 
	C795.364685,701.048645 792.323608,702.590454 791.547974,706.509460 
	C790.710266,710.741394 792.680664,713.518127 796.455994,715.580566 
	C799.492065,717.239014 801.677185,716.560364 804.015320,714.517578 
	C807.155579,711.773926 808.261414,708.411133 806.921387,704.527161 
	C806.403870,703.027283 805.000000,701.833313 804.000000,700.500000 
"/>
<path fill="none" opacity="1.000000" stroke="#000000" stroke-linecap="round" stroke-linejoin="round" stroke-width="18.000000"
	d="
M735.500000,634.000000 
	C737.625549,632.443359 739.751099,630.886658 741.885071,629.323853 
	C748.748596,632.514465 749.191528,638.605835 748.346497,644.477905 
	C747.329407,651.544373 750.720154,655.989502 755.536072,659.956177 
	C757.242126,661.361389 758.312500,662.946838 759.024048,664.991638 
	C762.973877,676.342407 767.033264,687.655212 770.957214,699.014771 
	C771.437866,700.406311 771.948608,702.293396 771.396729,703.450745 
	C768.557190,709.405396 770.691406,715.492126 770.500000,721.500000 
"/>
<path fill="none" opacity="1.000000" stroke="#000000" stroke-linecap="round" stroke-linejoin="round" stroke-width="8.000000"
	d="
M797.000000,749.000000 
	C794.766052,746.288269 793.268005,743.884277 796.382874,740.395386 
	C798.855774,737.625549 797.371521,733.355530 793.454834,731.077637 
	C790.845520,729.559998 787.852417,729.114746 785.498413,731.998718 
	C783.320862,734.666626 783.556519,738.958740 785.995789,741.504028 
	C788.254944,743.861389 790.833679,744.831848 794.000000,743.500000 
"/>
<path fill="none" opacity="1.000000" stroke="#000000" stroke-linecap="round" stroke-linejoin="round" stroke-width="8.000000"
	d="
M1384.500000,1437.000000 
	C1380.844360,1441.871826 1375.188232,1441.079956 1370.515991,1440.763428 
	C1362.094604,1440.193481 1353.854736,1441.868530 1345.495972,1441.677124 
	C1343.431396,1441.629883 1341.154663,1441.676758 1339.000000,1442.000000 
"/>
<path fill="none" opacity="1.000000" stroke="#000000" stroke-linecap="round" stroke-linejoin="round" stroke-width="3.000000"
	d="
M1328.500000,1360.500000 
	C1336.500000,1366.500000 1344.500000,1372.500000 1352.500000,1378.500000 
"/>
<path fill="none" opacity="1.000000" stroke="#000000" stroke-linecap="round" stroke-linejoin="round" stroke-width="4.000000"
	d="
M1419.500000,1282.500000 
	C1419.500000,1291.000000 1420.071045,1299.547363 1419.370239,1307.989258 
	C1418.236328,1321.648193 1417.576904,1335.318726 1417.038208,1349.001465 
	C1416.922119,1351.949951 1416.806152,1354.722412 1414.000000,1356.500000 
"/>
<path fill="none" opacity="1.000000" stroke="#000000" stroke-linecap="round" stroke-linejoin="round" stroke-width="3.000000"
	d="
M1009.500000,571.500000 
	C1003.400330,575.695374 996.597168,578.916626 991.500000,584.500000 
"/>
<path fill="none" opacity="1.000000" stroke="#000000" stroke-linecap="round" stroke-linejoin="round" stroke-width="3.000000"
	d="
M872.500000,637.500000 
	C866.949341,642.620850 861.858459,648.073669 859.500000,655.500000 
"/>
<path fill="none" opacity="1.000000" stroke="#000000" stroke-linecap="round" stroke-linejoin="round" stroke-width="3.000000"
	d="
M641.500000,591.500000 
	C647.343933,594.826904 651.950623,599.687927 657.000000,604.000000 
"/>
<path fill="none" opacity="1.000000" stroke="#000000" stroke-linecap="round" stroke-linejoin="round" stroke-width="2.000000"
	d="
M1339.000000,1579.000000 
	C1336.666626,1582.333374 1334.333374,1585.666626 1332.000000,1589.000000 
"/>
<path fill="none" opacity="1.000000" stroke="#000000" stroke-linecap="round" stroke-linejoin="round" stroke-width="2.000000"
	d="
M1526.500000,1294.500000 
	C1523.179321,1297.018799 1521.155396,1300.561279 1519.000000,1304.000000 
"/>
<path fill="none" opacity="1.000000" stroke="#000000" stroke-linecap="round" stroke-linejoin="round" stroke-width="3.000000"
	d="
M1478.500000,1274.500000 
	C1476.173340,1277.048950 1475.376221,1280.192627 1475.000000,1283.500000 
"/>
<path fill="none" opacity="1.000000" stroke="#000000" stroke-linecap="round" stroke-linejoin="round" stroke-width="3.000000"
	d="
M1430.500000,1318.500000 
	C1429.833252,1322.333374 1429.063721,1326.152710 1428.543213,1330.005859 
	C1428.281128,1331.946045 1428.471924,1333.947021 1430.000000,1335.500000 
"/>
<path fill="none" opacity="1.000000" stroke="#000000" stroke-linecap="round" stroke-linejoin="round" stroke-width="3.000000"
	d="
M1447.500000,1456.500000 
	C1444.398438,1454.837646 1441.409546,1455.205322 1438.500000,1457.000000 
"/>
<path fill="none" opacity="1.000000" stroke="#000000" stroke-linecap="round" stroke-linejoin="round" stroke-width="4.000000"
	d="
M804.000000,689.500000 
	C801.127686,689.498047 798.238708,689.637878 795.500000,688.500000 
"/>
<path fill="none" opacity="1.000000" stroke="#000000" stroke-linecap="round" stroke-linejoin="round" stroke-width="3.000000"
	d="
M954.500000,802.500000 
	C957.736511,801.679871 958.417969,805.479492 960.975403,806.101257 
	C962.163452,806.390015 962.696533,808.447754 964.500000,808.000000 
"/>
<path fill="none" opacity="1.000000" stroke="#000000" stroke-linecap="round" stroke-linejoin="round" stroke-width="3.000000"
	d="
M854.000000,661.000000 
	C852.259094,663.405945 851.482666,666.569702 848.500000,668.000000 
"/>
<path fill="none" opacity="1.000000" stroke="#000000" stroke-linecap="round" stroke-linejoin="round" stroke-width="3.000000"
	d="
M667.000000,613.000000 
	C669.166687,615.166687 671.333313,617.333313 673.500000,619.500000 
"/>
<path fill="none" opacity="1.000000" stroke="#000000" stroke-linecap="round" stroke-linejoin="round" stroke-width="3.000000"
	d="
M598.500000,507.500000 
	C600.500000,509.500000 602.500000,511.500000 604.500000,513.500000 
"/>
<path fill="none" opacity="1.000000" stroke="#000000" stroke-linecap="round" stroke-linejoin="round" stroke-width="2.000000"
	d="
M1454.500000,1432.500000 
	C1452.634766,1432.338257 1450.927368,1432.702393 1449.500000,1434.000000 
"/>
</svg>