<svg version="1.1" id="Layer_1" xmlns="http://www.w3.org/2000/svg" xmlns:xlink="http://www.w3.org/1999/xlink" x="0px" y="0px"
	 width="100%" viewBox="0 0 2000 2000" enable-background="new 0 0 2000 2000" xml:space="preserve">
<path fill="none" opacity="1.000000" stroke="#000000" stroke-linecap="round" stroke-linejoin="round" stroke-width="3.000000"
	d="
M750.000000,706.500000 
	C754.348938,699.091064 755.351990,690.730347 756.424805,682.490234 
	C758.069031,669.860840 758.406921,657.138184 756.461487,644.505920 
	C752.395752,618.104675 743.183044,594.178650 720.933777,577.588806 
	C702.933594,564.167236 682.341919,559.372009 659.995728,561.453918 
	C642.221375,563.109985 626.368286,569.299744 612.510559,580.513062 
	C599.777710,590.816162 590.274292,603.679199 583.538818,618.517639 
	C572.354248,643.157166 567.391907,669.409973 563.387756,695.983093 
	C559.785767,719.887512 558.186340,743.890259 558.061340,768.000305 
	C557.927490,793.810669 560.563110,819.463318 564.089905,844.987610 
	C567.188049,867.409119 569.807983,889.845764 568.935242,912.497498 
	C567.828857,941.214966 562.990479,969.185669 552.101379,996.041077 
	C543.347534,1017.630249 530.851074,1036.510742 515.076477,1053.570679 
	C494.734344,1075.570312 473.217682,1096.391235 451.915527,1117.414429 
	C420.942505,1147.981689 394.755402,1182.090088 373.525299,1220.014160 
	C353.515106,1255.758911 338.337097,1293.536865 327.597443,1333.026489 
	C321.491180,1355.479004 317.132172,1378.380005 314.622742,1401.513306 
	C312.011902,1425.581787 311.239929,1449.762573 312.425507,1474.003662 
	C313.337128,1492.643433 315.225586,1511.134033 318.487061,1529.502319 
	C323.381744,1557.068970 330.595856,1583.963989 340.962463,1610.014893 
	C349.655457,1631.860229 362.228363,1651.099121 377.929108,1668.563721 
	C398.128418,1691.032349 422.283539,1707.797852 449.492310,1720.516479 
	C475.852112,1732.838379 503.660156,1739.801880 532.509521,1742.394287 
	C553.499207,1744.280640 574.390869,1742.175659 594.987610,1737.939697 
	C619.896973,1732.816772 643.319275,1724.010620 664.562866,1709.592651 
	C678.026428,1700.455078 689.708618,1689.508911 700.479187,1677.481323 
	C711.603760,1665.058105 720.879028,1651.329712 728.491455,1636.495605 
	C740.827820,1612.455933 748.333984,1587.115967 750.098206,1560.006348 
	C751.630493,1536.459229 748.040649,1513.800049 739.407043,1492.036865 
	C728.827820,1465.369507 712.148193,1442.945435 686.357971,1429.778198 
	C654.520569,1413.523315 618.789551,1414.539429 592.095642,1442.591064 
	C577.367249,1458.068604 569.937317,1477.041016 568.979553,1498.499146 
	C567.885254,1523.016602 576.823914,1543.799927 591.953247,1562.537720 
	C603.778198,1577.183228 618.680176,1587.791504 635.574951,1595.332031 
	C650.852173,1602.150513 667.220703,1605.415771 683.996948,1606.545044 
	C702.626953,1607.798950 720.941162,1606.221680 739.015503,1601.560181 
	C739.881653,1601.336792 741.146179,1600.956177 742.000000,1602.000000 
"/>
<path fill="none" opacity="1.000000" stroke="#000000" stroke-linecap="round" stroke-linejoin="round" stroke-width="3.000000"
	d="
M1321.000000,1633.500000 
	C1322.514404,1637.434814 1326.420532,1638.528442 1329.525757,1640.458618 
	C1350.803101,1653.684204 1374.189331,1660.286011 1398.997681,1662.526001 
	C1430.749023,1665.392944 1461.826172,1662.131836 1492.520996,1653.575439 
	C1523.502075,1644.939209 1551.843628,1631.232300 1578.067993,1612.595703 
	C1609.416260,1590.317749 1634.129150,1562.225952 1652.888184,1528.937012 
	C1666.689453,1504.445923 1676.405396,1478.306274 1681.577393,1450.514404 
	C1685.215210,1430.966797 1686.500610,1411.296509 1685.930908,1391.501953 
	C1685.482544,1375.923584 1683.974854,1360.391113 1681.446777,1345.008789 
	C1678.125488,1324.800781 1674.148926,1304.726685 1668.540283,1284.988525 
	C1659.906128,1254.603027 1646.630371,1226.624390 1625.960205,1202.534058 
	C1607.477783,1180.993530 1585.301270,1163.658203 1561.431763,1148.608154 
	C1538.575195,1134.197021 1514.140869,1122.598755 1490.031372,1110.437866 
	C1467.768677,1099.208374 1446.183350,1086.697998 1427.590576,1069.899780 
	C1413.714844,1057.363525 1403.099854,1042.179688 1395.501343,1024.999390 
	C1389.230713,1010.821106 1385.775024,996.027344 1384.938110,980.503357 
	C1383.477905,953.416504 1392.311279,929.206299 1405.013184,906.007202 
	C1413.611450,890.303101 1422.918457,874.956726 1430.862549,858.931824 
	C1442.702637,835.048035 1450.749268,809.811462 1455.580566,783.514771 
	C1459.536499,761.981934 1461.178223,740.317017 1460.433960,718.502258 
	C1459.426147,688.958069 1454.609131,659.947815 1443.293457,632.585449 
	C1434.005005,610.125122 1420.690918,590.046692 1400.485107,575.520691 
	C1379.310913,560.298462 1355.628540,556.004089 1330.533325,561.648315 
	C1302.326294,567.992493 1280.101074,583.752930 1263.458496,607.470886 
	C1256.662231,617.156738 1250.462280,627.082092 1247.000000,638.500000 
"/>
<path fill="none" opacity="1.000000" stroke="#000000" stroke-linecap="round" stroke-linejoin="round" stroke-width="3.000000"
	d="
M1107.000000,988.500000 
	C1106.833374,989.000000 1106.372803,989.654114 1106.542480,989.977722 
	C1112.962646,1002.223816 1120.941406,1013.200378 1133.019775,1020.467224 
	C1149.686646,1030.494629 1167.273193,1030.015625 1184.974976,1023.927185 
	C1197.906738,1019.479431 1207.708252,1011.044434 1212.378784,997.956726 
	C1215.667969,988.740112 1217.661621,979.387024 1211.617310,969.925049 
	C1205.054932,959.652161 1197.038208,951.610718 1184.988281,948.546204 
	C1174.378052,945.847839 1164.415649,948.258362 1154.448120,952.374268 
	C1143.733521,956.798523 1133.593628,962.371765 1122.994507,966.987549 
	C1117.664551,969.308716 1112.333130,971.508179 1106.515381,972.583496 
	C1097.885010,974.178589 1091.579956,970.606995 1087.105957,963.929016 
	C1082.336182,956.809448 1083.010986,949.379578 1087.442261,941.965454 
	C1094.450317,930.239807 1106.209106,925.626160 1118.050537,921.650635 
	C1132.051147,916.950195 1146.783447,915.415344 1161.498413,915.618469 
	C1179.913086,915.872559 1198.046143,918.758789 1216.023315,922.898987 
	C1228.195679,925.702332 1240.171021,929.050171 1252.001221,932.996155 
	C1254.614380,933.867859 1256.796143,933.523682 1259.068237,931.579712 
	C1261.746216,929.288330 1261.053223,927.055176 1259.444946,925.044006 
	C1255.511963,920.125977 1249.893555,917.116150 1244.420044,914.679504 
	C1232.085815,909.188232 1219.250244,904.839172 1205.994629,902.025146 
	C1174.387573,895.315186 1142.985718,894.650269 1111.994873,905.485413 
	C1091.754639,912.561890 1074.041504,923.190674 1062.057739,941.537720 
	C1054.757935,952.713745 1051.684692,965.582703 1049.595703,978.515442 
	C1044.372437,1010.851868 1049.774902,1041.853027 1061.906616,1072.037476 
	C1067.704956,1086.464355 1075.173706,1100.175537 1079.994507,1115.001831 
	C1080.369507,1116.154907 1080.681396,1117.329346 1080.997070,1118.500732 
	C1081.736694,1121.244385 1082.366089,1124.006592 1079.491821,1125.988037 
	C1077.071289,1127.656616 1074.776855,1127.268066 1072.469971,1125.540161 
	C1071.482788,1124.800537 1069.976685,1124.733032 1069.031128,1123.961914 
	C1063.267212,1119.260986 1057.763794,1119.524170 1051.407227,1123.345825 
	C1046.164062,1126.498047 1040.277832,1128.796631 1034.000000,1129.500000 
"/>
<path fill="none" opacity="1.000000" stroke="#000000" stroke-linecap="round" stroke-linejoin="round" stroke-width="3.000000"
	d="
M801.500000,1302.000000 
	C799.511780,1302.137207 797.941895,1301.139038 796.511169,1299.986084 
	C783.996216,1289.901001 771.871948,1279.319092 760.581665,1267.919067 
	C735.018677,1242.107910 713.323792,1213.372070 697.564514,1180.469116 
	C693.766113,1172.538452 690.948059,1164.157349 686.590637,1156.448730 
	C685.315308,1154.192383 684.508423,1151.537354 681.518982,1152.100708 
	C677.947388,1152.773804 677.619080,1155.886597 677.473816,1158.998779 
	C676.401733,1181.959595 681.425659,1204.009521 688.682800,1225.438110 
	C695.940552,1246.868408 704.370239,1267.914307 714.947205,1288.027710 
	C721.086609,1299.702515 729.156555,1309.974854 737.589783,1319.923950 
	C746.886353,1330.891602 756.522644,1341.607910 767.008728,1351.490723 
	C784.292664,1367.780396 802.295288,1383.252808 820.484131,1398.518921 
	C843.002380,1417.418945 862.735535,1438.704468 876.507446,1464.996094 
	C877.118835,1466.163208 877.418640,1467.623291 879.000000,1468.000000 
"/>
<path fill="none" opacity="1.000000" stroke="#000000" stroke-linecap="round" stroke-linejoin="round" stroke-width="3.000000"
	d="
M1321.000000,1633.000000 
	C1334.119995,1627.864136 1346.570435,1621.336426 1357.426392,1612.410400 
	C1380.230347,1593.660767 1400.011475,1572.255981 1411.434570,1544.473145 
	C1421.099609,1520.966187 1421.546509,1497.835205 1406.486450,1476.009277 
	C1397.783081,1463.395752 1385.093506,1457.052734 1370.484985,1454.588745 
	C1348.730225,1450.919434 1328.313232,1455.140869 1310.062378,1467.591309 
	C1296.592041,1476.780640 1288.362549,1489.945068 1283.406982,1505.470337 
	C1278.921997,1519.521240 1276.242676,1533.855591 1276.114014,1548.500977 
	C1275.907471,1572.016602 1283.167236,1593.257568 1297.497681,1612.001709 
	C1303.483887,1619.831665 1310.959351,1626.201660 1317.981812,1633.018799 
	C1318.796631,1633.809570 1319.666992,1633.331787 1320.500000,1633.500000 
"/>
<path fill="none" opacity="1.000000" stroke="#000000" stroke-linecap="round" stroke-linejoin="round" stroke-width="3.000000"
	d="
M687.500000,401.500000 
	C688.044922,414.580872 689.149414,427.569794 691.370300,440.522247 
	C694.010498,455.920013 697.584839,471.059692 702.050720,485.984833 
	C709.153503,509.722321 717.700134,532.923950 727.935608,555.529175 
	C741.265991,584.969727 755.724670,613.755249 773.991882,640.505554 
	C788.366638,661.555664 806.020020,679.391418 826.494751,694.507080 
	C840.399719,704.772461 855.293884,713.295715 870.982666,720.537598 
	C890.990845,729.773315 911.781738,736.733826 933.005615,742.479126 
	C944.720032,745.650330 956.468384,748.680420 968.470703,750.676270 
	C969.802673,750.897766 972.281799,750.759460 973.000000,753.000000 
"/>
<path fill="none" opacity="1.000000" stroke="#000000" stroke-linecap="round" stroke-linejoin="round" stroke-width="3.000000"
	d="
M993.000000,1313.500000 
	C987.482910,1293.245361 974.206848,1278.026123 960.541443,1262.962402 
	C944.408325,1245.178589 933.517456,1224.423950 926.449951,1201.515503 
	C920.976135,1183.773071 917.276367,1165.631226 913.526733,1147.494507 
	C910.726135,1133.947998 908.020203,1120.384399 904.501099,1106.999756 
	C904.326355,1106.335205 904.327942,1105.560913 903.972229,1105.018188 
	C902.400269,1102.619751 901.120911,1099.460571 897.512817,1100.075317 
	C894.158752,1100.646973 893.298950,1103.540649 893.010925,1106.501099 
	C891.439636,1122.651367 891.165222,1138.764771 892.377258,1155.009155 
	C895.422852,1195.827759 907.039612,1234.550415 919.996460,1273.001221 
	C922.520935,1280.492920 924.795044,1288.079834 927.659912,1295.437744 
	C928.289368,1297.054443 928.237061,1298.484375 928.500000,1300.000000 
"/>
<path fill="none" opacity="1.000000" stroke="#000000" stroke-linecap="round" stroke-linejoin="round" stroke-width="3.000000"
	d="
M788.000000,1186.500000 
	C784.293701,1180.528320 783.942444,1173.591187 782.550537,1166.989380 
	C778.451050,1147.545288 777.804810,1127.669678 775.537170,1107.995728 
	C773.674500,1091.835449 771.225525,1075.787842 765.391235,1060.541626 
	C762.709778,1053.534546 760.026489,1046.237671 753.669922,1041.237915 
	C749.490295,1042.828491 750.063416,1046.489258 749.525574,1049.504517 
	C748.273865,1056.522095 749.839722,1063.501465 750.059082,1070.498169 
	C750.299683,1078.172852 751.289185,1085.827637 751.441589,1093.501099 
	C751.792419,1111.164185 751.969727,1128.833374 751.966492,1146.500000 
	C751.962219,1170.030273 753.875854,1193.328613 760.652588,1215.954346 
	C761.990601,1220.421509 763.066040,1225.088623 766.228210,1229.208618 
	C768.386230,1232.020264 768.231873,1236.711426 769.390137,1240.533325 
	C773.196838,1253.093872 779.215759,1264.651367 787.742004,1274.285767 
	C794.720215,1282.171021 803.713440,1288.316284 812.023193,1294.971069 
	C834.169495,1312.706665 854.343628,1332.328979 869.424072,1356.547241 
	C882.509583,1377.561890 890.240417,1400.380249 888.922241,1425.495972 
	C888.162720,1439.965942 884.734436,1453.817261 879.731384,1467.584106 
	C869.745117,1495.063477 853.758667,1518.443604 834.534485,1540.030640 
	C815.284485,1561.646729 793.254272,1579.604370 766.949585,1591.892090 
	C759.821350,1595.221802 752.704590,1599.113770 744.500000,1599.500000 
"/>
<path fill="none" opacity="1.000000" stroke="#000000" stroke-linecap="round" stroke-linejoin="round" stroke-width="3.000000"
	d="
M1309.000000,396.500000 
	C1305.108765,411.939087 1298.534790,426.316711 1291.489990,440.494995 
	C1268.006958,487.756012 1233.354614,524.731567 1187.939697,551.397217 
	C1165.221313,564.736450 1140.850952,574.424316 1114.994263,579.973267 
	C1095.060059,584.251160 1074.968262,587.511841 1054.500000,587.473816 
	C1039.891602,587.446716 1026.062744,583.841003 1012.462708,578.596741 
	C996.061462,572.272400 982.086670,562.515686 969.500000,550.500000 
"/>
<path fill="none" opacity="1.000000" stroke="#000000" stroke-linecap="round" stroke-linejoin="round" stroke-width="3.000000"
	d="
M879.500000,1472.000000 
	C885.231140,1481.422119 888.222778,1491.920166 890.377808,1502.524780 
	C894.257751,1521.617310 894.336731,1541.151245 895.984741,1560.501343 
	C898.322083,1587.944580 888.279724,1611.919067 875.027710,1635.015869 
	C869.106018,1645.336914 861.699524,1654.613037 853.367615,1662.866333 
	C836.174072,1679.897705 815.721924,1692.216797 792.977112,1700.436768 
	C769.922241,1708.768677 746.104431,1713.151001 721.501709,1713.595459 
	C703.756897,1713.916138 686.207214,1713.240845 669.000000,1708.500000 
"/>
<path fill="none" opacity="1.000000" stroke="#000000" stroke-linecap="round" stroke-linejoin="round" stroke-width="3.000000"
	d="
M1267.000000,1165.500000 
	C1268.332275,1166.583618 1268.013306,1168.101074 1267.987793,1169.499756 
	C1267.752441,1182.404175 1268.860352,1195.219482 1270.505005,1207.999390 
	C1270.959473,1211.530640 1271.973877,1215.073486 1275.543091,1216.382446 
	C1278.794922,1217.574707 1281.537842,1214.977661 1283.402710,1212.912231 
	C1292.858398,1202.439575 1301.698975,1191.461060 1308.501099,1179.000610 
	C1319.173340,1159.450684 1327.847656,1139.158569 1333.644409,1117.538696 
	C1339.052368,1097.369751 1340.444214,1077.324463 1335.413818,1057.021362 
	C1334.448364,1053.124390 1333.051880,1049.204956 1329.531372,1046.459717 
	C1324.711914,1042.701416 1317.082886,1043.902222 1312.967407,1047.462402 
	C1306.756104,1052.835449 1303.284302,1060.023315 1299.522705,1067.012207 
	C1287.890137,1088.624878 1280.155762,1111.770020 1272.247437,1134.913696 
	C1268.908691,1144.684326 1268.057129,1154.576538 1266.500000,1164.500000 
"/>
<path fill="none" opacity="1.000000" stroke="#000000" stroke-linecap="round" stroke-linejoin="round" stroke-width="3.000000"
	d="
M853.000000,1088.000000 
	C857.391235,1075.543091 861.703979,1063.013428 863.912415,1049.985107 
	C868.394775,1023.542053 868.375671,997.244080 859.500366,971.499878 
	C854.951843,958.306274 847.201904,947.360657 834.932312,940.623291 
	C818.601990,931.656372 801.599731,934.596375 789.541809,949.533752 
	C770.504089,973.117676 769.336670,999.822266 777.657288,1027.452637 
	C782.763000,1044.407227 793.112366,1058.375244 806.510254,1069.988159 
	C807.766541,1071.077148 809.083923,1072.722046 810.513062,1072.885864 
	C822.019409,1074.205078 824.132141,1083.351807 826.419556,1092.021240 
	C829.223633,1102.648926 830.064514,1113.765869 834.416626,1124.035400 
	C834.870300,1125.105835 834.648315,1127.063721 833.926392,1127.939331 
	C825.680664,1137.940063 819.207642,1149.196777 811.339172,1159.508789 
	C802.351379,1171.287842 791.982117,1181.784790 782.907837,1193.428101 
	C775.293823,1203.197754 768.563232,1213.114380 767.960571,1225.998169 
	C767.936523,1226.512573 767.333374,1227.000000 767.000061,1227.500000 
"/>
<path fill="none" opacity="1.000000" stroke="#000000" stroke-linecap="round" stroke-linejoin="round" stroke-width="3.000000"
	d="
M689.000000,407.000000 
	C692.064514,409.453857 692.773254,413.266418 694.522339,416.487885 
	C710.593018,446.088531 728.748047,474.299194 749.950562,500.539948 
	C762.299011,515.822632 775.735596,530.085571 790.086975,543.406311 
	C809.991943,561.881836 831.620850,578.226257 856.569397,589.344238 
	C870.056702,595.354614 884.296997,599.344055 899.505615,596.530212 
	C908.019165,594.955017 915.743530,591.386292 922.951233,586.921265 
	C939.477966,576.683350 954.913269,564.948669 969.000000,551.500000 
"/>
<path fill="none" opacity="1.000000" stroke="#000000" stroke-linecap="round" stroke-linejoin="round" stroke-width="3.000000"
	d="
M1107.500000,1399.500000 
	C1119.755737,1426.042725 1129.623413,1453.511475 1139.607422,1480.960938 
	C1150.713135,1511.494873 1163.571045,1541.294678 1182.536499,1567.973999 
	C1196.012817,1586.931641 1210.152344,1605.859619 1229.255249,1619.132690 
	C1249.753662,1633.375610 1273.024536,1641.917847 1298.994019,1637.960571 
	C1305.319336,1636.996704 1311.934204,1636.889648 1317.500000,1633.000000 
"/>
<path fill="none" opacity="1.000000" stroke="#000000" stroke-linecap="round" stroke-linejoin="round" stroke-width="3.000000"
	d="
M1266.000000,1165.500000 
	C1262.434082,1170.436523 1262.784180,1176.466675 1261.580200,1182.017456 
	C1256.674927,1204.632812 1253.689453,1227.622925 1247.586914,1250.023682 
	C1239.176147,1280.897217 1226.018677,1309.419678 1205.366089,1333.886963 
	C1185.580933,1357.326538 1162.167114,1376.676758 1133.961426,1389.414551 
	C1117.511353,1396.843506 1100.123657,1400.966309 1082.004395,1402.071533 
	C1069.515381,1402.833374 1057.279297,1401.918213 1044.974609,1399.636719 
	C1034.395386,1397.675049 1027.742798,1391.526367 1024.619873,1381.960815 
	C1016.906494,1358.334106 1010.085999,1334.370728 1008.153076,1309.488159 
	C1006.592651,1289.401733 1008.060974,1269.532593 1017.455688,1250.977539 
	C1025.927490,1234.245239 1039.390015,1225.701294 1057.995117,1224.428345 
	C1069.825073,1223.619019 1081.693970,1223.261597 1093.482056,1222.283691 
	C1107.215942,1221.144287 1121.044922,1219.956299 1134.510864,1216.543091 
	C1135.176025,1216.374634 1136.000000,1216.833252 1136.750000,1217.000000 
"/>
<path fill="none" opacity="1.000000" stroke="#000000" stroke-linecap="round" stroke-linejoin="round" stroke-width="3.000000"
	d="
M1229.500000,640.000000 
	C1223.901123,637.529480 1218.026978,639.344849 1212.536865,639.878906 
	C1208.271973,640.293579 1203.764893,640.710266 1199.467163,641.226624 
	C1186.128296,642.829285 1172.929321,645.222717 1160.044800,648.667664 
	C1135.881958,655.127991 1112.579712,664.097961 1090.505371,676.010071 
	C1072.866821,685.528381 1056.463867,696.979065 1040.557373,709.075378 
	C1021.896057,723.266418 1002.545715,736.379944 982.493835,748.489746 
	C981.019653,749.379944 979.154175,749.820801 979.000000,752.000000 
"/>
<path fill="none" opacity="1.000000" stroke="#000000" stroke-linecap="round" stroke-linejoin="round" stroke-width="3.000000"
	d="
M1092.250000,774.000000 
	C1086.181396,771.011292 1079.428101,770.869385 1072.980103,769.600830 
	C1056.205933,766.300598 1039.298096,763.687866 1022.459717,760.729309 
	C1010.168152,758.569702 997.623596,757.187561 985.598389,754.114990 
	C978.093506,752.197327 973.005920,753.461914 966.890564,757.326782 
	C958.665283,762.525208 949.787598,766.754150 940.975098,770.947571 
	C922.033386,779.961121 902.054016,785.128174 881.003357,784.402100 
	C854.978821,783.504517 831.872009,774.844727 811.896973,757.619507 
	C801.465637,748.624146 793.146545,737.708252 783.075745,728.417908 
	C773.952637,720.001709 763.742920,713.555664 752.510620,708.476501 
	C736.677307,701.316833 720.201660,696.452759 703.001099,693.992126 
	C684.691772,691.372803 667.544434,693.535095 654.060608,707.558289 
	C636.070618,726.267944 643.857666,748.296143 662.008057,758.485657 
	C682.690308,770.096558 701.681702,764.553040 719.435181,751.908997 
	C733.960815,741.563843 743.176025,726.993530 749.527100,710.510437 
	C749.815430,709.762207 750.500000,709.166687 751.000000,708.500000 
"/>
<path fill="none" opacity="1.000000" stroke="#000000" stroke-linecap="round" stroke-linejoin="round" stroke-width="3.000000"
	d="
M1308.000000,404.500000 
	C1311.181885,408.879333 1309.546021,413.897949 1309.344482,418.493164 
	C1308.779053,431.379517 1307.739868,444.232849 1305.626465,457.020905 
	C1303.449585,470.193939 1300.516602,483.146759 1297.008545,496.002350 
	C1290.567749,519.605225 1281.667603,542.309143 1271.433350,564.469238 
	C1260.732056,587.640503 1249.168579,610.388062 1235.535400,632.022278 
	C1234.433960,633.769958 1233.833252,635.833313 1232.999878,637.749939 
"/>
<path fill="none" opacity="1.000000" stroke="#000000" stroke-linecap="round" stroke-linejoin="round" stroke-width="4.000000"
	d="
M1014.000000,1258.000000 
	C1000.676880,1256.159912 987.434875,1253.825684 975.027771,1248.436035 
	C964.786072,1243.987061 954.325317,1239.634155 947.367798,1229.382935 
	C954.546936,1225.442749 961.651978,1222.601440 969.016296,1220.558838 
	C979.492371,1217.653076 990.107971,1215.542603 1000.970886,1214.254395 
	C1007.649658,1213.462402 1014.432373,1214.412720 1021.016663,1212.559082 
	C1024.348511,1211.621094 1027.753052,1212.909668 1030.976440,1213.608643 
	C1037.568359,1215.038330 1038.514893,1214.638916 1039.512085,1208.001831 
	C1039.589111,1207.488770 1039.838379,1207.001709 1040.328857,1205.554810 
	C1030.984985,1206.573242 1022.202881,1202.815674 1012.963379,1205.367554 
	C1008.848267,1206.503906 1004.340515,1205.816162 999.976379,1206.275635 
	C986.549194,1207.688843 974.140137,1212.460693 961.526550,1216.581299 
	C957.207397,1217.992432 952.832520,1219.245117 948.572266,1220.710205 
	C944.930359,1221.962646 943.671936,1220.820679 942.173401,1217.857056 
	C944.670166,1213.363525 949.590210,1211.680054 953.173767,1208.709595 
	C961.182068,1202.071411 967.519470,1194.011841 974.482544,1186.483887 
	C982.361450,1177.965698 990.974792,1170.778564 1002.459351,1167.363281 
	C1007.879578,1165.750977 1012.816467,1166.308960 1017.456482,1168.588501 
	C1029.416504,1174.464111 1036.789917,1184.391724 1040.365356,1197.038086 
	C1041.091431,1199.605957 1040.968140,1202.713867 1040.002930,1205.500244 
	C1061.200806,1211.698975 1125.859009,1210.373779 1137.786255,1202.306396 
	C1135.894897,1197.673096 1131.636353,1196.138062 1127.494995,1194.512695 
	C1122.683228,1192.624512 1117.725220,1191.072754 1113.023560,1188.947876 
	C1104.493774,1185.092773 1096.963623,1179.564941 1089.513672,1173.981689 
	C1077.153320,1164.718384 1063.522583,1159.887695 1048.015137,1162.587036 
	C1039.780762,1164.020508 1031.873413,1166.618408 1028.000000,1175.250000 
"/>
<path fill="none" opacity="1.000000" stroke="#000000" stroke-linecap="round" stroke-linejoin="round" stroke-width="3.000000"
	d="
M834.000000,1128.500000 
	C837.291077,1134.976807 838.431152,1142.149658 840.413879,1149.024902 
	C848.208679,1176.053955 858.064880,1202.270630 870.519348,1227.490479 
	C880.161255,1247.015137 891.314880,1265.680054 904.640015,1282.891602 
	C909.914978,1289.704956 916.605774,1295.404297 924.393799,1299.692871 
	C926.140320,1300.654663 928.516846,1299.124512 929.500000,1301.500000 
"/>
<path fill="none" opacity="1.000000" stroke="#000000" stroke-linecap="round" stroke-linejoin="round" stroke-width="3.000000"
	d="
M810.000000,1164.500000 
	C812.500000,1173.166626 815.056152,1181.817627 817.487061,1190.503662 
	C821.340210,1204.271606 826.990906,1217.341431 832.392883,1230.543823 
	C841.114258,1251.859009 852.392639,1271.885620 862.530396,1292.484985 
	C863.977844,1295.426270 865.833313,1298.166626 867.500000,1301.000000 
"/>
<path fill="none" opacity="1.000000" stroke="#000000" stroke-linecap="round" stroke-linejoin="round" stroke-width="4.000000"
	d="
M1139.500000,1216.000000 
	C1135.494385,1217.162476 1135.584229,1221.396606 1133.584473,1224.063354 
	C1122.639038,1238.659546 1108.107178,1247.882935 1091.005493,1253.516724 
	C1082.702393,1256.251953 1074.165161,1257.488037 1065.518921,1258.642212 
	C1053.494507,1260.247192 1041.468872,1259.614258 1029.512451,1259.166504 
	C1024.816040,1258.990601 1019.611267,1259.776611 1015.000000,1257.500000 
"/>
<path fill="none" opacity="1.000000" stroke="#000000" stroke-linecap="round" stroke-linejoin="round" stroke-width="3.000000"
	d="
M1053.000000,490.500000 
	C1058.479492,501.222015 1060.859253,512.916992 1063.439941,524.513367 
	C1065.367188,533.173157 1066.747192,541.954712 1068.378296,550.722229 
	C1062.637451,551.138733 1057.965332,548.379578 1053.602661,546.286072 
	C1034.006348,536.882019 1015.941101,525.082764 1000.999207,509.000732 
	C999.147400,507.007629 998.031616,504.597717 997.542664,501.992004 
	C996.915710,498.651276 999.504211,494.942657 1002.500000,494.500031 
	C1005.212097,494.099335 1008.106628,497.018463 1008.505798,500.499329 
	C1008.954224,504.409790 1007.917114,507.779327 1005.000000,510.500000 
"/>
<path fill="none" opacity="1.000000" stroke="#000000" stroke-linecap="round" stroke-linejoin="round" stroke-width="3.000000"
	d="
M787.500000,1190.000000 
	C791.411133,1198.102173 793.820129,1206.787964 797.398438,1215.044067 
	C806.582947,1236.234985 816.268738,1257.154663 830.592712,1275.427368 
	C839.148193,1286.341309 849.399292,1295.487061 862.980957,1300.056519 
	C864.124634,1300.441284 865.000000,1300.799805 866.000000,1300.000000 
"/>
<path fill="none" opacity="1.000000" stroke="#000000" stroke-linecap="round" stroke-linejoin="round" stroke-width="3.000000"
	d="
M1105.500000,1398.000000 
	C1103.809937,1391.761719 1100.241577,1386.425903 1096.942139,1381.035400 
	C1084.240234,1360.283813 1069.292603,1341.468750 1048.991577,1327.512207 
	C1035.450684,1318.203125 1020.679138,1312.411255 1004.000366,1312.544189 
	C1000.831238,1312.569458 997.648804,1313.053711 994.508057,1313.550903 
	C993.082275,1313.776611 991.816528,1313.922119 992.301086,1316.536865 
	C992.924133,1319.898560 992.326233,1323.485474 991.716003,1327.037109 
	C991.048035,1330.924561 989.086243,1333.117920 985.957947,1334.397217 
	C983.966980,1335.211426 982.047607,1334.033936 981.005859,1331.996948 
	C979.343262,1328.746216 979.495605,1325.488525 981.533142,1322.522827 
	C983.956970,1318.994751 986.782898,1315.856567 991.500000,1315.500000 
"/>
<path fill="none" opacity="1.000000" stroke="#000000" stroke-linecap="round" stroke-linejoin="round" stroke-width="3.000000"
	d="
M1105.000000,984.500000 
	C1105.410889,985.812866 1105.689819,987.262329 1107.007446,987.986389 
	C1122.897217,996.718262 1138.973877,1004.773254 1157.493286,1006.568848 
	C1176.218018,1008.384338 1193.534912,1005.191284 1209.010986,994.015137 
	C1210.094116,993.232849 1211.333374,992.666687 1212.500000,992.000061 
"/>
<path fill="none" opacity="1.000000" stroke="#000000" stroke-linecap="round" stroke-linejoin="round" stroke-width="4.000000"
	d="
M228.000000,760.500000 
	C229.402054,763.260681 228.638763,766.101746 228.639481,768.999939 
	C228.642502,781.166748 228.889359,793.349182 229.585464,805.495117 
	C230.169479,815.685608 231.301315,825.857788 232.549362,835.993896 
	C234.176773,849.211365 235.905853,862.420349 238.418457,875.515625 
	C238.822327,877.620483 239.699753,878.967224 241.517944,879.429382 
	C243.286957,879.878967 245.170212,878.683899 245.878525,877.431274 
	C247.390091,874.758240 249.795502,871.956604 247.496948,868.502014 
	C245.078690,864.867554 241.655533,865.133179 237.996140,865.983337 
	C229.288391,868.006287 222.359406,873.281616 215.543060,878.555664 
	C202.764755,888.442627 191.785217,900.158569 181.502350,913.267151 
	C185.950745,916.655701 191.129730,917.082275 195.969360,918.597839 
	C208.872391,922.638794 221.957947,925.017883 235.499298,924.482178 
	C241.024475,924.263672 246.377243,923.252319 249.411255,917.949219 
	C250.369385,916.274536 251.622925,914.193359 249.571472,911.935059 
	C248.093491,910.308044 246.930038,908.173462 244.515411,908.589417 
	C242.018845,909.019531 240.643906,910.774963 239.884796,913.467529 
	C238.884750,917.014771 240.000854,920.183289 240.500000,923.500000 
"/>
<path fill="none" opacity="1.000000" stroke="#000000" stroke-linecap="round" stroke-linejoin="round" stroke-width="3.000000"
	d="
M1618.500000,181.000000 
	C1612.633179,188.413528 1609.214844,197.213989 1605.116455,205.557205 
	C1591.959106,232.341278 1579.711060,259.539215 1570.360840,287.954193 
	C1569.967163,289.150848 1569.541504,290.266693 1569.511230,291.500275 
	C1569.390381,296.418243 1570.848267,297.288147 1575.515259,295.540802 
	C1578.916992,294.267303 1581.281494,292.624146 1581.595337,288.507263 
	C1581.907104,284.416718 1579.513306,283.027710 1576.527588,281.447968 
	C1570.228027,278.114990 1563.447388,279.202454 1557.011353,279.659668 
	C1535.684448,281.174683 1515.533447,287.543030 1495.152466,296.172516 
	C1509.709473,313.035706 1525.261963,327.846375 1545.500000,337.000000 
"/>
<path fill="none" opacity="1.000000" stroke="#000000" stroke-linecap="round" stroke-linejoin="round" stroke-width="4.000000"
	d="
M365.000000,181.500000 
	C362.785614,185.073593 364.594391,188.883438 364.663147,192.496902 
	C364.834595,201.506317 365.492310,210.541061 366.570068,219.491562 
	C368.909424,238.919525 370.315338,258.512360 375.548950,277.486481 
	C376.540375,281.080811 377.853943,284.663055 379.573914,287.961456 
	C382.099854,292.805603 385.620758,292.859985 389.500000,288.500000 
	C385.226349,280.582581 382.357117,278.746277 377.000000,280.500000 
"/>
<path fill="none" opacity="1.000000" stroke="#000000" stroke-linecap="round" stroke-linejoin="round" stroke-width="3.000000"
	d="
M1620.500000,175.500000 
	C1619.007935,178.255371 1619.091553,181.001953 1619.931763,184.018997 
	C1621.304565,188.948746 1620.228882,193.996582 1620.019043,199.000793 
	C1619.697632,206.662643 1619.882446,214.330780 1619.633179,222.004333 
	C1619.018555,240.927368 1617.085815,259.713318 1615.000000,278.500000 
"/>
<path fill="none" opacity="1.000000" stroke="#000000" stroke-linecap="round" stroke-linejoin="round" stroke-width="3.000000"
	d="
M1741.000000,943.500000 
	C1740.258057,944.731995 1738.961426,945.348816 1738.357422,946.946045 
	C1737.276245,949.804382 1734.361816,952.408630 1738.516113,954.973877 
	C1741.329224,956.710938 1745.270996,955.301086 1747.509888,952.006714 
	C1747.770142,951.623657 1748.166626,951.333313 1748.635498,950.864441 
	C1745.231201,941.479919 1736.640381,938.851196 1728.454712,936.669861 
	C1716.744995,933.549377 1704.639893,933.471191 1692.495850,933.875671 
	C1680.445312,934.277100 1668.453003,935.101318 1656.510132,936.582153 
	C1652.632812,937.062927 1648.546753,937.134949 1645.000000,939.250000 
"/>
<path fill="none" opacity="1.000000" stroke="#000000" stroke-linecap="round" stroke-linejoin="round" stroke-width="3.000000"
	d="
M1741.500000,942.000000 
	C1747.861694,930.272400 1755.183472,919.149353 1762.364624,907.913513 
	C1771.397705,893.780396 1781.638794,880.615662 1791.996338,867.497070 
	C1793.396484,865.723633 1794.747314,863.911255 1796.362183,862.352722 
	C1798.125000,863.458313 1798.462769,864.350037 1798.510254,865.499573 
	C1799.709229,894.569214 1795.291382,922.845154 1786.476562,950.492554 
	C1785.821045,952.549194 1784.833252,954.500000 1784.000000,956.500000 
"/>
<path fill="none" opacity="1.000000" stroke="#000000" stroke-linecap="round" stroke-linejoin="round" stroke-width="3.000000"
	d="
M811.000000,1073.500000 
	C806.595703,1079.848145 806.896362,1087.388794 806.107056,1094.511841 
	C803.804626,1115.290405 805.403015,1135.959839 809.026611,1156.495361 
	C809.150757,1157.198853 809.666687,1157.833374 810.000000,1158.500000 
"/>
<path fill="none" opacity="1.000000" stroke="#000000" stroke-linecap="round" stroke-linejoin="round" stroke-width="3.000000"
	d="
M976.500000,409.500000 
	C982.596558,409.330902 987.241577,411.871307 990.617126,417.088531 
	C989.519714,420.213654 987.502563,421.977722 984.001587,421.488617 
	C980.551331,421.006592 976.989441,417.236603 976.513245,413.498322 
	C975.525635,405.744751 977.470886,398.379456 979.476562,390.993652 
	C984.726013,371.663300 992.248108,353.196686 1000.516357,335.007416 
	C1001.010803,333.919556 1001.740173,332.938477 1002.553040,331.587250 
	C1009.013306,340.587860 1013.523132,350.333740 1017.894531,360.047455 
	C1025.352417,376.619934 1032.223389,393.451141 1035.548584,411.491028 
	C1036.654419,417.490265 1034.450562,421.904602 1029.978760,425.473328 
	C1027.767822,427.237671 1024.748169,427.541077 1023.160706,425.381836 
	C1021.494324,423.115173 1022.006104,420.276947 1024.982178,418.470551 
	C1029.952637,415.453400 1035.525269,415.337952 1041.002808,415.053741 
	C1050.134399,414.579926 1059.107056,416.143066 1067.993896,418.028656 
	C1080.018433,420.579987 1091.988892,423.385468 1104.013184,425.937775 
	C1105.620972,426.279022 1107.061035,426.816925 1109.105347,427.794067 
	C1093.067871,450.768585 1074.034790,470.787537 1052.839844,489.697693 
	C1050.712646,484.851532 1047.364624,482.997314 1042.492920,483.417480 
	C1039.324463,483.690765 1039.551270,486.249329 1038.321899,487.751068 
	C1042.941162,494.209106 1045.389404,494.585754 1051.500000,490.000000 
"/>
<path fill="none" opacity="1.000000" stroke="#000000" stroke-linecap="round" stroke-linejoin="round" stroke-width="3.000000"
	d="
M364.000000,177.500000 
	C366.140930,183.317490 371.131165,187.063904 374.581177,191.942596 
	C387.891296,210.764252 401.241119,229.544601 411.971588,250.014893 
	C413.838593,253.576553 415.333313,257.333344 417.000000,261.000000 
"/>
<path fill="none" opacity="1.000000" stroke="#000000" stroke-linecap="round" stroke-linejoin="round" stroke-width="4.000000"
	d="
M906.500000,425.500000 
	C915.727966,438.949280 925.721741,451.732422 939.023254,461.468262 
	C945.527527,466.229095 952.505005,469.810272 961.002197,469.582916 
	C965.450378,469.463898 968.808594,467.864685 971.734863,464.746704 
	C965.953979,458.674286 961.864990,459.388794 957.393494,465.927155 
	C953.559265,471.533813 953.096863,477.949799 952.778931,484.014618 
	C952.386414,491.502686 951.058472,498.970978 951.510681,506.499359 
	C952.489685,522.796265 957.074463,537.646057 969.000000,549.500000 
"/>
<path fill="none" opacity="1.000000" stroke="#000000" stroke-linecap="round" stroke-linejoin="round" stroke-width="3.000000"
	d="
M230.000000,766.000000 
	C235.306854,771.441467 238.009537,778.495300 241.412933,785.045227 
	C248.697220,799.064209 255.609970,813.280579 262.445099,827.526367 
	C265.120605,833.102661 266.180176,839.392029 269.924957,844.554443 
	C270.614929,845.505554 269.871613,846.641418 268.566284,847.591125 
	C265.311066,849.959534 264.064117,853.440613 264.488098,857.501221 
	C264.809998,860.584229 266.582275,861.544678 269.499878,861.550903 
	C272.589417,861.557556 272.468292,859.641541 272.525421,857.500671 
	C272.621246,853.909302 271.951996,850.553650 270.000000,847.500000 
"/>
<path fill="none" opacity="1.000000" stroke="#000000" stroke-linecap="round" stroke-linejoin="round" stroke-width="3.000000"
	d="
M376.000000,280.500000 
	C368.265869,283.217377 362.474335,288.892426 356.592346,294.104218 
	C340.543823,308.324097 327.986298,325.513916 316.534424,343.521881 
	C314.459381,346.784851 312.833344,350.333344 311.000000,353.750000 
"/>
<path fill="none" opacity="1.000000" stroke="#000000" stroke-linecap="round" stroke-linejoin="round" stroke-width="3.000000"
	d="
M1625.000000,322.500000 
	C1631.452881,331.861572 1634.030396,342.714905 1636.413574,353.519073 
	C1639.804199,368.890778 1643.315186,384.265320 1644.793335,399.995911 
	C1644.874634,400.860779 1645.583252,401.666687 1646.000000,402.500031 
"/>
<path fill="none" opacity="1.000000" stroke="#000000" stroke-linecap="round" stroke-linejoin="round" stroke-width="4.000000"
	d="
M1546.500000,337.000000 
	C1556.855591,338.471954 1557.498535,337.089996 1560.604126,332.064331 
	C1562.588867,328.852539 1560.452148,327.248688 1558.924927,325.568237 
	C1557.074829,323.532227 1554.280762,323.910126 1552.575195,325.576904 
	C1548.141357,329.909729 1546.258179,335.735596 1544.523560,341.507080 
	C1540.581543,354.622833 1537.710449,368.050995 1535.765869,381.538330 
	C1534.437500,390.751251 1531.858765,399.982605 1532.941040,409.506714 
	C1533.048828,410.456543 1532.333252,411.499969 1532.000000,412.499969 
"/>
<path fill="none" opacity="1.000000" stroke="#000000" stroke-linecap="round" stroke-linejoin="round" stroke-width="3.000000"
	d="
M1699.000000,985.500000 
	C1686.028198,1000.244324 1676.063232,1016.916687 1667.482300,1034.491333 
	C1664.528931,1040.540283 1661.941284,1046.730469 1659.349609,1052.937256 
	C1658.025391,1056.108765 1657.473022,1058.480835 1660.279053,1061.270142 
	C1682.502441,1052.953247 1704.755493,1044.365723 1724.473145,1030.461914 
	C1726.672363,1028.911133 1728.500000,1026.833374 1730.500000,1025.000000 
"/>
<path fill="none" opacity="1.000000" stroke="#000000" stroke-linecap="round" stroke-linejoin="round" stroke-width="3.000000"
	d="
M446.000000,297.500000 
	C449.735809,302.179352 450.017822,308.138855 451.328369,313.541626 
	C455.302734,329.926575 458.503662,346.499237 461.996124,363.000824 
	C462.523987,365.494934 463.000000,368.000000 463.500000,370.500000 
"/>
<path fill="none" opacity="1.000000" stroke="#000000" stroke-linecap="round" stroke-linejoin="round" stroke-width="3.000000"
	d="
M1781.500000,1008.500000 
	C1781.590210,1019.696838 1777.787231,1030.119751 1774.324585,1040.441162 
	C1770.352051,1052.281860 1765.736206,1063.907471 1762.461426,1075.989502 
	C1762.258789,1076.736938 1761.500000,1077.333374 1761.000000,1078.000000 
"/>
<path fill="none" opacity="1.000000" stroke="#000000" stroke-linecap="round" stroke-linejoin="round" stroke-width="3.000000"
	d="
M1851.000000,986.000000 
	C1839.676270,993.151611 1827.224487,997.595215 1814.520630,1001.566101 
	C1805.500488,1004.385620 1796.163574,1005.487305 1786.986206,1007.435242 
	C1785.584717,1007.732666 1784.000000,1007.166626 1782.500000,1007.000000 
"/>
<path fill="none" opacity="1.000000" stroke="#000000" stroke-linecap="round" stroke-linejoin="round" stroke-width="3.000000"
	d="
M287.000000,920.500000 
	C285.881500,934.458496 281.853485,947.695129 276.415192,960.463867 
	C272.387695,969.920105 268.459045,979.491272 262.500000,988.000000 
"/>
<path fill="none" opacity="1.000000" stroke="#000000" stroke-linecap="round" stroke-linejoin="round" stroke-width="3.000000"
	d="
M975.500000,409.000000 
	C970.195312,407.193573 964.906555,408.957703 960.051941,410.202484 
	C943.250549,414.510590 926.677490,419.704926 909.976379,424.416229 
	C908.832581,424.738861 908.283875,425.417542 907.500000,426.000000 
"/>
<path fill="none" opacity="1.000000" stroke="#000000" stroke-linecap="round" stroke-linejoin="round" stroke-width="3.000000"
	d="
M1783.500000,957.000000 
	C1782.591309,961.261902 1780.176392,964.752747 1777.450806,967.958130 
	C1775.016846,970.820312 1773.265747,970.115417 1771.433350,966.534058 
	C1770.031738,963.794556 1769.852539,960.927856 1771.126343,958.568176 
	C1772.983887,955.127014 1776.915771,955.525574 1779.978271,956.113281 
	C1788.594238,957.766785 1796.906128,960.635193 1804.985596,964.034180 
	C1820.731689,970.658142 1836.208130,977.882996 1851.508301,985.483398 
	C1851.775635,985.616211 1852.166626,985.500000 1852.500000,985.500000 
"/>
<path fill="none" opacity="1.000000" stroke="#000000" stroke-linecap="round" stroke-linejoin="round" stroke-width="3.000000"
	d="
M1684.500000,293.000000 
	C1679.002197,292.949921 1674.223267,290.147491 1669.016113,288.930908 
	C1655.634399,285.804352 1642.386963,282.090363 1628.970703,279.132751 
	C1624.321167,278.107758 1619.333374,276.855530 1614.507812,279.027222 
	C1614.356689,282.983337 1613.632935,286.780182 1612.097290,290.539764 
	C1610.804321,293.705292 1608.429932,294.200348 1606.042603,293.376465 
	C1602.925903,292.300903 1602.551880,288.629852 1603.699463,286.613525 
	C1605.735107,283.036926 1608.279175,279.136932 1613.500000,279.500000 
"/>
<path fill="none" opacity="1.000000" stroke="#000000" stroke-linecap="round" stroke-linejoin="round" stroke-width="4.000000"
	d="
M240.000000,924.500000 
	C242.333328,932.833313 244.447067,941.235962 247.049530,949.484375 
	C251.357178,963.137451 256.486176,976.494934 262.500000,989.500000 
"/>
<path fill="none" opacity="1.000000" stroke="#000000" stroke-linecap="round" stroke-linejoin="round" stroke-width="3.000000"
	d="
M1592.000000,358.500000 
	C1577.020508,379.296265 1556.985352,394.427155 1536.031860,408.547302 
	C1535.190430,409.114288 1534.527466,409.652069 1533.500000,409.500000 
"/>
<path fill="none" opacity="1.000000" stroke="#000000" stroke-linecap="round" stroke-linejoin="round" stroke-width="4.000000"
	d="
M286.000000,918.500000 
	C281.823456,916.795349 278.351898,914.365112 276.461914,910.016541 
	C275.502869,907.809937 274.564667,905.791199 277.004608,904.006287 
	C279.157257,902.431763 280.943848,903.995361 282.458862,905.058594 
	C286.274628,907.736328 288.011353,914.224182 286.425659,919.234863 
	C297.751617,924.466797 309.150055,928.864075 321.977783,929.803345 
	C328.979950,930.316040 336.058380,929.621033 343.004883,930.974976 
	C344.739594,931.312988 346.453796,930.935608 348.000000,930.000000 
"/>
<path fill="none" opacity="1.000000" stroke="#000000" stroke-linecap="round" stroke-linejoin="round" stroke-width="3.000000"
	d="
M477.000000,239.000000 
	C475.126068,237.094101 473.429382,239.174698 472.048218,239.642410 
	C456.971222,244.748322 441.965485,250.072739 427.023682,255.564407 
	C423.167511,256.981689 419.530640,259.075134 416.479919,261.978027 
	C418.257935,264.757507 418.553192,267.796204 418.566406,270.999725 
	C418.576202,273.371277 418.216064,275.628540 415.954193,276.358002 
	C414.526276,276.818512 412.231232,277.413757 411.038116,275.476532 
	C409.835327,273.523621 408.910431,271.549103 409.923431,268.969940 
	C411.156738,265.829773 413.458374,263.869080 416.000000,262.000000 
"/>
<path fill="none" opacity="1.000000" stroke="#000000" stroke-linecap="round" stroke-linejoin="round" stroke-width="3.000000"
	d="
M410.000000,343.500000 
	C405.828003,354.331299 402.365265,365.430511 397.520416,376.009338 
	C393.481903,384.827606 390.204468,394.018890 384.500000,402.000000 
"/>
<path fill="none" opacity="1.000000" stroke="#000000" stroke-linecap="round" stroke-linejoin="round" stroke-width="3.000000"
	d="
M331.500000,826.500000 
	C327.116791,828.825439 322.129486,829.024231 317.466034,830.383423 
	C304.347321,834.206787 290.930298,836.948242 277.954987,841.367859 
	C275.229340,842.296326 273.140900,844.135254 270.500000,845.000000 
"/>
<path fill="none" opacity="1.000000" stroke="#000000" stroke-linecap="round" stroke-linejoin="round" stroke-width="3.000000"
	d="
M1681.000000,293.500000 
	C1676.173950,297.735504 1670.014282,299.552124 1664.453857,302.410126 
	C1651.264160,309.189575 1637.833374,315.500061 1624.500000,322.000061 
"/>
<path fill="none" opacity="1.000000" stroke="#000000" stroke-linecap="round" stroke-linejoin="round" stroke-width="3.000000"
	d="
M1643.000000,936.500000 
	C1653.169800,952.958313 1667.696167,964.907593 1683.516846,975.474854 
	C1689.542358,979.499512 1695.846924,983.057312 1702.484009,986.035522 
	C1707.910034,988.470215 1709.240356,988.292786 1713.500000,983.500000 
	C1710.080688,977.408386 1705.593872,977.857056 1701.000000,984.750000 
"/>
<path fill="none" opacity="1.000000" stroke="#000000" stroke-linecap="round" stroke-linejoin="round" stroke-width="3.000000"
	d="
M295.500000,876.000000 
	C291.239197,873.813354 287.139557,873.601013 282.967316,876.452148 
	C280.458649,878.166382 279.601196,880.842346 280.680084,882.905823 
	C282.176331,885.767517 285.615662,885.078857 287.943481,883.889404 
	C291.427704,882.108887 294.830505,879.903259 296.508026,875.826111 
	C307.167786,881.553040 315.285614,890.094788 322.954834,899.038757 
	C331.815582,909.372314 340.327209,920.005066 349.027100,930.477478 
	C349.313202,930.821899 350.000000,930.833313 350.500000,931.000000 
"/>
<path fill="none" opacity="1.000000" stroke="#000000" stroke-linecap="round" stroke-linejoin="round" stroke-width="3.000000"
	d="
M478.500000,237.500000 
	C471.992828,256.812439 462.153564,274.384796 450.464996,290.975342 
	C449.394928,292.494141 447.833344,293.666687 446.500031,295.000031 
"/>
<path fill="none" opacity="1.000000" stroke="#000000" stroke-linecap="round" stroke-linejoin="round" stroke-width="4.000000"
	d="
M366.500000,348.500000 
	C360.243622,349.418488 354.323822,351.703552 348.022827,352.651672 
	C339.360535,353.955139 330.733185,354.600830 321.999725,354.536713 
	C317.501587,354.503662 312.972931,354.102112 308.500000,355.000000 
"/>
<path fill="none" opacity="1.000000" stroke="#000000" stroke-linecap="round" stroke-linejoin="round" stroke-width="3.000000"
	d="
M1593.000000,358.500000 
	C1601.464722,369.754944 1610.739990,380.173279 1623.001221,387.497986 
	C1629.994507,391.675781 1637.000000,395.833313 1644.000000,399.999969 
"/>
<path fill="none" opacity="1.000000" stroke="#000000" stroke-linecap="round" stroke-linejoin="round" stroke-width="4.000000"
	d="
M368.500000,347.000000 
	C366.242340,340.227966 367.403625,335.727997 372.607208,331.411041 
	C375.455475,332.020111 377.936432,333.198242 378.475159,336.504059 
	C378.978973,339.595581 377.426239,341.518555 375.129486,343.640167 
	C372.660919,345.920502 369.164490,346.029846 367.328186,348.035767 
	C368.522736,366.763367 376.650970,383.046753 382.695648,399.929962 
	C383.378357,401.836761 383.868195,403.566254 384.000000,405.500000 
"/>
<path fill="none" opacity="1.000000" stroke="#000000" stroke-linecap="round" stroke-linejoin="round" stroke-width="3.000000"
	d="
M1731.500000,1023.000000 
	C1735.144165,1019.823914 1736.881348,1015.927490 1736.563721,1010.995911 
	C1736.400146,1008.456848 1735.450439,1006.627258 1732.999023,1006.603943 
	C1730.444824,1006.579529 1728.576538,1007.788574 1728.440308,1010.997498 
	C1728.112427,1018.723206 1731.170166,1025.469727 1734.580811,1031.957520 
	C1740.966675,1044.105103 1748.008057,1055.907837 1754.408936,1068.047974 
	C1756.771118,1072.528076 1760.704102,1076.202759 1761.500000,1081.500000 
"/>
<path fill="none" opacity="1.000000" stroke="#000000" stroke-linecap="round" stroke-linejoin="round" stroke-width="3.000000"
	d="
M409.750000,340.000000 
	C404.035797,337.302643 401.492645,332.412506 400.515045,326.497528 
	C399.961273,323.147034 401.200775,320.190674 404.527863,319.682343 
	C407.129547,319.284821 409.062042,321.316284 410.631226,323.920959 
	C413.383820,328.490051 413.111389,333.296051 411.265625,337.394440 
	C409.393494,341.551392 410.852753,342.244843 413.854156,344.679749 
	C427.906433,356.079590 445.132141,360.894440 461.019745,368.458557 
	C461.362640,368.621857 462.000000,368.166687 462.500000,368.000000 
"/>
<path fill="none" opacity="1.000000" stroke="#000000" stroke-linecap="round" stroke-linejoin="round" stroke-width="3.000000"
	d="
M329.500000,828.500000 
	C327.594788,834.298889 323.323120,838.603760 319.981476,843.487305 
	C312.540894,854.361328 305.000000,865.166687 297.500000,876.000000 
"/>
<path fill="none" opacity="1.000000" stroke="#000000" stroke-linecap="round" stroke-linejoin="round" stroke-width="4.000000"
	d="
M1593.000000,355.500000 
	C1596.730103,351.166107 1597.584839,346.403442 1595.557983,340.978333 
	C1594.697021,338.673615 1593.550659,337.197083 1591.003540,337.527039 
	C1588.138794,337.898163 1587.760498,340.388611 1587.562866,342.505859 
	C1587.102905,347.430939 1588.122925,351.989471 1592.000000,355.500000 
"/>
<path fill="none" opacity="1.000000" stroke="#000000" stroke-linecap="round" stroke-linejoin="round" stroke-width="3.000000"
	d="
M1004.000000,513.000000 
	C993.403931,525.849976 982.664429,538.570007 970.500000,550.000000 
"/>
<path fill="none" opacity="1.000000" stroke="#000000" stroke-linecap="round" stroke-linejoin="round" stroke-width="3.000000"
	d="
M1026.500000,1113.500000 
	C1026.115845,1116.429321 1026.621582,1119.117188 1028.493286,1121.505249 
	C1033.896118,1128.398682 1035.215820,1136.713379 1036.470581,1145.004395 
	C1037.450928,1151.482178 1038.166626,1158.000000 1039.000000,1164.500000 
"/>
<path fill="none" opacity="1.000000" stroke="#000000" stroke-linecap="round" stroke-linejoin="round" stroke-width="3.000000"
	d="
M852.000000,1090.000000 
	C847.157471,1101.745361 842.190430,1113.428589 835.000000,1124.000000 
"/>
<path fill="none" opacity="1.000000" stroke="#000000" stroke-linecap="round" stroke-linejoin="round" stroke-width="3.000000"
	d="
M824.500000,1081.500000 
	C830.142334,1082.906372 835.158508,1086.207520 841.001282,1086.990479 
	C844.862610,1087.507812 848.440918,1089.631348 852.500000,1089.000000 
"/>
<path fill="none" opacity="1.000000" stroke="#000000" stroke-linecap="round" stroke-linejoin="round" stroke-width="3.000000"
	d="
M789.500000,1277.500000 
	C789.321960,1279.370117 790.013367,1280.863525 790.913147,1282.546387 
	C794.501709,1289.259277 799.870483,1294.896851 802.205139,1302.436523 
	C803.023376,1305.078979 806.608337,1306.645264 808.000000,1309.500000 
"/>
<path fill="none" opacity="1.000000" stroke="#000000" stroke-linecap="round" stroke-linejoin="round" stroke-width="3.000000"
	d="
M1037.500000,1167.000000 
	C1039.016235,1172.914917 1035.351074,1175.901367 1031.000000,1178.500000 
"/>
<path fill="none" opacity="1.000000" stroke="#000000" stroke-linecap="round" stroke-linejoin="round" stroke-width="4.000000"
	d="
M434.500000,290.500000 
	C433.666687,291.000000 432.755768,291.405792 432.013794,292.016754 
	C429.221405,294.316223 428.531738,297.371613 430.088531,300.455292 
	C431.335663,302.925720 437.251312,303.434113 439.967377,301.455200 
	C442.051025,299.937073 443.839325,298.013519 446.006287,296.045715 
	C442.789062,292.660309 439.770477,289.907867 435.000000,290.500000 
"/>
</svg>